<svg xmlns="http://www.w3.org/2000/svg" viewBox="0 0 150.04 150.04"><title>motiv6</title><g id="motiv6"><path d="M150.21,17.63q0,65.82,0,131.63c0,.79-.18,1-1,1q-43.83,0-87.65,0a18.72,18.72,0,0,1,3.73-1.08c.39-.13.91-.11,1.09-.56.84-2.1,2.19-3.93,3.11-6a1.13,1.13,0,0,0,0-1c-.86-1.93-1.26-4-2.11-6a2.41,2.41,0,0,0-1.75-1.5c-1.59-.41-2.89-1.47-4.42-2-2.05-.66-1.52-2.71-2.32-4a1.92,1.92,0,0,1-.28-.68,1.44,1.44,0,0,0-1.19-1.2,37,37,0,0,1-5.56-2,7.52,7.52,0,0,0-4.3-.7,13.8,13.8,0,0,1-8.36-1.14,8,8,0,0,0-3.95-1,35,35,0,0,0-5.8,1.16,1.57,1.57,0,0,0-1.21,1c-1.23,3-2,6.09-3.35,9a1.4,1.4,0,0,1-.69.86c-1.85.79-3.41,2.11-5.26,2.9a2,2,0,0,0-1.07,1.23c-.93,2.71-1.42,5.54-2.3,8.25-.07.24-.24.57,0,.71.85.6,1.2,1.67,2.07,2.22a2.92,2.92,0,0,1,1.25,1.52c-6,0-12,0-17.95,0-.64,0-.76-.13-.76-.76Q.21,75.2.19,1C.19.18.49.2,1.06.2H108.78c-.39,1.05-.61,2.15-1.07,3.18a24.13,24.13,0,0,0-1.63,4.13c-.13.56-.22,1.3-.77,1.56-1.5.71-2.81,1.72-4.36,2.34s-3.1,1.61-3,3.74a1.72,1.72,0,0,1-.18.6l-1.62,4.93c-.09.3-.3.7,0,.9a25.83,25.83,0,0,1,2.2,2.11c1.34,1.18,2.65,2.38,3.87,3.69.56.59,1.12,1.25,2.15,1.05q3.9-.75,7.72-1.81a1.78,1.78,0,0,1,1.43.14c1.79,1,3.81,1.48,5.68,2.32.88.4,1.79,1.15,2.88.65,2.41-1.08,4.88-2,7.25-3.16,1.78-.88,3.55-1.78,5.72-1.35a10.47,10.47,0,0,0,4.21.21c2.35-.51,4.68-1.1,7-1.62a1,1,0,0,0,.74-.5ZM101.59,62.2c.74.08,1.23.17,1.72.19,1.51,0,3,.49,4.54.1A31.08,31.08,0,0,1,114,61.14c.58,0,.89-.44,1.2-.92,1.16-1.77,1.81-3.81,3.08-5.52a1.51,1.51,0,0,0,0-1.6A33.34,33.34,0,0,1,116.51,48c-.1-.46-.15-1.05-.63-1.29a40,40,0,0,0-4.49-2.13c-1.55-.53-3-1-3.11-3.16a10,10,0,0,0-.83-2.61.66.66,0,0,0-.45-.39l-8.21-3.08a2.55,2.55,0,0,0-1.23-.23c-1.37.16-2.75.25-4.12.42a4.28,4.28,0,0,1-2.06-.24c-2.15-.79-4.34-1.47-6.51-2.2a1.46,1.46,0,0,0-.83,0,47.05,47.05,0,0,1-6.11,1.29c-.42,0-.76.2-.79.69a15.08,15.08,0,0,1-1.08,3.2c-.39,1.26-1.12,2.38-1.51,3.66s-.73,2.92-2.3,3.61c-.87.39-1.64.94-2.47,1.39-1.65.89-3.39,1.65-3.72,4s-1.42,4.35-1.79,6.63a1.53,1.53,0,0,0,.45,1.52c2.15,2,4.14,4.09,6.09,6.24a1.44,1.44,0,0,0,1.54.62c2.6-.66,5.24-1.14,7.79-2a2.15,2.15,0,0,1,1.72.16c2,1,4.11,1.83,6.14,2.81a3.37,3.37,0,0,0,3.59-.18A11.47,11.47,0,0,1,94,65.49c2.11-.72,3.94-2,6-2.82C100.64,62.43,101.17,62.11,101.59,62.2ZM65,95.82c.12,0,.44,0,.75-.12a45.52,45.52,0,0,1,5.79-1.24A2.69,2.69,0,0,0,74,92.87a7.76,7.76,0,0,1,1.14-2.22A22.11,22.11,0,0,0,77,87.73a1.75,1.75,0,0,0,0-1.53c-.61-2-1.8-3.79-2.3-5.84a.88.88,0,0,0-.45-.56c-1.35-.59-2.6-1.4-4-1.86-1.78-.57-3.47-1.33-3.66-3.54A14,14,0,0,0,66,72.35a1.17,1.17,0,0,0-.81-.83c-2.43-1.07-5-1.78-7.42-2.83a4.51,4.51,0,0,0-2.57-.36,14.6,14.6,0,0,1-4.63.3,31.74,31.74,0,0,1-4.92-1.53c-1.68-.63-3.26-1.19-5.09-.46a11.28,11.28,0,0,1-3.7.86,1.42,1.42,0,0,0-1.57,1.42,12.56,12.56,0,0,1-.78,2.41,28.34,28.34,0,0,0-1.47,4.18,4.15,4.15,0,0,1-1,2.3,20,20,0,0,1-3.55,2.27c-1.71,1-3.86,1.44-3.78,4.06,0,.09-.07.19-.1.29-.59,2-1.17,3.93-1.76,5.89-.15.49-.35,1,.06,1.4.95.85,1.76,1.82,2.64,2.72,1.23,1.24,2.52,2.41,3.63,3.77.36.44.79,1,1.35.85.86-.26,1.75-.2,2.6-.47C35,98,36.91,97.53,38.78,97a1.35,1.35,0,0,1,1.13,0c1.9,1.09,4,1.75,6,2.7,1.16.56,2.29,1.11,3.7.36,3-1.59,6.11-3,9.17-4.51a2.47,2.47,0,0,1,1.44-.25C61.73,95.52,63.29,95.65,65,95.82Zm-9.5-53.36a2.64,2.64,0,0,0,.49,0l7.83-1.91a.75.75,0,0,0,.5-.35c1.09-2.05,2.18-4.1,3.29-6.14a.82.82,0,0,0,0-.7q-1.2-3.28-2.36-6.57a.9.9,0,0,0-.62-.67c-2-.53-3.67-2-5.72-2.43a1.31,1.31,0,0,1-1-1c-.39-1.25-.91-2.46-1.27-3.71a1.64,1.64,0,0,0-1.4-1.26,15.35,15.35,0,0,1-3.57-1.28c-2.59-1.13-5.2-1.9-8.07-1.22a6,6,0,0,1-3.83-.38,26.66,26.66,0,0,0-3-1.13c-1.14-.36-2.36-1-3.45-.82-1.55.23-3.13.62-4.68.82-1.8.24-2.47,1.24-3,2.73A77.14,77.14,0,0,1,23,24a2,2,0,0,1-.87,1c-1.81,1-3.61,2.05-5.43,3.06a1.63,1.63,0,0,0-.75,1c-1,2.7-1.45,5.53-2.3,8.25-.09.29-.27.62,0,.91,1.33,1.39,2.59,2.85,4,4.14,1,.92,1.82,2,2.86,2.92.4.35.68.57,1.16.41,2.47-.86,5.1-1.09,7.58-1.94a2,2,0,0,1,1.63,0c2.07,1,4.15,1.93,6.27,2.8a3.53,3.53,0,0,0,2.44.3,33.52,33.52,0,0,0,6-2.75c2.62-1.32,5.11-2.65,8.17-1.83A10.76,10.76,0,0,0,55.53,42.46Zm68.88,68.46a5.61,5.61,0,0,0,.76-.06c2.53-.5,5-1.44,7.54-1.67a.55.55,0,0,0,.47-.37c1-2.11,2.13-4.13,3.27-6.15a1,1,0,0,0,.07-.9q-1.17-3.24-2.32-6.47c-.1-.27-.19-.57-.5-.65-1.92-.52-3.5-1.82-5.44-2.32a1.76,1.76,0,0,1-1.49-1.44c-.15-.72-.52-1.39-.72-2.11-.39-1.41-.84-2.71-2.66-2.72a1.65,1.65,0,0,1-.49-.19c-1.28-.52-2.55-1.05-3.83-1.55a9.75,9.75,0,0,0-6.07-.68c-.34.08-.71,0-1.06.1a4.85,4.85,0,0,1-3.09-.41c-1.84-.8-3.81-1.25-5.71-1.9a1.58,1.58,0,0,0-1-.11c-1.85.61-3.81.69-5.7,1.16a1.59,1.59,0,0,0-1.2,1c-1.17,2.69-1.83,5.56-3,8.24-.28.63-.45,1.32-1.15,1.71-1.78,1-3.51,2.07-5.3,3a1.75,1.75,0,0,0-1,1.15c-.73,2.68-1.49,5.36-2.25,8a1,1,0,0,0,.19,1.16c.48.46.91,1,1.39,1.43,1.81,1.7,3.38,3.64,5.24,5.3.41.36.63.75,1.29.52,2.51-.85,5.18-1.1,7.69-2a1.29,1.29,0,0,1,1.22,0c1.5,1,3.25,1.36,4.82,2.18,1.41.75,2.89,1.68,4.59.95,1.9-.81,3.78-1.71,5.61-2.67,2.41-1.25,4.74-2.66,7.65-1.89A14.39,14.39,0,0,0,124.41,110.92Z" transform="translate(-0.19 -0.19)" style="fill:#6c97b8"/><path d="M18.91,150.21a2.92,2.92,0,0,0-1.25-1.52c-.87-.55-1.22-1.62-2.07-2.22-.2-.14,0-.47,0-.71.88-2.71,1.37-5.54,2.3-8.25A2,2,0,0,1,19,136.28c1.85-.79,3.41-2.11,5.26-2.9a1.4,1.4,0,0,0,.69-.86c1.36-2.91,2.12-6,3.35-9a1.57,1.57,0,0,1,1.21-1,35,35,0,0,1,5.8-1.16,8,8,0,0,1,3.95,1,13.8,13.8,0,0,0,8.36,1.14,7.52,7.52,0,0,1,4.3.7,37,37,0,0,0,5.56,2,1.44,1.44,0,0,1,1.19,1.2,1.92,1.92,0,0,0,.28.68c.8,1.32.27,3.37,2.32,4,1.53.5,2.83,1.56,4.42,2a2.41,2.41,0,0,1,1.75,1.5c.85,2,1.25,4,2.11,6a1.13,1.13,0,0,1,0,1c-.92,2.07-2.27,3.9-3.11,6-.18.45-.7.43-1.09.56a18.72,18.72,0,0,0-3.73,1.08Z" transform="translate(-0.19 -0.19)" style="fill:#f8f8f8"/><path d="M150.21,17.63,147,23.32a1,1,0,0,1-.74.5c-2.35.52-4.68,1.11-7,1.62a10.47,10.47,0,0,1-4.21-.21c-2.17-.43-3.94.47-5.72,1.35-2.37,1.17-4.84,2.08-7.25,3.16-1.09.5-2-.25-2.88-.65-1.87-.84-3.89-1.3-5.68-2.32a1.78,1.78,0,0,0-1.43-.14q-3.83,1.07-7.72,1.81c-1,.2-1.59-.46-2.15-1.05-1.22-1.31-2.53-2.51-3.87-3.69a25.83,25.83,0,0,0-2.2-2.11c-.28-.2-.07-.6,0-.9l1.62-4.93a1.72,1.72,0,0,0,.18-.6c-.08-2.13,1.39-3.08,3-3.74s2.86-1.63,4.36-2.34c.55-.26.64-1,.77-1.56a24.13,24.13,0,0,1,1.63-4.13c.46-1,.68-2.13,1.07-3.18h14c1.78,1,3.55.36,5.32,0h1.7c1.35,1.32,2.52,2.8,3.8,4.17,1.07,1.14,2,2.57,3.81,2.72a7.14,7.14,0,0,1,1.66.3c2.8.95,5.53,2.09,8.25,3.26a.9.9,0,0,1,.54.58c.76,2,1.55,4,2.33,6Z" transform="translate(-0.19 -0.19)" style="fill:#f8f8f8"/><path d="M150.21,17.21c-.78-2-1.57-4-2.33-6a.9.9,0,0,0-.54-.58c-2.72-1.17-5.45-2.31-8.25-3.26a7.14,7.14,0,0,0-1.66-.3c-1.81-.15-2.74-1.58-3.81-2.72-1.28-1.37-2.45-2.85-3.8-4.17,6.55,0,13.1,0,19.65,0,.63,0,.76.13.76.77C150.2,6.37,150.21,11.79,150.21,17.21Z" transform="translate(-0.19 -0.19)" style="fill:#6c97b9"/><path d="M128.12.21c-1.77.36-3.54,1-5.32,0Z" transform="translate(-0.19 -0.19)" style="fill:#799ebc"/><path d="M101.59,62.2c-.42-.09-1,.23-1.55.47-2.06.82-3.89,2.1-6,2.82a11.47,11.47,0,0,0-2.45,1.23A3.37,3.37,0,0,1,88,66.9c-2-1-4.11-1.85-6.14-2.81a2.15,2.15,0,0,0-1.72-.16c-2.55.84-5.19,1.32-7.79,2a1.44,1.44,0,0,1-1.54-.62c-2-2.15-3.94-4.27-6.09-6.24a1.53,1.53,0,0,1-.45-1.52c.37-2.28,1.47-4.37,1.79-6.63s2.07-3.08,3.72-4c.83-.45,1.6-1,2.47-1.39,1.57-.69,1.89-2.24,2.3-3.61s1.12-2.4,1.51-3.66a15.08,15.08,0,0,0,1.08-3.2c0-.49.37-.64.79-.69A47.05,47.05,0,0,0,84,33.09a1.46,1.46,0,0,1,.83,0c2.17.73,4.36,1.41,6.51,2.2a4.28,4.28,0,0,0,2.06.24c1.37-.17,2.75-.26,4.12-.42a2.55,2.55,0,0,1,1.23.23L107,38.45a.66.66,0,0,1,.45.39,10,10,0,0,1,.83,2.61c.06,2.11,1.56,2.63,3.11,3.16a40,40,0,0,1,4.49,2.13c.48.24.53.83.63,1.29a33.34,33.34,0,0,0,1.84,5.07,1.51,1.51,0,0,1,0,1.6c-1.27,1.71-1.92,3.75-3.08,5.52-.31.48-.62.89-1.2.92a31.08,31.08,0,0,0-6.19,1.35c-1.55.39-3-.06-4.54-.1C102.82,62.37,102.33,62.28,101.59,62.2Z" transform="translate(-0.19 -0.19)" style="fill:#f8f8f8"/><path d="M65,95.82c-1.74-.17-3.3-.3-4.84-.47a2.47,2.47,0,0,0-1.44.25c-3.06,1.51-6.16,2.92-9.17,4.51-1.41.75-2.54.2-3.7-.36-2-1-4.07-1.61-6-2.7a1.35,1.35,0,0,0-1.13,0c-1.87.53-3.75,1-5.61,1.59-.85.27-1.74.21-2.6.47-.56.16-1-.41-1.35-.85-1.11-1.36-2.4-2.53-3.63-3.77-.88-.9-1.69-1.87-2.64-2.72-.41-.38-.21-.91-.06-1.4.59-2,1.17-3.92,1.76-5.89,0-.1.11-.2.1-.29-.08-2.62,2.07-3.11,3.78-4.06a20,20,0,0,0,3.55-2.27,4.15,4.15,0,0,0,1-2.3,28.34,28.34,0,0,1,1.47-4.18,12.56,12.56,0,0,0,.78-2.41,1.42,1.42,0,0,1,1.57-1.42,11.28,11.28,0,0,0,3.7-.86c1.83-.73,3.41-.17,5.09.46a31.74,31.74,0,0,0,4.92,1.53,14.6,14.6,0,0,0,4.63-.3,4.51,4.51,0,0,1,2.57.36c2.43,1,5,1.76,7.42,2.83a1.17,1.17,0,0,1,.81.83,14,14,0,0,1,.52,2.05c.19,2.21,1.88,3,3.66,3.54,1.42.46,2.67,1.27,4,1.86a.88.88,0,0,1,.45.56c.5,2,1.69,3.83,2.3,5.84a1.75,1.75,0,0,1,0,1.53,22.11,22.11,0,0,1-1.86,2.92A7.76,7.76,0,0,0,74,92.87a2.69,2.69,0,0,1-2.41,1.59,45.52,45.52,0,0,0-5.79,1.24C65.47,95.77,65.15,95.8,65,95.82Z" transform="translate(-0.19 -0.19)" style="fill:#f8f8f8"/><path d="M55.53,42.46a10.76,10.76,0,0,1-1.73-.19c-3.06-.82-5.55.51-8.17,1.83a33.52,33.52,0,0,1-6,2.75,3.53,3.53,0,0,1-2.44-.3c-2.12-.87-4.2-1.83-6.27-2.8a2,2,0,0,0-1.63,0c-2.48.85-5.11,1.08-7.58,1.94-.48.16-.76-.06-1.16-.41-1-.89-1.84-2-2.86-2.92-1.42-1.29-2.68-2.75-4-4.14-.28-.29-.1-.62,0-.91.85-2.72,1.33-5.55,2.3-8.25a1.63,1.63,0,0,1,.75-1c1.82-1,3.62-2,5.43-3.06A2,2,0,0,0,23,24a77.14,77.14,0,0,0,2.75-7.54c.52-1.49,1.19-2.49,3-2.73,1.55-.2,3.13-.59,4.68-.82,1.09-.15,2.31.46,3.45.82a26.66,26.66,0,0,1,3,1.13,6,6,0,0,0,3.83.38c2.87-.68,5.48.09,8.07,1.22a15.35,15.35,0,0,0,3.57,1.28A1.64,1.64,0,0,1,56.7,19c.36,1.25.88,2.46,1.27,3.71a1.31,1.31,0,0,0,1,1c2.05.47,3.69,1.9,5.72,2.43a.9.9,0,0,1,.62.67q1.16,3.29,2.36,6.57a.82.82,0,0,1,0,.7c-1.11,2-2.2,4.09-3.29,6.14a.75.75,0,0,1-.5.35L56,42.46A2.64,2.64,0,0,1,55.53,42.46Z" transform="translate(-0.19 -0.19)" style="fill:#f8f8f8"/><path d="M124.41,110.92a14.39,14.39,0,0,1-2.19-.24c-2.91-.77-5.24.64-7.65,1.89-1.83,1-3.71,1.86-5.61,2.67-1.7.73-3.18-.2-4.59-.95-1.57-.82-3.32-1.21-4.82-2.18a1.29,1.29,0,0,0-1.22,0c-2.51.88-5.18,1.13-7.69,2-.66.23-.88-.16-1.29-.52-1.86-1.66-3.43-3.6-5.24-5.3-.48-.46-.91-1-1.39-1.43a1,1,0,0,1-.19-1.16c.76-2.69,1.52-5.37,2.25-8a1.75,1.75,0,0,1,1-1.15c1.79-1,3.52-2.06,5.3-3,.7-.39.87-1.08,1.15-1.71,1.19-2.68,1.85-5.55,3-8.24a1.59,1.59,0,0,1,1.2-1c1.89-.47,3.85-.55,5.7-1.16a1.58,1.58,0,0,1,1,.11c1.9.65,3.87,1.1,5.71,1.9a4.85,4.85,0,0,0,3.09.41c.35-.07.72,0,1.06-.1a9.75,9.75,0,0,1,6.07.68c1.28.5,2.55,1,3.83,1.55a1.65,1.65,0,0,0,.49.19c1.82,0,2.27,1.31,2.66,2.72.2.72.57,1.39.72,2.11a1.76,1.76,0,0,0,1.49,1.44c1.94.5,3.52,1.8,5.44,2.32.31.08.4.38.5.65q1.16,3.23,2.32,6.47a1,1,0,0,1-.07.9c-1.14,2-2.29,4-3.27,6.15a.55.55,0,0,1-.47.37c-2.58.23-5,1.17-7.54,1.67A5.61,5.61,0,0,1,124.41,110.92Z" transform="translate(-0.19 -0.19)" style="fill:#f8f8f8"/></g></svg>