<svg xmlns="http://www.w3.org/2000/svg" viewBox="0 0 150.04 150.03"><title>motiv3</title><g id="motiv3"><path d="M122.34.21q13.56,0,27.12,0c.62,0,.77.1.77.75q0,74.25,0,148.49c0,.71-.22.79-.84.79q-74.19,0-148.37,0c-.65,0-.83-.13-.82-.81Q.21,75.23.19,1C.19.27.4.2,1.08.2H112.13c-.68,2.07-2.16,3.68-3.19,5.55s-2.32,3.71-3.46,5.58c-.92,1.53-1.69,3.17-2.71,4.63-1.21,1.75-2.16,3.64-3.32,5.42-1.54,2.35-2.83,4.85-4.28,7.26a1.7,1.7,0,0,0-.15,1.7c.77,1.5,1.59,3,2.35,4.48,1.34,2.66,2.69,5.33,4.07,8,1.5,2.87,2.92,5.78,4.44,8.64,1,1.86,1.9,3.76,2.92,5.61,1.55,2.8,3,5.67,4.39,8.53.32.62.63.9,1.28.5a12.81,12.81,0,0,1,1.43,2.75A3.68,3.68,0,0,0,117,67.64c1.22-2,2.45-4,3.67-5.92s2.39-3.88,3.6-5.82q1.41-2.22,2.86-4.42c1.06-1.63,2-3.31,3.1-4.94,1.18-1.81,2.29-3.68,3.47-5.5.94-1.44,1.78-2.95,2.75-4.39s1.61-2.9.42-4.94c-1.94-3.33-3.26-7-4.88-10.53s-3.15-6.76-4.74-10.13a15.19,15.19,0,0,1-1-1.89c-.6-2-1.83-3.71-2.48-5.68C123.45,2.34,122.64,1.39,122.34.21Zm-7.22,108.48a3.4,3.4,0,0,0-.88-1.13c-.78-.66-1.62-1.23-2.42-1.85-2.43-1.87-4.75-3.88-7.16-5.77-2.63-2.07-5.3-4.08-7.88-6.22-.86-.72-1.76-1.39-2.59-2.15-.29-.28-.75-.54-.77.19,0,2-.49,3.91-.48,5.9a44.59,44.59,0,0,1-.43,6.21c-.32,2.44-.25,4.92-.6,7.35-.26,1.72-.08,3.45-.36,5.16-.12.72-.39,1.59.23,2.21a23.28,23.28,0,0,0,2.07,1.64c-.1.43.21.61.46.87a23.94,23.94,0,0,0,3.47,2.54q3.69,2.63,7.35,5.27c3.05,2.2,6.08,4.4,9.12,6.62.19.14.46.36.63.31.34-.08.23-.48.23-.73,0-1.9.39-3.76.46-5.66.1-2.77.38-5.52.62-8.28.14-1.64.37-3.26.54-4.9s.35-3.56.51-5.34c0-.31.08-.72-.29-.84C116.16,109.84,115.78,109.09,115.12,108.69Zm-61.47,3.2c.66.49.81,1.31,1.2,2s.66.77,1.08.1l3.64-5.81c.91-1.46,1.78-2.94,2.74-4.37,1.12-1.66,2.08-3.43,3.24-5.08s1.94-3.34,3-4.94c1.94-2.93,3.77-5.93,5.61-8.93.87-1.4,1.74-2.8,2.68-4.15a1.21,1.21,0,0,0,0-1.54,23.86,23.86,0,0,1-1.53-3.33c-1.2-2.45-2.24-5-3.45-7.45-1.07-2.16-2.05-4.37-3.1-6.55-1.41-2.93-2.72-5.93-4.07-8.9a18.43,18.43,0,0,1-1-2.1c-.63-2-1.75-3.74-2.47-5.69-.44-1.18-1.12-2.28-1.58-3.46s-.44-1.29-1.36-.35c-.79-.9-.76-2.16-1.39-3.16-1.32,1-1.81,2.53-2.69,3.78-1.37,1.94-2.56,4-3.8,6.06s-2.35,3.82-3.5,5.76c-.87,1.47-1.8,2.91-2.7,4.37-1.1,1.76-2.29,3.48-3.22,5.32-.81,1.6-1.83,3.06-2.71,4.6-1.34,2.34-2.74,4.66-4.08,7a.68.68,0,0,0,0,.76c1.5,3.13,3.17,6.18,4.75,9.28s3.1,6.12,4.67,9.18c1.35,2.62,2.68,5.24,4,7.85.43.81,1,1.55,1.36,2.39,1,2.46,2.44,4.74,3.57,7.15C52.88,112.26,53.21,112.23,53.65,111.89Z" transform="translate(-0.19 -0.2)" style="fill:#d6c9b6"/><path d="M114.47,66.08c-.65.4-1,.12-1.28-.5-1.43-2.86-2.84-5.73-4.39-8.53-1-1.85-1.93-3.75-2.92-5.61-1.52-2.86-2.94-5.77-4.44-8.64-1.38-2.64-2.73-5.31-4.07-8-.76-1.51-1.58-3-2.35-4.48a1.7,1.7,0,0,1,.15-1.7c1.45-2.41,2.74-4.91,4.28-7.26,1.16-1.78,2.11-3.67,3.32-5.42,1-1.46,1.79-3.1,2.71-4.63,1.14-1.87,2.41-3.66,3.46-5.58s2.51-3.48,3.19-5.55h9.15a28.42,28.42,0,0,0,1.66,4.2c1.21,2.42,2.16,5,3.37,7.38s2.21,4.88,3.44,7.27c1.42,2.75,2.61,5.63,3.9,8.45.56,1.21,1.12,2.42,1.7,3.62a1,1,0,0,1,0,1.1c-.5.62-.67,1.4-1.12,2-1.78,2.46-3.25,5.12-4.88,7.67-2.29,3.56-4.56,7.12-6.77,10.73-.8,1.29-1.67,2.53-2.44,3.82-1.17,2-2.44,3.88-3.6,5.85A16.65,16.65,0,0,0,114.47,66.08Z" transform="translate(-0.19 -0.2)" style="fill:#619ded"/><path d="M114.47,66.08a16.65,16.65,0,0,1,2.09-3.76c1.16-2,2.43-3.88,3.6-5.85.77-1.29,1.64-2.53,2.44-3.82,2.21-3.61,4.48-7.17,6.77-10.73,1.63-2.55,3.1-5.21,4.88-7.67.45-.62.62-1.4,1.12-2a1,1,0,0,0,0-1.1c-.58-1.2-1.14-2.41-1.7-3.62-1.29-2.82-2.48-5.7-3.9-8.45-1.23-2.39-2.24-4.87-3.44-7.27s-2.16-5-3.37-7.38a28.42,28.42,0,0,1-1.66-4.2h1.06c.3,1.18,1.11,2.13,1.49,3.27.65,2,1.88,3.68,2.48,5.68a15.19,15.19,0,0,0,1,1.89c1.59,3.37,3.18,6.74,4.74,10.13s2.94,7.2,4.88,10.53c1.19,2,.58,3.46-.42,4.94s-1.81,3-2.75,4.39c-1.18,1.82-2.29,3.69-3.47,5.5-1.06,1.63-2,3.31-3.1,4.94q-1.45,2.21-2.86,4.42c-1.21,1.94-2.4,3.88-3.6,5.82s-2.45,3.94-3.67,5.92a3.68,3.68,0,0,1-1.11,1.19A12.81,12.81,0,0,0,114.47,66.08Z" transform="translate(-0.19 -0.2)" style="fill:#1e8ecd"/><path d="M53.65,111.89c-.44.34-.77.37-1-.23-1.13-2.41-2.52-4.69-3.57-7.15-.36-.84-.93-1.58-1.36-2.39-1.36-2.61-2.69-5.23-4-7.85Q41.28,89.68,39,85.09c-1.58-3.1-3.25-6.15-4.75-9.28a.68.68,0,0,1,0-.76c1.34-2.35,2.74-4.67,4.08-7,.88-1.54,1.9-3,2.71-4.6.93-1.84,2.12-3.56,3.22-5.32.9-1.46,1.83-2.9,2.7-4.37,1.15-1.94,2.34-3.84,3.5-5.76s2.43-4.12,3.8-6.06c.88-1.25,1.37-2.79,2.69-3.78.63,1,.6,2.26,1.39,3.16a36.08,36.08,0,0,0,1.59,3.79c1.31,2.88,2.57,5.79,3.94,8.64,1.88,3.92,3.61,7.9,5.52,11.8,1.31,2.68,2.51,5.42,3.76,8.13.51,1.12,1,2.24,1.54,3.35a1.13,1.13,0,0,1,0,1.2c-1.68,2.71-3.26,5.5-5,8.15s-3.21,5.14-4.86,7.68c-2,3-3.76,6.12-5.67,9.16-1.57,2.5-3.19,5-4.79,7.45A2.57,2.57,0,0,0,53.65,111.89Z" transform="translate(-0.19 -0.2)" style="fill:#395b7e"/><path d="M93.85,120.23a23.28,23.28,0,0,1-2.07-1.64c-.62-.62-.35-1.49-.23-2.21.28-1.71.1-3.44.36-5.16.35-2.43.28-4.91.6-7.35a44.59,44.59,0,0,0,.43-6.21c0-2,.45-3.92.48-5.9,0-.73.48-.47.77-.19.83.76,1.73,1.43,2.59,2.15,2.58,2.14,5.25,4.15,7.88,6.22,2.41,1.89,4.73,3.9,7.16,5.77.8.62,1.64,1.19,2.42,1.85a3.4,3.4,0,0,1,.88,1.13,1.9,1.9,0,0,0-.2.47c-.36,3.48-.92,7-1,10.43-.14,4.43-.75,8.8-1.1,13.2-.06.73-.19.87-.84.39-2.7-2-5.44-3.88-8.15-5.83-1.68-1.21-3.33-2.46-5-3.67S95.5,121.38,93.85,120.23Z" transform="translate(-0.19 -0.2)" style="fill:#619ded"/><path d="M53.65,111.89a2.57,2.57,0,0,1,.59-1.23c1.6-2.48,3.22-5,4.79-7.45,1.91-3,3.72-6.14,5.67-9.16,1.65-2.54,3.16-5.17,4.86-7.68s3.37-5.44,5-8.15a1.13,1.13,0,0,0,0-1.2c-.52-1.11-1-2.23-1.54-3.35-1.25-2.71-2.45-5.45-3.76-8.13-1.91-3.9-3.64-7.88-5.52-11.8C62.46,50.89,61.2,48,59.89,45.1a36.08,36.08,0,0,1-1.59-3.79c.92-.94.86-.91,1.36.35s1.14,2.28,1.58,3.46c.72,2,1.84,3.71,2.47,5.69a18.43,18.43,0,0,0,1,2.1c1.35,3,2.66,6,4.07,8.9,1,2.18,2,4.39,3.1,6.55,1.21,2.45,2.25,5,3.45,7.45a23.86,23.86,0,0,0,1.53,3.33,1.21,1.21,0,0,1,0,1.54C75.9,82,75,83.43,74.16,84.83c-1.84,3-3.67,6-5.61,8.93-1.06,1.6-1.9,3.36-3,4.94s-2.12,3.42-3.24,5.08c-1,1.43-1.83,2.91-2.74,4.37L55.93,114c-.42.67-.73.5-1.08-.1S54.31,112.38,53.65,111.89Z" transform="translate(-0.19 -0.2)" style="fill:#1e8ecb"/><path d="M93.85,120.23c1.65,1.15,3.31,2.28,4.94,3.45s3.33,2.46,5,3.67c2.71,2,5.45,3.86,8.15,5.83.65.48.78.34.84-.39.35-4.4,1-8.77,1.1-13.2.11-3.48.67-7,1-10.43a1.9,1.9,0,0,1,.2-.47c.66.4,1,1.15,1.83,1.4.37.12.32.53.29.84q-.24,2.67-.51,5.34c-.17,1.64-.4,3.26-.54,4.9-.24,2.76-.52,5.51-.62,8.28-.07,1.9-.51,3.76-.46,5.66,0,.25.11.65-.23.73-.17,0-.44-.17-.63-.31-3-2.22-6.07-4.42-9.12-6.62q-3.66-2.64-7.35-5.27a23.94,23.94,0,0,1-3.47-2.54C94.06,120.84,93.75,120.66,93.85,120.23Z" transform="translate(-0.19 -0.2)" style="fill:#1e8ecd"/></g></svg>