<svg xmlns="http://www.w3.org/2000/svg" viewBox="0 0 150.04 150.04"><title>motiv5</title><g id="motiv5"><path d="M150.21,75.32q0,37,0,74c0,.73-.14.87-.87.87q-74.15,0-148.3,0c-.72,0-.87-.14-.87-.87q0-74.15,0-148.3c0-.72.15-.87.87-.87q74.16,0,148.3,0c.73,0,.87.15.87.87Q150.2,38.2,150.21,75.32ZM124.07,33.66V27.54a12.86,12.86,0,0,1-2.52.85,3.52,3.52,0,0,0-3.3,3.81c-.07,2.48-.81,4.91-.85,7.44a15,15,0,0,1-2.79-2.4,53.44,53.44,0,0,1-4.09-3.87,1.93,1.93,0,0,0-2.7-.42,18.23,18.23,0,0,1-3.71,1.75c-.37.1-.32.28-.12.53,1,1.35,2.4,2.34,3.5,3.63s2.38,2.36,3.54,3.56c.9.93,1.79,1.87,2.72,2.76a11.86,11.86,0,0,1,3,3.75c.33.77.57,1.59.93,2.33,1,2.1,1.85,4.26,2.78,6.39A34.64,34.64,0,0,1,121.86,61c.45,1.5.63,1.54,2.07,1.1l.91-.28c.19.38.39.75.57,1.14A31.59,31.59,0,0,0,127,66.7c.22.35.37.56.82.34,1.77-.87,3.62-1.53,5.35-2.5.47-.27.56-.49.38-1-1.41-3.84-2.62-7.76-4.23-11.52a15.19,15.19,0,0,1-.92-6.94c.19-4.07.34-8.14.52-12.21,0-.64-.14-.72-.8-.56C126.7,32.66,125.45,33.34,124.07,33.66ZM104.41,44.89a15.52,15.52,0,0,1-1.81-3.09,1.72,1.72,0,0,0-1.43-1.33c-2.21-.45-4.43-.92-6.64-1.4a4.06,4.06,0,0,0-3.41.52c-1.39.95-2.87,1.76-4.31,2.62s-1.47,1.19-.8,2.68,1.37,3.08,2,4.65c1.39,3.48,2.84,7,4.31,10.4,1.64,3.89,3.23,7.8,4.88,11.68.55,1.32.53,1.31,1.52.35a9.65,9.65,0,0,1,1-.79c.72,1.76,1.45,3.52,2.15,5.29.26.64.56.85,1.15.35a35.13,35.13,0,0,1,3.36-2.73.71.71,0,0,0,.25-1c-1.35-3.12-2.09-6.45-3.3-9.62-.78-2.05-.7-2,1.08-3.38,2.12-1.59,4.2-3.22,6.27-4.87.35-.28,1-.57.62-1.26q-2.28-4.25-4.57-8.47a.9.9,0,0,0-.54-.3C105.6,45.06,105,45,104.41,44.89ZM85.56,52.12a1.9,1.9,0,0,0-.89-1.66C82.78,49,80.82,47.64,79.07,46a1,1,0,0,0-1.24-.11c-3.47,1.69-7,3.34-10.43,5-.54.26-1,.77-1.6.8-.83,0-.69.42-.48,1,1.32,3.37,2.61,6.75,3.93,10.11s2.58,6.68,3.88,10c1,2.55,2,5.11,3,7.66.33.86.63,1.06,1.39.44a6.7,6.7,0,0,1,1.43-.67A44.44,44.44,0,0,0,80.68,85c.24.63.54.8,1.19.56a30.52,30.52,0,0,0,2.71-1.44c.63-.3,1.53-.47,1.82-1s-.33-1.36-.57-2c-.16-.46-.16-1-.33-1.44a40.19,40.19,0,0,1-2.1-6.54c-.25-1.35-.25-1.65,1-2.26a40.92,40.92,0,0,0,4.9-3.32,1.65,1.65,0,0,0,.7-1.47q0-4.83,0-9.66a1.43,1.43,0,0,0-.64-1.24C88.13,54.1,86.71,53.28,85.56,52.12ZM54,90.34c0,1.13.05,2.27,0,3.4-.05.84.27,1.11,1.09,1.11,1.91,0,3.83,0,5.74.11.81,0,.88-.26.8-.9-.14-1.23-.25-2.46-.39-3.69a1.08,1.08,0,0,1,.58-1.12c2-1.29,4.2-2,6.18-3.29.26-.17.55-.37.87-.11,1.33,1.06,2.71,2.05,4,3.19.5.46.83.61,1.33.2a34,34,0,0,1,3.6-2.2c1.38-.86,1.36-.85.37-2.11-1.86-2.34-3.68-4.72-5.55-7.06-1.68-2.1-3.43-4.17-5.12-6.27-1.33-1.65-2.62-3.33-3.93-5-1.06-1.36-2.17-2.67-3.23-4-.51-.66-.84-1.8-2.07-1.63a32.89,32.89,0,0,1-3.45-4.09c-.41-.52-.73-.68-1.37-.41a19.52,19.52,0,0,1-4.63,1.48c-.8.12-1,.34-1,1.16.33,5.19.59,10.38.88,15.57.27,4.91.56,9.82.82,14.73,0,.57.18.8.79.8C51.57,90.19,52.8,90.28,54,90.34ZM24,73.66a18.1,18.1,0,0,1-1.64-4.22c-.17-.84-.5-1-1.19-.84-1.32.39-2.62.84-3.93,1.26-.3.1-.35.29-.25.58.47,1.36.78,2.78,1.24,4.13,1.18,3.43,2.08,7,3.26,10.38a19.55,19.55,0,0,1,.77,2.31c.62,3,1.93,5.81,2.65,8.79.42,1.78,1.14,3.48,1.64,5.25.15.51.36.39.67.31l2.35-.61A26.54,26.54,0,0,1,31,105.55c.05.37.07.91.77.7,1.85-.56,3.72-1.09,5.59-1.63.44-.13.65-.37.49-.86-.33-1-.45-2.14-.74-3.18-.88-3.09-1.76-6.17-2.54-9.29-.17-.69,0-1.05.66-1.24a12.75,12.75,0,0,0,3.44-1c.66,1.51,1.27,3,2,4.52.89,1.88,1,1.87,2.84.83a34.46,34.46,0,0,1,2.11,4.83c.17.65.65.57,1.1.38a30.08,30.08,0,0,0,4.44-2.47c.42-.26.26-.62.15-.93-1.45-3.91-2.57-7.92-3.89-11.86-1-2.84-1.83-5.71-2.81-8.54-.47-1.37-1-2.72-1.31-4.14a26.8,26.8,0,0,0-1.18-3.28c-.11-.3-.24-.67-.67-.37a9.12,9.12,0,0,1-2.21.68c-.57-1.6-1.17-3.18-1.68-4.79-.2-.6-.44-.56-.92-.37-1.74.69-3.48,1.35-5.24,2-.62.22-.76.53-.71,1.17C31,70.29,32.56,73.55,33.28,77c.15.69.1,1-.53,1.31A39.34,39.34,0,0,1,29,79.66a30.79,30.79,0,0,0-1.58-4.37C26.46,72.91,26.44,72.92,24,73.66Z" transform="translate(-0.19 -0.19)" style="fill:#d6c9b6"/><path d="M43.46,94.44c-1.88,1-2,1-2.84-.83-.71-1.48-1.32-3-2-4.52L36.36,84c-.16-.34-.29-.59-.78-.28a12,12,0,0,1-5.12,1.84c-.5,0-.83.26-.61.83.68,1.79.92,3.69,1.44,5.52.69,2.47,1.54,4.9,2,7.45.12.67-.08.84-.64.86a10.72,10.72,0,0,0-3.05.79l-2.35.61c-.31.08-.52.2-.67-.31-.5-1.77-1.22-3.47-1.64-5.25-.72-3-2-5.77-2.65-8.79A19.55,19.55,0,0,0,21.51,85c-1.18-3.43-2.08-7-3.26-10.38-.46-1.35-.77-2.77-1.24-4.13-.1-.29-.05-.48.25-.58,1.31-.42,2.61-.87,3.93-1.26.69-.2,1,0,1.19.84A18.1,18.1,0,0,0,24,73.66a21,21,0,0,0,2.12,5.41c.87,1.58,1.06,1.59,2.75.66l.08-.07a39.34,39.34,0,0,0,3.78-1.32c.63-.29.68-.62.53-1.31-.72-3.48-2.31-6.74-2.64-10.32-.05-.64.09-.95.71-1.17,1.76-.61,3.5-1.27,5.24-2,.48-.19.72-.23.92.37.51,1.61,1.11,3.19,1.68,4.79a4.55,4.55,0,0,0,.15.82c1.53,4.43,2.92,8.91,4.38,13.36,1,2.94,1.81,5.94,3,8.83.2.5-.06.67-.35,1A19,19,0,0,1,43.46,94.44Z" transform="translate(-0.19 -0.19)" style="fill:#202e39"/><path d="M54,90.34c-1.24-.06-2.47-.15-3.71-.14-.61,0-.75-.23-.79-.8-.26-4.91-.55-9.82-.82-14.73-.29-5.19-.55-10.38-.88-15.57-.05-.82.17-1,1-1.16a19.52,19.52,0,0,0,4.63-1.48c.64-.27,1-.11,1.37.41A32.89,32.89,0,0,0,58.26,61,1.36,1.36,0,0,0,58.88,62a7.27,7.27,0,0,1,1.32,1.51c1.79,2.25,3.54,4.54,5.33,6.79,1,1.29,2.13,2.51,3.15,3.79,1.84,2.31,3.63,4.66,5.49,6.95.36.44.33.58-.11.84q-2.27,1.35-4.5,2.74a.76.76,0,0,1-1-.05c-1.13-.91-2.37-1.69-3.41-2.69a1.76,1.76,0,0,0-2.51-.14,20.14,20.14,0,0,1-3.35,1.76A6.35,6.35,0,0,0,56.74,85c-.47.52.09,1.48.08,2.26A9.2,9.2,0,0,0,57,88.66c.19,1.77.19,1.76-1.53,1.67C55,90.31,54.5,90.33,54,90.34Zm4.3-20.58A3.08,3.08,0,0,0,58,68.55c-.65-1.27-1.61-2.39-1.91-3.85-.08-.41-.35-.6-.87-.48a1.91,1.91,0,0,0-1.62,2.15c.28,2.67.07,5.37.42,8,.06.45.07,1,.66.85a24.59,24.59,0,0,0,3.61-.64c.53-.19,1.05-.37,1.57-.57s.67-.53.36-1C59.58,71.93,59,70.84,58.34,69.76Z" transform="translate(-0.19 -0.19)" style="fill:#202e39"/><path d="M78.93,80.21a6.7,6.7,0,0,0-1.43.67c-.76.62-1.06.42-1.39-.44-1-2.55-2-5.11-3-7.66-1.3-3.33-2.57-6.67-3.88-10S66.64,56,65.32,52.66c-.21-.55-.35-.93.48-1,.62,0,1.06-.54,1.6-.8,3.48-1.66,7-3.31,10.43-5a1,1,0,0,1,1.24.11c1.75,1.64,3.71,3,5.6,4.46a1.9,1.9,0,0,1,.89,1.66c-.12,3,.23,6,0,9a2.11,2.11,0,0,1-.67,1.59,29.91,29.91,0,0,1-5.32,3.73c-.43.24-1.22.4-1,1.27.43,1.56.77,3.15,1.27,4.69.59,1.77,1.34,3.48,1.87,5.27.28.94-.08,1.25-.8,1.45A5.14,5.14,0,0,0,78.93,80.21Zm.86-21.44A3.7,3.7,0,0,0,80,56.18c-.5-1.72-1-2.38-2.81-2.39a13.6,13.6,0,0,0-3.45.92c-.83.21-.85.61-.42,1.3a36.57,36.57,0,0,1,1.82,3.45c.29.63.47,1.52,1,1.7s1-.62,1.42-1.11A4.17,4.17,0,0,0,79.79,58.77Z" transform="translate(-0.19 -0.19)" style="fill:#202e39"/><path d="M99.72,71.18a9.65,9.65,0,0,0-1,.79c-1,1-1,1-1.52-.35-1.65-3.88-3.24-7.79-4.88-11.68C90.85,56.49,89.4,53,88,49.54c-.63-1.57-1.31-3.11-2-4.65s-.56-1.86.8-2.68,2.92-1.67,4.31-2.62a4.06,4.06,0,0,1,3.41-.52c2.21.48,4.43,1,6.64,1.4a1.72,1.72,0,0,1,1.43,1.33,15.52,15.52,0,0,0,1.81,3.09,19.42,19.42,0,0,0,2.1,3.85c.43.74.49,1.31-.33,1.85s-1.43,1.12-2.14,1.69L99.38,56a1.25,1.25,0,0,0-.93,1.75c.71,2.87,2,5.55,2.68,8.43.23,1,1.06,2,.89,2.85s-1.43,1.43-2.25,2.08A.73.73,0,0,0,99.72,71.18Zm-2.55-26a11.89,11.89,0,0,0-4,1c-.5.19-.3.49-.17.76a22.31,22.31,0,0,1,1.55,4.13c.19.7.58.79,1.18.44.81-.49,1.67-.91,2.46-1.44a3.15,3.15,0,0,0,1.22-3.54A2.32,2.32,0,0,0,97.17,45.14Z" transform="translate(-0.19 -0.19)" style="fill:#202e39"/><path d="M124.84,61.85l-.91.28c-1.44.44-1.62.4-2.07-1.1a34.64,34.64,0,0,0-1.44-3.38c-.93-2.13-1.79-4.29-2.78-6.39-.36-.74-.6-1.56-.93-2.33a11.86,11.86,0,0,0-3-3.75c-.93-.89-1.82-1.83-2.72-2.76-1.16-1.2-2.46-2.29-3.54-3.56S105,36.58,104,35.23c-.2-.25-.25-.43.12-.53A18.23,18.23,0,0,0,107.82,33a1.93,1.93,0,0,1,2.7.42,53.44,53.44,0,0,0,4.09,3.87,15,15,0,0,0,2.79,2.4c0-2.53.78-5,.85-7.44a3.52,3.52,0,0,1,3.3-3.81,12.86,12.86,0,0,0,2.52-.85v6.12c-.25,3.67-.26,7.35-.24,11a1.82,1.82,0,0,0,.07.62c.76,2.16,1.64,4.27,2.39,6.43.86,2.49,1.77,5,2.69,7.44.12.34.31.65-.25.81A19.86,19.86,0,0,0,124.84,61.85Z" transform="translate(-0.19 -0.19)" style="fill:#202e39"/><path d="M78.93,80.21a5.14,5.14,0,0,1,2-1.08c.72-.2,1.08-.51.8-1.45-.53-1.79-1.28-3.5-1.87-5.27-.5-1.54-.84-3.13-1.27-4.69-.25-.87.54-1,1-1.27a29.91,29.91,0,0,0,5.32-3.73,2.11,2.11,0,0,0,.67-1.59c.22-3-.13-6,0-9,1.15,1.16,2.57,2,3.81,3A1.43,1.43,0,0,1,90,56.39q0,4.83,0,9.66a1.65,1.65,0,0,1-.7,1.47,40.92,40.92,0,0,1-4.9,3.32c-1.26.61-1.26.91-1,2.26a40.19,40.19,0,0,0,2.1,6.54c.17.46.17,1,.33,1.44.24.68.92,1.43.57,2s-1.19.67-1.82,1a30.52,30.52,0,0,1-2.71,1.44c-.65.24-1,.07-1.19-.56A44.44,44.44,0,0,1,78.93,80.21Z" transform="translate(-0.19 -0.19)" style="fill:#639dea"/><path d="M54,90.34c.46,0,.92,0,1.38,0,1.72.09,1.72.1,1.53-1.67a9.2,9.2,0,0,1-.13-1.37c0-.78-.55-1.74-.08-2.26a6.35,6.35,0,0,1,2.52-1.5,20.14,20.14,0,0,0,3.35-1.76,1.76,1.76,0,0,1,2.51.14c1,1,2.28,1.78,3.41,2.69a.76.76,0,0,0,1,.05q2.23-1.4,4.5-2.74c.44-.26.47-.4.11-.84-1.86-2.29-3.65-4.64-5.49-6.95-1-1.28-2.13-2.5-3.15-3.79-1.79-2.25-3.54-4.54-5.33-6.79A7.27,7.27,0,0,0,58.88,62,1.36,1.36,0,0,1,58.26,61c1.23-.17,1.56,1,2.07,1.63,1.06,1.35,2.17,2.66,3.23,4,1.31,1.66,2.6,3.34,3.93,5,1.69,2.1,3.44,4.17,5.12,6.27,1.87,2.34,3.69,4.72,5.55,7.06,1,1.26,1,1.25-.37,2.11a34,34,0,0,0-3.6,2.2c-.5.41-.83.26-1.33-.2-1.25-1.14-2.63-2.13-4-3.19-.32-.26-.61-.06-.87.11-2,1.25-4.22,2-6.18,3.29a1.08,1.08,0,0,0-.58,1.12c.14,1.23.25,2.46.39,3.69.08.64,0,.94-.8.9-1.91-.12-3.83-.12-5.74-.11-.82,0-1.14-.27-1.09-1.11C54.09,92.61,54,91.47,54,90.34Z" transform="translate(-0.19 -0.19)" style="fill:#639de9"/><path d="M99.72,71.18a.73.73,0,0,1,0-.09c.82-.65,2.07-1.15,2.25-2.08s-.66-1.87-.89-2.85c-.67-2.88-2-5.56-2.68-8.43A1.25,1.25,0,0,1,99.38,56c.19.27.42.15.65.06a9.07,9.07,0,0,0,3.21-1.92,2.13,2.13,0,0,0,.8-1.84c.71-.57,1.38-1.19,2.14-1.69s.76-1.11.33-1.85a19.42,19.42,0,0,1-2.1-3.85c.6.09,1.19.17,1.78.29a.9.9,0,0,1,.54.3Q109,49.71,111.3,54c.37.69-.27,1-.62,1.26-2.07,1.65-4.15,3.28-6.27,4.87-1.78,1.34-1.86,1.33-1.08,3.38,1.21,3.17,2,6.5,3.3,9.62a.71.71,0,0,1-.25,1A35.13,35.13,0,0,0,103,76.82c-.59.5-.89.29-1.15-.35C101.17,74.7,100.44,72.94,99.72,71.18Z" transform="translate(-0.19 -0.19)" style="fill:#639dea"/><path d="M124.84,61.85A19.86,19.86,0,0,1,128.73,60c.56-.16.37-.47.25-.81-.92-2.47-1.83-5-2.69-7.44-.75-2.16-1.63-4.27-2.39-6.43a1.82,1.82,0,0,1-.07-.62c0-3.68,0-7.36.24-11,1.38-.32,2.63-1,4-1.35.66-.16.83-.08.8.56-.18,4.07-.33,8.14-.52,12.21a15.19,15.19,0,0,0,.92,6.94c1.61,3.76,2.82,7.68,4.23,11.52.18.51.09.73-.38,1-1.73,1-3.58,1.63-5.35,2.5-.45.22-.6,0-.82-.34A31.59,31.59,0,0,1,125.41,63C125.23,62.6,125,62.23,124.84,61.85Z" transform="translate(-0.19 -0.19)" style="fill:#639dea"/><path d="M43.46,94.44a19,19,0,0,0,2.86-1.74c.29-.28.55-.45.35-1-1.14-2.89-2-5.89-3-8.83-1.46-4.45-2.85-8.93-4.38-13.36a4.55,4.55,0,0,1-.15-.82,9.12,9.12,0,0,0,2.21-.68c.43-.3.56.07.67.37a26.8,26.8,0,0,1,1.18,3.28c.34,1.42.84,2.77,1.31,4.14,1,2.83,1.85,5.7,2.81,8.54,1.32,3.94,2.44,8,3.89,11.86.11.31.27.67-.15.93a30.08,30.08,0,0,1-4.44,2.47c-.45.19-.93.27-1.1-.38A34.46,34.46,0,0,0,43.46,94.44Z" transform="translate(-0.19 -0.19)" style="fill:#639dea"/><path d="M29.59,101a10.72,10.72,0,0,1,3.05-.79c.56,0,.76-.19.64-.86-.45-2.55-1.3-5-2-7.45-.52-1.83-.76-3.73-1.44-5.52-.22-.57.11-.78.61-.83a12,12,0,0,0,5.12-1.84c.49-.31.62-.06.78.28l2.28,5.1a12.75,12.75,0,0,1-3.44,1c-.7.19-.83.55-.66,1.24.78,3.12,1.66,6.2,2.54,9.29.29,1,.41,2.14.74,3.18.16.49,0,.73-.49.86-1.87.54-3.74,1.07-5.59,1.63-.7.21-.72-.33-.77-.7A26.54,26.54,0,0,0,29.59,101Z" transform="translate(-0.19 -0.19)" style="fill:#639dea"/><path d="M29,79.66l-.08.07c-1.69.93-1.88.92-2.75-.66A21,21,0,0,1,24,73.66c2.42-.74,2.44-.75,3.37,1.63A30.79,30.79,0,0,1,29,79.66Z" transform="translate(-0.19 -0.19)" style="fill:#629ce8"/><path d="M58.3,74.62a24.59,24.59,0,0,1-3.61.64c-.59.11-.6-.4-.66-.85-.35-2.67-.14-5.37-.42-8a1.91,1.91,0,0,1,1.62-2.15c.52-.12.79.07.87.48.3,1.46,1.26,2.58,1.91,3.85a3.08,3.08,0,0,1,.33,1.21c-.11.25-.29.48-.22.79A21.28,21.28,0,0,1,58.3,74.62Z" transform="translate(-0.19 -0.19)" style="fill:#629ce9"/><path d="M58.3,74.62a21.28,21.28,0,0,0-.18-4.07c-.07-.31.11-.54.22-.79.62,1.08,1.24,2.17,1.89,3.24.31.52.19.85-.36,1S58.83,74.43,58.3,74.62Z" transform="translate(-0.19 -0.19)" style="fill:#d0c5b2"/><path d="M77.56,60.05c-.4.49-.93,1.25-1.42,1.11s-.76-1.07-1-1.7A36.57,36.57,0,0,0,73.27,56c-.43-.69-.41-1.09.42-1.3a13.6,13.6,0,0,1,3.45-.92c1.86,0,2.31.67,2.81,2.39a3.7,3.7,0,0,1-.16,2.59c-.62.21-1.25.42-1.87.65C77.64,59.52,77.25,59.59,77.56,60.05Z" transform="translate(-0.19 -0.19)" style="fill:#629ce8"/><path d="M77.56,60.05c-.31-.46.08-.53.36-.63.62-.23,1.25-.44,1.87-.65A4.17,4.17,0,0,1,77.56,60.05Z" transform="translate(-0.19 -0.19)" style="fill:#d0c5b2"/><path d="M97.17,45.14a2.32,2.32,0,0,1,2.23,1.37,3.15,3.15,0,0,1-1.22,3.54c-.79.53-1.65,1-2.46,1.44-.6.35-1,.26-1.18-.44A22.31,22.31,0,0,0,93,46.92c-.13-.27-.33-.57.17-.76A11.89,11.89,0,0,1,97.17,45.14Z" transform="translate(-0.19 -0.19)" style="fill:#619be8"/><path d="M104,52.28a2.13,2.13,0,0,1-.8,1.84A9.07,9.07,0,0,1,100,56c-.23.09-.46.21-.65-.06Z" transform="translate(-0.19 -0.19)" style="fill:#d0c5b2"/></g></svg>