<svg xmlns="http://www.w3.org/2000/svg" viewBox="0 0 150.04 150.04"><title>motiv10</title><g id="motiv10"><path d="M150.21,75.21q0,37.08,0,74.15c0,.73-.14.87-.87.87q-74.15,0-148.3,0c-.73,0-.87-.14-.87-.87q0-74.15,0-148.3c0-.73.14-.87.87-.87q74.16,0,148.3,0c.73,0,.87.14.87.87Q150.2,38.14,150.21,75.21ZM29.94,67.77l0,0c-1.66-2.67-3.34-5.33-5-8a1.31,1.31,0,0,0-2-.51c-.92-1.45-1.86-2.88-2.74-4.35-.24-.39-.47-.58-.92-.49-1.45.28-2.91.54-4.36.86a3.78,3.78,0,0,0-1.26.52c-1,.63-1.48,1.71-1.11,2.29.6.95,1.22,1.9,1.85,2.81,2,2.91,3.92,5.85,5.83,8.81,1,1.51,2,3,3,4.46.44.71,1.18,1.28,1.18,2.21,0,1.77.05,3.54-.05,5.31q-.43,7.41-1,14.81a1.39,1.39,0,0,0,1.29,1.69,27,27,0,0,0,3.6.18A11.6,11.6,0,0,0,28,101c-.1,1.42.26,1.81,1.72,1.82,1.84,0,3.69-.06,5.52,0,1.13,0,1.53-.52,1.67-1.47s.31-2.09.43-3.15c.65-5.72.84-11.47,1.06-17.22a4.2,4.2,0,0,1,1.15-2.76c1.07-1.13,1.94-2.42,3-3.59,1.83-2.09,3.48-4.35,5.36-6.39a38.24,38.24,0,0,1,2.88-3.35.84.84,0,0,0,0-1.44c-1.52-1.07-3-2.32-4.86-2.73.88-1.17.81-1.1-.2-2.11a16,16,0,0,0-3.87-2.34,1.3,1.3,0,0,0-1.62.27A22.38,22.38,0,0,0,38.05,59c-1,1.07-2,2.19-2.9,3.33-1.26,1.56-2.47,3.16-3.71,4.74a1.32,1.32,0,0,1-1.32.7A.17.17,0,0,1,29.94,67.77Zm94,21.9a2.81,2.81,0,0,1,.24-.59c.59-.87.24-1.27-.59-1.77-1.12-.68-2.35-1.1-3.43-1.83-1.25-.86-1.22-.76-2,.46-1.45,2.13-2.3,4.58-3.73,6.71-.66,1-.39,1.28.5,2.06a31.83,31.83,0,0,1,3.75,3.2c-.35.41-.14.63.23.92,1.46,1.17,2.89,2.37,4.31,3.57.93.78,1.08.71,1.66-.31,1.31-2.3,2.06-4.86,3.31-7.19a6.93,6.93,0,0,0,.75-1.74.86.86,0,0,0-.49-1.12Zm4.41-38.91c0-1.27.51-2.49.47-3.78,0-.57-.17-.83-.78-.83q-4.3,0-8.59,0c-.64,0-.86.27-.87.89,0,1-.15,2-.15,3.07,0,5.22-.11,10.45-.39,15.67-.19,3.38-.25,6.77-.41,10.16a.81.81,0,0,0,.71,1L122.38,78a10.11,10.11,0,0,0-.2,2.74c0,.48.26.7.68.81,1.73.45,3.54.62,5.25,1.19.4.13.63,0,.63-.44a37.55,37.55,0,0,1,.86-6c.75-4.2,1.18-8.44,1.88-12.64.67-4,1.21-8,1.76-12,.1-.76-.11-.92-.8-.9C131.06,50.8,129.68,50.77,128.3,50.76ZM91.16,66.29A1.22,1.22,0,0,0,91,65.9c-1.58-1.93-3-4-4.43-6-.46-.7-.93-.6-1.52-.35a35.81,35.81,0,0,1-2.72-3.75c-.52-.94-1.2-1-2.11-.56a23.33,23.33,0,0,1-4.18,2c-.41.11-.44.4-.21.74,1.16,1.76,2.22,3.59,3.49,5.27s2.22,3.25,3.38,4.85c1.36,1.91,2.62,3.9,4,5.83A5.22,5.22,0,0,1,88,76.52c.18,3.42.3,6.84.44,10.27s.29,7,.41,10.59c0,.57.2.8.8.82,1.23,0,2.46.15,3.7.23,0,1.14,0,2.27,0,3.4,0,.71.19,1,.95,1a49.61,49.61,0,0,1,7,.18c.94.13,1.2-.25,1.19-1.18,0-6.19,0-12.39,0-18.58a7.37,7.37,0,0,1,1-4.32c2-3.07,3.79-6.26,5.6-9.43,1.1-1.93,2.26-3.82,3.36-5.75.67-1.17,0-1.6-.7-2.09-1.21-.85-2.47-1.63-3.7-2.43.13-.69.42-1.44-.45-1.85a37.25,37.25,0,0,1-3.35-2.21c-2.39-1.43-2.39-1.45-3.94.9-1.87,2.82-3.77,5.61-5.58,8.46C93.76,65.86,92.8,66.68,91.16,66.29ZM76.49,98c.17,1.81,1.2,3.3,1.87,4.92a.53.53,0,0,0,.71.28,16.33,16.33,0,0,0,1.72-.53c1.26-.54,2.35-1.4,3.61-2s1.26-1.21,1-2.44c-.64-3-2-5.64-3-8.49C81.3,86.35,80,83,78.66,79.66c-1.61-4.09-3.34-8.13-5-12.21a40.6,40.6,0,0,1-1.55-3.93c-.23-.79-.22-1.91-1.38-2.21-.85-.22-1.69-.49-2.53-.74-.6-2.11-1.41-4-3.92-4.42a13.86,13.86,0,0,1-2.46-1,2.26,2.26,0,0,0-1.75,0c-1.38.55-2.75,1.12-4.13,1.66A1.91,1.91,0,0,0,54.83,58c-1.2,2.92-2.46,5.83-3.68,8.75-1.12,2.66-2.27,5.32-3.34,8-.94,2.34-1.9,4.7-2.82,7a137.59,137.59,0,0,0-4.63,13,1.37,1.37,0,0,0,.94,1.91,19.39,19.39,0,0,0,4,1.1,5.58,5.58,0,0,1-.36,1.76,1.19,1.19,0,0,0,.62,1.52,11.45,11.45,0,0,0,6.27,1.25,1.19,1.19,0,0,0,1.1-1,27.23,27.23,0,0,1,1-2.89c1.35-3.22,2.76-6.41,4.13-9.62a2.16,2.16,0,0,1,2.35-1.61c2.82.12,5.66,0,8.49,0a26.76,26.76,0,0,1,1.47,3.17c.83,2.1,1.62,4.2,2.57,6.24.33.7.19,1.9,1.23,2A4.9,4.9,0,0,0,76.49,98Z" transform="translate(-0.19 -0.19)" style="fill:#e7c1b4"/><path d="M45.26,97.86a19.39,19.39,0,0,1-4-1.1,1.37,1.37,0,0,1-.94-1.91A137.59,137.59,0,0,1,45,81.8c.92-2.35,1.88-4.71,2.82-7,1.07-2.68,2.22-5.34,3.34-8,1.22-2.92,2.48-5.83,3.68-8.75A1.91,1.91,0,0,1,56,56.85c1.38-.54,2.75-1.11,4.13-1.66a2.26,2.26,0,0,1,1.75,0,13.86,13.86,0,0,0,2.46,1c2.51.45,3.32,2.31,3.92,4.42,0,.1,0,.23,0,.31,1.55,3.53,2.79,7.19,4.24,10.76,1,2.55,2,5.14,3.1,7.66,1.49,3.33,2.69,6.79,3.86,10.25.39,1.17.91,2.29,1.31,3.46.63,1.79.47,2.22-1.11,3.21A35.73,35.73,0,0,0,76.49,98a4.9,4.9,0,0,1-2.39.76c-1-.11-.9-1.31-1.23-2-1-2-1.74-4.14-2.57-6.24a26.76,26.76,0,0,0-1.47-3.17c-.55-1.17-.84-2.43-1.4-3.61a1.48,1.48,0,0,0-1.62-.95c-3.5,0-7,0-10.5,0a1.38,1.38,0,0,0-1.62,1.09,65.2,65.2,0,0,1-2.63,6.08c-.88,2.17-1.85,4.32-2.59,6.55a2,2,0,0,1-2,1.45A11.43,11.43,0,0,1,45.26,97.86Zm15.9-21.45a22.19,22.19,0,0,0,4.31-.12c.47-.06.65-.22.63-.73a13.9,13.9,0,0,0-1.33-4.82c-.1-1.27-.73-2.4-.9-3.67-.25-1.78-.35-1.77-2.11-1.37a6.1,6.1,0,0,1-.93.18c-1.85.12-3.15.79-3.1,2.93a1.22,1.22,0,0,1-.14.39c-.9,2.18-1.69,4.39-2.42,6.63-.21.62,0,.64.48.63C57.48,76.43,59.32,76.42,61.16,76.41Z" transform="translate(-0.19 -0.19)" style="fill:#d3b12d"/><path d="M93.3,98.43c-1.24-.08-2.47-.19-3.7-.23-.6,0-.78-.25-.8-.82-.12-3.54-.27-7.06-.41-10.59s-.26-6.85-.44-10.27a5.22,5.22,0,0,0-1.27-2.6c-1.35-1.93-2.61-3.92-4-5.83-1.16-1.6-2.18-3.28-3.38-4.85S77,59.73,75.84,58c-.23-.34-.2-.63.21-.74a23.33,23.33,0,0,0,4.18-2c.91-.45,1.59-.38,2.11.56a35.81,35.81,0,0,0,2.72,3.75,2.65,2.65,0,0,0,.3.55c1.4,1.91,2.84,3.79,4.22,5.72.44.63,1,.55,1.58.5,1.64.39,2.6-.43,3.43-1.74,1.81-2.85,3.71-5.64,5.58-8.46,1.55-2.35,1.55-2.33,3.94-.9a37.25,37.25,0,0,0,3.35,2.21c.87.41.58,1.16.45,1.85-.3.11-.38.4-.52.64-1.39,2.35-2.76,4.71-4.16,7-1.64,2.73-3.23,5.5-4.91,8.2a4.11,4.11,0,0,0-.6,2.28c0,6.68,0,13.37,0,20,0,1-.29,1.21-1.19,1.12C95.49,98.49,94.39,98.48,93.3,98.43Z" transform="translate(-0.19 -0.19)" style="fill:#d2b02d"/><path d="M28.26,98.38a27,27,0,0,1-3.6-.18,1.39,1.39,0,0,1-1.29-1.69q.57-7.4,1-14.81c.1-1.77.06-3.54.05-5.31,0-.93-.74-1.5-1.18-2.21-1-1.51-2-3-3-4.46-1.91-3-3.83-5.9-5.83-8.81-.63-.91-1.25-1.86-1.85-2.81-.37-.58.13-1.66,1.11-2.29a3.78,3.78,0,0,1,1.26-.52c1.45-.32,2.91-.58,4.36-.86.45-.09.68.1.92.49.88,1.47,1.82,2.9,2.74,4.35,1.52,2.41,3.08,4.8,4.53,7.25A2.17,2.17,0,0,0,30,67.79l0,0,.09,0,.09,0a1.32,1.32,0,0,0,1.32-.7c1.24-1.58,2.45-3.18,3.71-4.74.93-1.14,1.89-2.26,2.9-3.33a22.38,22.38,0,0,1,2.15-2.43,1.3,1.3,0,0,1,1.62-.27,16,16,0,0,1,3.87,2.34c1,1,1.08.94.2,2.11-2.2,2.56-4.43,5.11-6.61,7.7-1.4,1.66-2.73,3.38-4.11,5.06A5.51,5.51,0,0,0,33.76,77c-.1,5-.32,10.11-.86,15.13-.19,1.71,0,3.48-.68,5.12-.24.57-.5.94-1.22.92C30.09,98.19,29.17,98.31,28.26,98.38Z" transform="translate(-0.19 -0.19)" style="fill:#d2b12d"/><path d="M28.26,98.38c.91-.07,1.83-.19,2.74-.17.72,0,1-.35,1.22-.92.69-1.64.49-3.41.68-5.12.54-5,.76-10.08.86-15.13a5.51,5.51,0,0,1,1.41-3.52c1.38-1.68,2.71-3.4,4.11-5.06,2.18-2.59,4.41-5.14,6.61-7.7,1.9.41,3.34,1.66,4.86,2.73a.84.84,0,0,1,0,1.44,38.24,38.24,0,0,0-2.88,3.35c-1.88,2-3.53,4.3-5.36,6.39-1,1.17-1.88,2.46-3,3.59A4.2,4.2,0,0,0,38.43,81c-.22,5.75-.41,11.5-1.06,17.22-.12,1.06-.27,2.1-.43,3.15s-.54,1.52-1.67,1.47c-1.83-.09-3.68,0-5.52,0-1.46,0-1.82-.4-1.72-1.82A11.6,11.6,0,0,1,28.26,98.38Z" transform="translate(-0.19 -0.19)" style="fill:#f8f6f6"/><path d="M122.38,78l-4.09-1.09a.81.81,0,0,1-.71-1c.16-3.39.22-6.78.41-10.16.28-5.22.37-10.45.39-15.67,0-1,.13-2,.15-3.07,0-.62.23-.9.87-.89q4.29,0,8.59,0c.61,0,.76.26.78.83,0,1.29-.44,2.51-.47,3.78-.18.16-.15.38-.18.59-.47,3.6-1.21,7.16-1.59,10.78-.5,4.69-1.72,9.29-2.08,14a4.18,4.18,0,0,1-.35,1.75C123.68,78.62,123,77.71,122.38,78Z" transform="translate(-0.19 -0.19)" style="fill:#d3b12d"/><path d="M93.3,98.43c1.09,0,2.19.06,3.27.16.9.09,1.2-.14,1.19-1.12-.05-6.68,0-13.37,0-20a4.11,4.11,0,0,1,.6-2.28c1.68-2.7,3.27-5.47,4.91-8.2,1.4-2.34,2.77-4.7,4.16-7,.14-.24.22-.53.52-.64,1.23.8,2.49,1.58,3.7,2.43.72.49,1.37.92.7,2.09-1.1,1.93-2.26,3.82-3.36,5.75-1.81,3.17-3.62,6.36-5.6,9.43a7.37,7.37,0,0,0-1,4.32c0,6.19,0,12.39,0,18.58,0,.93-.25,1.31-1.19,1.18a49.61,49.61,0,0,0-7-.18c-.76,0-1-.31-.95-1C93.31,100.7,93.29,99.57,93.3,98.43Z" transform="translate(-0.19 -0.19)" style="fill:#f8f5f6"/><path d="M122.38,78c.58-.29,1.3.62,1.72-.1a4.18,4.18,0,0,0,.35-1.75c.36-4.73,1.58-9.33,2.08-14,.38-3.62,1.12-7.18,1.59-10.78,0-.21,0-.43.18-.59,1.38,0,2.76,0,4.14,0,.69,0,.9.14.8.9-.55,4-1.09,8-1.76,12-.7,4.2-1.13,8.44-1.88,12.64a37.55,37.55,0,0,0-.86,6c0,.43-.23.57-.63.44-1.71-.57-3.52-.74-5.25-1.19-.42-.11-.7-.33-.68-.81A10.11,10.11,0,0,1,122.38,78Z" transform="translate(-0.19 -0.19)" style="fill:#f8f6f6"/><path d="M45.26,97.86a11.43,11.43,0,0,0,1.17,0,2,2,0,0,0,2-1.45c.74-2.23,1.71-4.38,2.59-6.55a65.2,65.2,0,0,0,2.63-6.08,1.38,1.38,0,0,1,1.62-1.09c3.49.08,7,.06,10.5,0a1.48,1.48,0,0,1,1.62.95c.56,1.18.85,2.44,1.4,3.61-2.83,0-5.67.1-8.49,0A2.16,2.16,0,0,0,58,88.91c-1.37,3.21-2.78,6.4-4.13,9.62a27.23,27.23,0,0,0-1,2.89,1.19,1.19,0,0,1-1.1,1,11.45,11.45,0,0,1-6.27-1.25,1.19,1.19,0,0,1-.62-1.52A5.58,5.58,0,0,0,45.26,97.86Z" transform="translate(-0.19 -0.19)" style="fill:#f8f6f6"/><path d="M76.49,98a35.73,35.73,0,0,1,3.13-1.76c1.58-1,1.74-1.42,1.11-3.21-.4-1.17-.92-2.29-1.31-3.46-1.17-3.46-2.37-6.92-3.86-10.25-1.13-2.52-2.07-5.11-3.1-7.66-1.45-3.57-2.69-7.23-4.24-10.76,0-.08,0-.21,0-.31.84.25,1.68.52,2.53.74,1.16.3,1.15,1.42,1.38,2.21a40.6,40.6,0,0,0,1.55,3.93c1.63,4.08,3.36,8.12,5,12.21C80,83,81.3,86.35,82.43,89.76c.94,2.85,2.32,5.54,3,8.49.27,1.23.13,1.94-1,2.44s-2.35,1.42-3.61,2a16.33,16.33,0,0,1-1.72.53.53.53,0,0,1-.71-.28C77.69,101.28,76.66,99.79,76.49,98Z" transform="translate(-0.19 -0.19)" style="fill:#f8f6f5"/><path d="M118.58,97.91a31.83,31.83,0,0,0-3.75-3.2c-.89-.78-1.16-1.08-.5-2.06,1.43-2.13,2.28-4.58,3.73-6.71.83-1.22.8-1.32,2-.46,1.08.73,2.31,1.15,3.43,1.83.83.5,1.18.9.59,1.77a2.81,2.81,0,0,0-.24.59c-1.21,2-1.82,4.34-3,6.39a4.58,4.58,0,0,0-.44,1C120,98.81,120,98.83,118.58,97.91Z" transform="translate(-0.19 -0.19)" style="fill:#d3b12d"/><path d="M118.58,97.91c1.39.92,1.44.9,1.89-.8a4.58,4.58,0,0,1,.44-1c1.16-2,1.77-4.36,3-6.39L128.35,92a.86.86,0,0,1,.49,1.12,6.93,6.93,0,0,1-.75,1.74c-1.25,2.33-2,4.89-3.31,7.19-.58,1-.73,1.09-1.66.31-1.42-1.2-2.85-2.4-4.31-3.57C118.44,98.54,118.23,98.32,118.58,97.91Z" transform="translate(-0.19 -0.19)" style="fill:#f8f6f5"/><path d="M30,67.79a2.17,2.17,0,0,1-2.47-1.27c-1.45-2.45-3-4.84-4.53-7.25a1.31,1.31,0,0,1,2,.51C26.62,62.46,28.3,65.12,30,67.79Z" transform="translate(-0.19 -0.19)" style="fill:#f7f5f2"/><path d="M91.16,66.29c-.6,0-1.14.13-1.58-.5-1.38-1.93-2.82-3.81-4.22-5.72a2.65,2.65,0,0,1-.3-.55c.59-.25,1.06-.35,1.52.35C88,61.94,89.43,64,91,65.9A1.22,1.22,0,0,1,91.16,66.29Z" transform="translate(-0.19 -0.19)" style="fill:#f7f4f1"/><path d="M30.12,67.78l-.09,0-.09,0A.17.17,0,0,0,30.12,67.78Z" transform="translate(-0.19 -0.19)" style="fill:#f7f5f2"/><path d="M61.16,76.41c-1.84,0-3.68,0-5.51,0-.5,0-.69,0-.48-.63.73-2.24,1.52-4.45,2.42-6.63a1.22,1.22,0,0,0,.14-.39c0-2.14,1.25-2.81,3.1-2.93a6.1,6.1,0,0,0,.93-.18c1.76-.4,1.86-.41,2.11,1.37.17,1.27.8,2.4.9,3.67-1.75,0-1.74.07-2.33,1.67C61.94,73.72,61.78,75.14,61.16,76.41Z" transform="translate(-0.19 -0.19)" style="fill:#f8f6f5"/><path d="M61.16,76.41c.62-1.27.78-2.69,1.28-4,.59-1.6.58-1.64,2.33-1.67a13.9,13.9,0,0,1,1.33,4.82c0,.51-.16.67-.63.73A22.19,22.19,0,0,1,61.16,76.41Z" transform="translate(-0.19 -0.19)" style="fill:#e7c3b3"/></g></svg>