<svg xmlns="http://www.w3.org/2000/svg" viewBox="0 0 150.04 150.04"><title>motiv1</title><path d="M150.21,99.79q0,24.78,0,49.55c0,.69-.08.9-.85.89q-74.17,0-148.35,0c-.8,0-.83-.25-.83-.91q0-44.78,0-89.54c1.22-.64,2.38-1.37,3.6-2a70.11,70.11,0,0,0,6.24-3.3,9.07,9.07,0,0,0,.53.89c.59.79.68,1.89,1.55,2.5v0a8.24,8.24,0,0,0,2.14,4.27h0a3.39,3.39,0,0,0,.12,1c.86,1.79,1.77,3.55,2.66,5.33a47.17,47.17,0,0,1-.79,4.9c-.84,4.72-1.93,9.4-2.81,14.11-.5,2.68-1.13,5.32-1.53,8-.31,2.09-.87,4.15-1.31,6.22-.2.93-.43,1.86-.58,2.8-.11.71,0,1.11.91.67,1.06-.54,2.14-1.08,3.18-1.64,1.72-.94,3.51-1.76,5.19-2.77a12.06,12.06,0,0,1,2.06-1.11,33.08,33.08,0,0,0,5-2.53c2.24-1.27,4.56-2.38,6.8-3.62,2.58-1.43,5.25-2.72,7.88-4.09a6.46,6.46,0,0,1,2.44-1,10.8,10.8,0,0,1,1.79,1.64,28.3,28.3,0,0,0,2.78,3c1.25,1.33,2.52,2.64,3.72,4a1.09,1.09,0,0,0,.74.36A26.8,26.8,0,0,0,54,101.32q2.08,5.27,4.3,10.46c1.73,4,3.26,8.12,5,12.11a22.21,22.21,0,0,1,.91,2.26c.69,2.14,1.92,4.06,2.51,6.48a13.29,13.29,0,0,0,1.54-2.43,44.62,44.62,0,0,1,2.72-5.11c1.66-3.26,3.67-6.35,5.4-9.58.74-1.4,1.66-2.71,2.3-4.15.79-1.77,1.85-3.4,2.76-5.09a67.08,67.08,0,0,1,3.33-5.9,3.36,3.36,0,0,0,.28-.79l8.29-2c.66-.07,1.34-.1,2-.23,3-.62,5.95-1.56,9-2,1.89-.25,3.68-1,5.6-1.16a49.54,49.54,0,0,0,4.16,3.35c3.2,2.52,6.32,5.14,9.49,7.69,2.28,1.83,4.63,3.59,6.91,5.42s4.46,3.77,6.76,5.55a5.72,5.72,0,0,0,2,1.3v-1.36l0-26c1.56,2.18,2.52,4.69,3.84,7,1.14,2,2.11,4.13,3.19,6.19.35.66.78,1.28,1.22,2A47.05,47.05,0,0,0,150.21,99.79Z" transform="translate(-0.2 -0.19)" style="fill:#e7c1b4"/><path d="M.21,3V.21q74.52,0,149,0c.79,0,1,.18,1,1q0,34.95,0,69.89l-15.16.62c-2.38,0-4.79.28-7.08-.73a4.78,4.78,0,0,0-2.66-.53h0a24.15,24.15,0,0,0-6.18-2.11l-.65,0h0c-.2-.42-.64-.41-1-.52-2.89-.94-5.79-1.86-8.68-2.79-.89-.28-1.69-1-2.72-.67l-.32-.18c-.24-.36-.67-.39-1-.52l-8.64-3.14A3.4,3.4,0,0,0,94,60l-.33-.15A16.79,16.79,0,0,0,90,58.33c-.5-.19-1-.64-1.59-.36l-.32,0-.23-.09-.18-.06a27.5,27.5,0,0,0-4.69-2,1.32,1.32,0,0,0-.92,0h0c-1.75-.94-3.69-1.55-5.26-2.84h0c0-.5-.41-.72-.72-1-.5-.43-1-.81-1.54-1.25a32.68,32.68,0,0,0-3.92-3.31h0C70,46.78,69.5,46,68.5,45.74h0c.09-.4-.24-.47-.48-.63a15.34,15.34,0,0,0-2.27-2c-.5-.35-.77-1-1.52-1h0c.12-.85-.69-.87-1.12-1.19-.92-.69-1.71-1.59-2.93-1.79-1.32-.75-2.37-2-4-2.19-.16-.39-.53-.54-.85-.76-1.4-1-3-1.63-4.45-2.57-1.25-.83-2.67-1.41-3.9-2.3a2.09,2.09,0,0,0-1.47-.5c-.14-.52-.64-.63-1-.85-2.23-1.26-4.44-2.55-6.66-3.82-3.51-2-6.94-4.16-10.37-6.29-2.68-1.67-5.32-3.41-8-5.09-2.47-1.55-5-3-7.41-4.66a1.61,1.61,0,0,0-.61-.13h0c-1.11-.76-2-1.85-3.42-2.13h0a3,3,0,0,0-.42-.45C5.75,6.2,3.85,5,1.9,3.78A3.59,3.59,0,0,0,.21,3Z" transform="translate(-0.2 -0.19)" style="fill:#e7c1b4"/><path d="M.21,46.6V3.4A5.81,5.81,0,0,1,1.44,4c1.67,1.36,3.71,2.15,5.38,3.5a1.58,1.58,0,0,0,1.27.4h0A5.41,5.41,0,0,0,11.5,10h0c1.53,1.84,3.84,2.57,5.7,3.94,1.6,1.19,3.48,2,5.1,3.16s3.27,2.07,4.9,3.12c2.15,1.4,4.41,2.65,6.49,4.16-.09,1.8-.06,3.62-.31,5.4-.52,3.79-.41,7.61-.75,11.41-.27,3-.57,6-.75,9.08-.22,3.62-.69,7.24-.8,10.87,0,.23-.2.54.08.68s.58-.06.76-.25c1.09-1.12,2.65-1.6,3.75-2.72a8.67,8.67,0,0,1,1.31-.9c1.65-1.12,3.31-2.23,4.95-3.37,1.32-.93,2.63-1.92,4-2.72,1.55-.92,2.92-2.09,4.46-3,2.41-1.47,4.68-3.16,7-4.76l4.76-3.24,2.12,1.3h0a13.65,13.65,0,0,0,3.62,3.2c.18.19.34.42.65.43h0a2.66,2.66,0,0,0,2.15,1.71h0a.81.81,0,0,0,.37.81c1.25,1.12,2.53,2.22,3.79,3.33.6.52,1.13,1.26,2,1.4h0c-.09.47.21.68.56.88a3.55,3.55,0,0,1,1.35,1.26c1.17,12.39,2.67,24.74,4,37.2.51-.41.89-.78,1.27-1.12,1.12-1,2.14-2.12,3.2-3.2S89,86,90,85.16c1.24-1.08,2.33-2.3,3.49-3.45,1-1,2-2,3-3s2.16-2.08,3.24-3.14,2.12-2,3.08-3.11,2.19-2.15,3.26-3.25a22.85,22.85,0,0,1,3.47-3.34,43.73,43.73,0,0,1,6.82,2,4.78,4.78,0,0,0,2.17.39h0c.15.25.4.24.63.26a18.23,18.23,0,0,0,1.86.71c1.45.39,2.77,1.23,4.34,1.17h0c1.56.75,3.24,1.17,4.85,1.77.76,1,1,2.23,1.68,3.27,1.19,1.91,1.91,4.08,3.27,5.9-.74.72-1.88.81-2.58,1.61l-.15,0c-1.23-.09-2,.9-3,1.27-.76.36-1.59.62-2.31,1-3.19,1.66-6.47,3.11-9.7,4.67a21,21,0,0,1-2.45,1.26,17.66,17.66,0,0,0-4.11,2.14l-.14.07a1.19,1.19,0,0,0-.42,0c-4,1.21-8.1,1.9-12.15,2.8a24.47,24.47,0,0,0-4.68,1.24,6.69,6.69,0,0,0-2.31.2c-2.71.6-5.35,1.6-8.23,1.27-2.07-.25-4.17-.3-6.25-.44-3.71-.25-7.41-.51-11.12-.75-3.41-.22-6.83-.4-10.26-.33l-1.18,0c-.67-.39-1.64,0-2.14-.9a14.19,14.19,0,0,0-2.51-2.79c-2-2-3.84-4.18-5.92-6.1-.35-.32-.63-.68-1.16-.63h0a23.81,23.81,0,0,0-2.78-2.23c-3.31-2.39-6.51-4.92-9.77-7.38-1.46-1.1-3-2.08-4.44-3.23-1.94-1.57-4-3-6-4.51a8,8,0,0,1-3.17-3.94,12.23,12.23,0,0,0-1.95-3.62h0a11.31,11.31,0,0,0-2.14-4.27v0A6.13,6.13,0,0,0,10.2,54a56.42,56.42,0,0,0-5.38-4.18,1.28,1.28,0,0,0-1-.28h0a.6.6,0,0,0-.29-.63A33.86,33.86,0,0,0,.21,46.6Z" transform="translate(-0.2 -0.19)" style="fill:#e7c1b4"/><path d="M150.21,99.79a47.05,47.05,0,0,1-2.57,5.53c-.44-.71-.87-1.33-1.22-2-1.08-2.06-2-4.17-3.19-6.19-1.32-2.31-2.28-4.82-3.84-7,0-3.38,0-6.76,0-10.14,2.48-1.13,5.2-1.52,7.73-2.51a9.27,9.27,0,0,1,3.14-.89Z" transform="translate(-0.2 -0.19)" style="fill:#d64a1f"/><path d="M135.11,81.36c-1.36-1.82-2.08-4-3.27-5.9a35.81,35.81,0,0,0-1.68-3.26c.43,0,.85-.07,1.27-.06,6.26,0,12.52.31,18.78.2v3.83c-1,.24-1.91.45-2.86.71-2.08.57-4,1.5-6.16,2a9.8,9.8,0,0,0-4.28,2h0A3.48,3.48,0,0,0,135.11,81.36Z" transform="translate(-0.2 -0.19)" style="fill:#d64a20"/><path d="M10.05,54.49a70.11,70.11,0,0,1-6.24,3.3c-1.22.63-2.38,1.36-3.6,2V47.23a4.32,4.32,0,0,1,1.66,1,4.55,4.55,0,0,0,2,1.33h0a13.94,13.94,0,0,0,2.69,2.16C7.77,52.56,8.86,53.59,10.05,54.49Z" transform="translate(-0.2 -0.19)" style="fill:#609ceb"/><path d="M150.21,72.34c-6.26.11-12.52-.18-18.78-.2-.42,0-.84,0-1.27.06-1.61-.61-3.29-1-4.85-1.78A4.78,4.78,0,0,1,128,71c2.29,1,4.7.71,7.08.73,1-.08,2,.15,3.06.17,4,.07,8.07.05,12.1.06Z" transform="translate(-0.2 -0.19)" style="fill:#818173"/><path d="M150.21,71.91c-4,0-8.07,0-12.1-.06-1,0-2-.25-3.06-.17l15.16-.62Z" transform="translate(-0.2 -0.19)" style="fill:#d05730"/><path d="M136.91,80.84a9.8,9.8,0,0,1,4.28-2c2.13-.46,4.08-1.39,6.16-2,1-.26,1.91-.47,2.86-.71v.43a9.27,9.27,0,0,0-3.14.89c-2.53,1-5.25,1.38-7.73,2.51C138.54,80.3,137.86,81,136.91,80.84Z" transform="translate(-0.2 -0.19)" style="fill:#818173"/><path d="M8.09,7.88a1.58,1.58,0,0,1-1.27-.4C5.15,6.13,3.11,5.34,1.44,4A5.81,5.81,0,0,0,.21,3.4V3a3.59,3.59,0,0,1,1.69.8C3.85,5,5.75,6.2,7.67,7.43A3,3,0,0,1,8.09,7.88Z" transform="translate(-0.2 -0.19)" style="fill:#838a7d"/><path d="M3.84,49.57a4.55,4.55,0,0,1-2-1.33,4.32,4.32,0,0,0-1.66-1V46.6a33.86,33.86,0,0,1,3.34,2.34A.6.6,0,0,1,3.84,49.57Z" transform="translate(-0.2 -0.19)" style="fill:#838a7d"/><path d="M136.91,80.84c1,.11,1.63-.54,2.43-.84,0,3.38,0,6.76,0,10.14l0,26v1.36a5.72,5.72,0,0,1-2-1.3c-2.3-1.78-4.49-3.72-6.76-5.55s-4.63-3.59-6.91-5.42c-3.17-2.55-6.29-5.17-9.49-7.69A49.54,49.54,0,0,1,110,94.23c.22-.26.44-.53.65-.8l.14-.07a1.53,1.53,0,0,0,1-.14c1.52-.81,3-1.58,4.62-2.29,2.82-1.28,5.59-2.67,8.38-4l4.52-2.24a9.3,9.3,0,0,0,3-1.64l.15,0c1.7-.21,3-1.27,4.38-2.12Z" transform="translate(-0.2 -0.19)" style="fill:#437631"/><path d="M54.06,97.44l1.18,0a1,1,0,0,0,.68.24c4.3.28,8.61.55,12.91.84l16.29,1.08a3.36,3.36,0,0,1-.28.79,67.08,67.08,0,0,0-3.33,5.9c-.91,1.69-2,3.32-2.76,5.09-.64,1.44-1.56,2.75-2.3,4.15-1.73,3.23-3.74,6.32-5.4,9.58a44.62,44.62,0,0,0-2.72,5.11,13.29,13.29,0,0,1-1.54,2.43c-.59-2.42-1.82-4.34-2.51-6.48a22.21,22.21,0,0,0-.91-2.26c-1.79-4-3.32-8.09-5-12.11q-2.22-5.19-4.3-10.46a26.8,26.8,0,0,1-1.47-3.83Z" transform="translate(-0.2 -0.19)" style="fill:#fbaa36"/><path d="M43.52,88.48a6.46,6.46,0,0,0-2.44,1c-2.63,1.37-5.3,2.66-7.88,4.09-2.24,1.24-4.56,2.35-6.8,3.62a33.08,33.08,0,0,1-5,2.53,12.06,12.06,0,0,0-2.06,1.11c-1.68,1-3.47,1.83-5.19,2.77-1,.56-2.12,1.1-3.18,1.64-.87.44-1,0-.91-.67.15-.94.38-1.87.58-2.8.44-2.07,1-4.13,1.31-6.22.4-2.7,1-5.34,1.53-8,.88-4.71,2-9.39,2.81-14.11a47.17,47.17,0,0,0,.79-4.9c1.4,1,2.77,2.15,4.2,3.15,2.51,1.75,5,3.58,7.37,5.44s4.94,3.61,7.32,5.54c1.76,1.44,3.71,2.67,5.45,4.16a1.09,1.09,0,0,0,1,.26h0C42.44,87.74,43.4,87.77,43.52,88.48Z" transform="translate(-0.2 -0.19)" style="fill:#e2dbcb"/><path d="M85.12,99.58,68.83,98.5c-4.3-.29-8.61-.56-12.91-.84a1,1,0,0,1-.68-.24c3.43-.07,6.85.11,10.26.33,3.71.24,7.41.5,11.12.75,2.08.14,4.18.19,6.25.44,2.88.33,5.52-.67,8.23-1.27a6.69,6.69,0,0,1,2.31-.2v.12Z" transform="translate(-0.2 -0.19)" style="fill:#858978"/><path d="M42.35,87a1.09,1.09,0,0,1-1-.26c-1.74-1.49-3.69-2.72-5.45-4.16-2.38-1.93-4.9-3.67-7.32-5.54s-4.86-3.69-7.37-5.44c-1.43-1-2.8-2.1-4.2-3.15-.89-1.78-1.8-3.54-2.66-5.33a3.39,3.39,0,0,1-.12-1,12.23,12.23,0,0,1,1.95,3.62,8,8,0,0,0,3.17,3.94c2,1.51,4.05,2.94,6,4.51,1.42,1.15,3,2.13,4.44,3.23,3.26,2.46,6.46,5,9.77,7.38A23.81,23.81,0,0,1,42.35,87Z" transform="translate(-0.2 -0.19)" style="fill:#838a7d"/><path d="M93.41,97.59v-.12a24.47,24.47,0,0,1,4.68-1.24c4-.9,8.16-1.59,12.15-2.8a1.19,1.19,0,0,1,.42,0c-.21.27-.43.54-.65.8-1.92.12-3.71.91-5.6,1.16-3.06.41-6,1.35-9,2C94.75,97.49,94.07,97.52,93.41,97.59Z" transform="translate(-0.2 -0.19)" style="fill:#80887a"/><path d="M43.52,88.48c-.12-.71-1.08-.74-1.19-1.46.53,0,.81.31,1.16.63,2.08,1.92,3.93,4.08,5.92,6.1a14.19,14.19,0,0,1,2.51,2.79c.5.87,1.47.51,2.14.9l-1.51,0a1.09,1.09,0,0,1-.74-.36c-1.2-1.37-2.47-2.68-3.72-4a28.3,28.3,0,0,1-2.78-3A10.8,10.8,0,0,0,43.52,88.48Z" transform="translate(-0.2 -0.19)" style="fill:#838a7d"/><path d="M10.05,54.49c-1.19-.9-2.28-1.93-3.53-2.77a13.94,13.94,0,0,1-2.69-2.16,1.28,1.28,0,0,1,1,.28A56.42,56.42,0,0,1,10.2,54a6.13,6.13,0,0,1,1.93,3.86c-.87-.61-1-1.71-1.55-2.5A9.07,9.07,0,0,1,10.05,54.49Z" transform="translate(-0.2 -0.19)" style="fill:#838a7d"/><path d="M12.12,57.86a11.31,11.31,0,0,1,2.14,4.27A8.24,8.24,0,0,1,12.12,57.86Z" transform="translate(-0.2 -0.19)" style="fill:#838a7d"/><path d="M109.53,65.9a22.85,22.85,0,0,0-3.47,3.34c-1.07,1.1-2.25,2.09-3.26,3.25s-2,2.09-3.08,3.11-2.17,2.09-3.24,3.14-2,2-3,3c-1.16,1.15-2.25,2.37-3.49,3.45C89,86,88.15,87.05,87.22,88s-2.08,2.2-3.2,3.2c-.38.34-.76.71-1.27,1.12-1.37-12.46-2.87-24.81-4-37.2.36-.35.64,0,.94.11a8.34,8.34,0,0,0,2.41.59h0a38.87,38.87,0,0,0,4.38,1.82,1.64,1.64,0,0,0,1.23.16l.18.06c0,.15.11.18.23.09l.32,0c1.28,1,2.91,1.18,4.32,1.88a1.1,1.1,0,0,0,.92,0L94,60c.25.12.5.26.75.37,2.77,1.25,5.74,2,8.55,3.1.79.32,1.54.92,2.5.63l.32.18c.26.33.68.33,1,.5A9.06,9.06,0,0,1,109.53,65.9Z" transform="translate(-0.2 -0.19)" style="fill:#212f39"/><path d="M33.67,24.37c-2.08-1.51-4.34-2.76-6.49-4.16-1.63-1.05-3.32-2-4.9-3.12s-3.5-2-5.1-3.16c-1.86-1.37-4.17-2.1-5.7-3.94a1.61,1.61,0,0,1,.61.13c2.4,1.66,4.94,3.11,7.41,4.66,2.68,1.68,5.32,3.42,8,5.09,3.43,2.13,6.86,4.29,10.37,6.29,2.22,1.27,4.43,2.56,6.66,3.82.38.22.88.33,1,.85l0,0c-1.13-.07-1.87-.91-2.77-1.42-2.72-1.54-5.47-3-8.1-4.71A4.65,4.65,0,0,0,33.67,24.37Z" transform="translate(-0.2 -0.19)" style="fill:#838a7d"/><path d="M109.53,65.9a9.06,9.06,0,0,0-2.37-1.08c-.35-.17-.77-.17-1-.5,1-.29,1.83.39,2.72.67,2.89.93,5.79,1.85,8.68,2.79.35.11.79.1,1,.52a4.78,4.78,0,0,1-2.17-.39A43.73,43.73,0,0,0,109.53,65.9Z" transform="translate(-0.2 -0.19)" style="fill:#80887a"/><path d="M45.55,30.83a2.09,2.09,0,0,1,1.47.5c1.23.89,2.65,1.47,3.9,2.3,1.44.94,3,1.58,4.45,2.57.32.22.69.37.85.76l-.06.07a1.48,1.48,0,0,1-.89-.29c-2.37-1.45-4.79-2.82-7.22-4.17a8.61,8.61,0,0,1-2.52-1.72Z" transform="translate(-0.2 -0.19)" style="fill:#838a7d"/><path d="M105.81,64.14c-1,.29-1.71-.31-2.5-.63-2.81-1.15-5.78-1.85-8.55-3.1-.25-.11-.5-.25-.75-.37a3.4,3.4,0,0,1,2.14.44l8.64,3.14C105.14,63.75,105.57,63.78,105.81,64.14Z" transform="translate(-0.2 -0.19)" style="fill:#80887a"/><path d="M76.81,53c-.89-.14-1.42-.88-2-1.4-1.26-1.11-2.54-2.21-3.79-3.33a.81.81,0,0,1-.37-.81,32.68,32.68,0,0,1,3.92,3.31c.5.44,1,.82,1.54,1.25C76.4,52.26,76.81,52.48,76.81,53Z" transform="translate(-0.2 -0.19)" style="fill:#80887a"/><path d="M125.33,70.43c-1.57.06-2.89-.78-4.34-1.17a18.23,18.23,0,0,1-1.86-.71l0-.23A24.15,24.15,0,0,1,125.33,70.43Z" transform="translate(-0.2 -0.19)" style="fill:#818173"/><path d="M82.06,55.81a8.34,8.34,0,0,1-2.41-.59c-.3-.09-.58-.46-.94-.11a3.55,3.55,0,0,0-1.35-1.26c-.35-.2-.65-.41-.56-.88C78.37,54.26,80.31,54.87,82.06,55.81Z" transform="translate(-0.2 -0.19)" style="fill:#80887a"/><path d="M87.71,57.79a1.64,1.64,0,0,1-1.23-.16,38.87,38.87,0,0,1-4.38-1.82,1.32,1.32,0,0,1,.92,0A27.5,27.5,0,0,1,87.71,57.79Z" transform="translate(-0.2 -0.19)" style="fill:#80887a"/><path d="M93.68,59.89a1.1,1.1,0,0,1-.92,0c-1.41-.7-3-.88-4.32-1.88.62-.28,1.09.17,1.59.36A16.79,16.79,0,0,1,93.68,59.89Z" transform="translate(-0.2 -0.19)" style="fill:#80887a"/><path d="M64.26,42.13l-2.12-1.3c-.21-.4-.66-.48-1-.74s-1-.31-1-.94h0c1.22.2,2,1.1,2.93,1.79C63.57,41.26,64.38,41.28,64.26,42.13Z" transform="translate(-0.2 -0.19)" style="fill:#838a7d"/><path d="M67.87,45.32a13.65,13.65,0,0,1-3.62-3.2c.75,0,1,.66,1.52,1a15.34,15.34,0,0,1,2.27,2Z" transform="translate(-0.2 -0.19)" style="fill:#838a7d"/><path d="M56.22,37c1.62.2,2.67,1.44,4,2.19h0c-1.71,0-2.71-1.38-4.05-2.12Z" transform="translate(-0.2 -0.19)" style="fill:#838a7d"/><path d="M11.5,10A5.41,5.41,0,0,1,8.08,7.87C9.49,8.15,10.39,9.24,11.5,10Z" transform="translate(-0.2 -0.19)" style="fill:#838a7d"/><path d="M70.65,47.45a2.66,2.66,0,0,1-2.15-1.71C69.5,46,70,46.78,70.65,47.45Z" transform="translate(-0.2 -0.19)" style="fill:#80887a"/><path d="M67.87,45.32l.17-.2c.24.16.57.23.48.63C68.21,45.74,68.05,45.51,67.87,45.32Z" transform="translate(-0.2 -0.19)" style="fill:#80887a"/><path d="M119.15,68.32l0,.23c-.23,0-.48,0-.63-.26Z" transform="translate(-0.2 -0.19)" style="fill:#80887a"/><path d="M88.12,57.94c-.12.09-.2.06-.23-.09Z" transform="translate(-0.2 -0.19)" style="fill:#80887a"/><path d="M56.16,37c1.34.74,2.34,2.11,4.05,2.12,0,.63.62.65,1,.94s.76.34,1,.74l-4.76,3.24c-2.33,1.6-4.6,3.29-7,4.76-1.54.93-2.91,2.1-4.46,3-1.37.8-2.68,1.79-4,2.72-1.64,1.14-3.3,2.25-4.95,3.37a8.67,8.67,0,0,0-1.31.9C34.55,60,33,60.44,31.9,61.56c-.18.19-.48.41-.76.25s-.08-.45-.08-.68c.11-3.63.58-7.25.8-10.87.18-3,.48-6.06.75-9.08.34-3.8.23-7.62.75-11.41.25-1.78.22-3.6.31-5.4a4.65,4.65,0,0,1,1,.35c2.63,1.69,5.38,3.17,8.1,4.71.9.51,1.64,1.35,2.77,1.42a8.61,8.61,0,0,0,2.52,1.72c2.43,1.35,4.85,2.72,7.22,4.17A1.48,1.48,0,0,0,56.16,37Z" transform="translate(-0.2 -0.19)" style="fill:#c8d0b7"/><path d="M129.35,84.66l-4.52,2.24c-2.79,1.36-5.56,2.75-8.38,4-1.57.71-3.1,1.48-4.62,2.29a1.53,1.53,0,0,1-1,.14,17.66,17.66,0,0,1,4.11-2.14A21,21,0,0,0,117.36,90c3.23-1.56,6.51-3,9.7-4.67.72-.38,1.55-.64,2.31-1Z" transform="translate(-0.2 -0.19)" style="fill:#80887a"/><path d="M136.91,80.85c-1.39.85-2.68,1.91-4.38,2.12.7-.8,1.84-.89,2.58-1.61A3.48,3.48,0,0,1,136.91,80.85Z" transform="translate(-0.2 -0.19)" style="fill:#818173"/><path d="M129.35,84.66l0-.37c1-.37,1.78-1.36,3-1.27A9.3,9.3,0,0,1,129.35,84.66Z" transform="translate(-0.2 -0.19)" style="fill:#818173"/></svg>