<svg xmlns="http://www.w3.org/2000/svg" viewBox="0 0 150.04 150.04"><title>motiv12</title><g id="motiv12"><path d="M150.21,140.23c0,3,0,6.09,0,9.13,0,.73-.14.87-.87.87q-30,0-59.91,0-44.14,0-88.28,0c-.8,0-1-.18-1-1q0-74.05,0-148.09c0-.8.18-1,1-1q74,0,148.09,0c.79,0,1,.18,1,1q0,69.11,0,138.21c-.71-.18-.8-1.06-1.47-1.29A5.09,5.09,0,0,0,146.6,136c0-.4-.38-.58-.65-.79a41.34,41.34,0,0,0-5.38-3.65,28.25,28.25,0,0,0-9.06-3l-.34,0a21.69,21.69,0,0,0-8.79.22,9,9,0,0,0-2.06.42,25.52,25.52,0,0,0-7.26,2.71,27.57,27.57,0,0,1-4.6,2.24,22.36,22.36,0,0,1-9.29,1,5.45,5.45,0,0,0-2-.27c.22.46.61.44.93.51,4.77,1,9.22-.11,13.54-2,1.11-.5,2.1-1.22,3.21-1.76a29.3,29.3,0,0,1,7.6-2.43,27.64,27.64,0,0,1,19,3.31,38,38,0,0,1,5.19,3.86,8.73,8.73,0,0,0,2,1.92A4.72,4.72,0,0,0,150.21,140.23ZM94,134.13l.3.13a6.9,6.9,0,0,0,2.68.61,6.41,6.41,0,0,0-2.89-1c-.43-.16-.88-.27-1.29-.47-4.29-2-5.87-3.89-6.15-8.77-.1-1.59-.07-3.18-.22-4.76a15.9,15.9,0,0,0-1-5.14,4.09,4.09,0,0,0-.26-1.93h1.06c1.52,0,1.78-.32,1-1.61-1.07-1.72-1.77-3.61-2.75-5.36-.72-1.3-.61-1.52.89-1.5,3.47,0,6.93-.14,10.4-.23.92,0,1.48-.23,1.7-1.28.82-3.9,2-7.73,3-11.58,1.28-4.74,2.39-9.53,3.86-14.22a7.23,7.23,0,0,0,.32-2.92c-.44-4.17-1.87-8.12-2.56-12.24-.41-2.47-1.28-4.86-1.71-7.33-.79-4.46-2.17-8.79-2.84-13.26a3.34,3.34,0,0,0-1.9-2.36C93.05,37.3,90.46,35.73,88,34Q83,30.73,78,27.57a1.41,1.41,0,0,0-1.21-.2c-1.77.48-3.59.83-5.32,1.41-2.79.93-5.65,1.58-8.46,2.45a44.18,44.18,0,0,1-5.09,1.45c-1.09.2-2.26.4-2.62,1.9-.49,2-1.29,4-2,5.92a69.7,69.7,0,0,0-2.53,9.18C50.18,53,49,56.12,49.5,59.58c.94,6.51,1.72,13,2.61,19.55A13.68,13.68,0,0,0,53,83.46c1.42,2.84,3.55,5.25,5.32,7.88s3.85,5.48,5.78,8.22c1.2,1.7,2.31,3.46,3.62,5.09a1.25,1.25,0,0,0,1.08.53c1,0,2-.07,3.08-.13l9-.5c.8,0,1,.3.75,1-.58,1.88-1,3.82-1.72,5.66-.26.65-.05.89.62.95,1.34.13,2.67.33,4,.5a11.07,11.07,0,0,1,.73,2,4.77,4.77,0,0,1,.13.51,91.55,91.55,0,0,1,.88,10.19,8.31,8.31,0,0,0,2.47,5.9A10.14,10.14,0,0,0,94,134.15Z" transform="translate(-0.19 -0.19)" style="fill:#6c96b8"/><path d="M150.21,140.23a4.72,4.72,0,0,1-1.58-2l.11-.13c.67.23.76,1.11,1.47,1.29Z" transform="translate(-0.19 -0.19)" style="fill:#0c1116"/><path d="M84.52,112.71c-1.33-.17-2.66-.37-4-.5-.67-.06-.88-.3-.62-.95.73-1.84,1.14-3.78,1.72-5.66.23-.75,0-1.09-.75-1l-9,.5c-1,.06-2.05.09-3.08.13a1.25,1.25,0,0,1-1.08-.53c-1.31-1.63-2.42-3.39-3.62-5.09-1.93-2.74-3.91-5.44-5.78-8.22s-3.9-5-5.32-7.88a13.68,13.68,0,0,1-.88-4.33c-.89-6.52-1.67-13-2.61-19.55-.49-3.46.68-6.63,1.33-9.9a69.7,69.7,0,0,1,2.53-9.18c.67-2,1.47-3.9,2-5.92.36-1.5,1.53-1.7,2.62-1.9A44.18,44.18,0,0,0,63,31.23c2.81-.87,5.67-1.52,8.46-2.45,1.73-.58,3.55-.93,5.32-1.41a1.41,1.41,0,0,1,1.21.2Q83,30.72,88,34c2.51,1.7,5.1,3.27,7.67,4.89a3.34,3.34,0,0,1,1.9,2.36c.67,4.47,2,8.8,2.84,13.26.43,2.47,1.3,4.86,1.71,7.33.69,4.12,2.12,8.07,2.56,12.24a7.23,7.23,0,0,1-.32,2.92c-1.47,4.69-2.58,9.48-3.86,14.22-1,3.85-2.18,7.68-3,11.58-.22,1-.78,1.25-1.7,1.28-3.47.09-6.93.27-10.4.23-1.5,0-1.61.2-.89,1.5,1,1.75,1.68,3.64,2.75,5.36.79,1.29.53,1.63-1,1.61H85.16C85,112.71,84.76,112.53,84.52,112.71Z" transform="translate(-0.19 -0.19)" style="fill:#9dbaa4"/><path d="M146.62,136.3a38,38,0,0,0-5.19-3.86,27.64,27.64,0,0,0-19-3.31l0-.39a21.69,21.69,0,0,1,8.79-.22l.34,0a28.25,28.25,0,0,1,9.06,3,41.34,41.34,0,0,1,5.38,3.65c.27.21.61.39.65.79Z" transform="translate(-0.19 -0.19)" style="fill:#0e151b"/><path d="M85.42,114.73a15.9,15.9,0,0,1,1,5.14c.15,1.58.12,3.17.22,4.76.28,4.88,1.86,6.76,6.15,8.77.41.2.86.31,1.29.47l-.11.28a10.14,10.14,0,0,1-5.28-2.82,8.31,8.31,0,0,1-2.47-5.9,91.55,91.55,0,0,0-.88-10.19,4.77,4.77,0,0,0-.13-.51Z" transform="translate(-0.19 -0.19)" style="fill:#10171e"/><path d="M122.38,128.74l0,.39a29.3,29.3,0,0,0-7.6,2.43c-1.11.54-2.1,1.26-3.21,1.76-4.32,1.93-8.77,3.09-13.54,2-.32-.07-.71-.05-.93-.51a5.45,5.45,0,0,1,2,.27,22.36,22.36,0,0,0,9.29-1,27.57,27.57,0,0,0,4.6-2.24,25.52,25.52,0,0,1,7.26-2.71A9,9,0,0,1,122.38,128.74Z" transform="translate(-0.19 -0.19)" style="fill:#0e141a"/><path d="M146.62,136.3l0-.33a5.09,5.09,0,0,1,2.14,2.12l-.11.13A8.73,8.73,0,0,1,146.62,136.3Z" transform="translate(-0.19 -0.19)" style="fill:#0c1116"/><path d="M85.42,114.73h-.17a11.07,11.07,0,0,0-.73-2c.24-.18.44,0,.64.09A4.09,4.09,0,0,1,85.42,114.73Z" transform="translate(-0.19 -0.19)" style="fill:#131a20"/><path d="M94,134.15l.11-.28a6.41,6.41,0,0,1,2.89,1,6.9,6.9,0,0,1-2.68-.61l-.3-.13Z" transform="translate(-0.19 -0.19)" style="fill:#0e141a"/><path d="M131.51,128.54l-.34,0Z" transform="translate(-0.19 -0.19)" style="fill:#141c23"/><path d="M94,134.13l.3.13Z" transform="translate(-0.19 -0.19)" style="fill:#10171e"/></g></svg>