<svg xmlns="http://www.w3.org/2000/svg" viewBox="0 0 150.05 150.04"><title>motiv8</title><g id="motiv8"><path d="M73.51,150.21q-36.21,0-72.43,0c-.7,0-.89-.1-.89-.85Q.22,75.24.19,1.1C.19.3.4.19,1.13.19q74.09,0,148.17,0c.73,0,.94.11.94.91q0,74.09,0,148.17c0,.83-.21,1-1,1q-36,0-71.9,0V81c0-.53,0-1.06,0-1.59.5-.58,1.26-.32,1.87-.57,2.66-1.12,5.33-2.21,8-3.3.55-.23,1-.56,1.59-.81a20.26,20.26,0,0,0,5.18-3.35,37.89,37.89,0,0,0,3.19-2.75,16.26,16.26,0,0,0,4.93-6.2c.8-2,1.17-4.19,2-6.22a8.69,8.69,0,0,0,.47-1.73c.43-2.36.12-4.73.19-7.09a23,23,0,0,0-4.81-12.31,34.85,34.85,0,0,0-5.29-5.51c-2.26-1.93-4.29-4.12-6.61-6A14.68,14.68,0,0,0,78.13,20c-.31,0-.63,0-.94-.1a25.44,25.44,0,0,0-9.8.41c-3.33.79-6.31,2.59-9.33,4.18a18.52,18.52,0,0,0-4.76,3.46,12,12,0,0,0-3.42,6.73,35,35,0,0,0-2.48,6.26,41.37,41.37,0,0,0,0,20.85,8.91,8.91,0,0,0,1,2.66,37,37,0,0,0,3.54,5.73,9.87,9.87,0,0,0,2.49,2.42c2.63,1.61,5.16,3.39,7.92,4.81A14.17,14.17,0,0,0,70,79.1c1.15.43,2.39.26,3.56.57,0,.49,0,1,0,1.48Z" transform="translate(-0.19 -0.19)" style="fill:#d5a748"/><path d="M73.51,150.21V81.15c0-.49,0-1,0-1.48,1.27.12,2.51-.22,3.77-.22,0,.53,0,1.06,0,1.59v69.17Z" transform="translate(-0.19 -0.19)" style="fill:#f3a7a7"/><path d="M104.73,47.43c-.07,2.36.24,4.73-.19,7.09a8.69,8.69,0,0,1-.47,1.73c-.84,2-1.21,4.2-2,6.22a16.26,16.26,0,0,1-4.93,6.2,36.5,36.5,0,0,1-3.2,2.75c-.13-.51.2-.88.41-1.27A14.39,14.39,0,0,0,96,62.07c-.25-3.44-1.94-5.53-5.25-6.29A26,26,0,0,1,87.4,55c-2.82-1.07-5.68-2-8.56-3.34.21,1.12.31,2.1.49,3.05a39.19,39.19,0,0,1,0,15.67c-.84,4-4.62,9.24-9.36,8.76a14.17,14.17,0,0,1-7.62-1.72c-2.76-1.42-5.29-3.2-7.92-4.81a9.87,9.87,0,0,1-2.49-2.42,37,37,0,0,1-3.54-5.73,8.91,8.91,0,0,1-1-2.66c.38-.57.71-.47,1.18,0A17.85,17.85,0,0,0,52,64.49a12.41,12.41,0,0,0,7.78,1.84,3.69,3.69,0,0,0,2.37-1.26,15.48,15.48,0,0,0,1.73-2.23A34.77,34.77,0,0,1,67.4,58c1.14-1.29,2.22-2.63,3.37-3.9.57-.62.53-1-.43-1.25a38.85,38.85,0,0,1-8.87-3.66A31.17,31.17,0,0,1,53.7,43.3c-2.29-2.51-3.87-5.18-3.82-8.65a12,12,0,0,1,3.42-6.73,18.52,18.52,0,0,1,4.76-3.46c3-1.59,6-3.39,9.33-4.18a25.44,25.44,0,0,1,9.8-.41c.31.05.63.07.94.1.33,1.42,0,1.84-1.33,1.92a3.3,3.3,0,0,0-1,.19c-3.1,1.24-5.92,2.85-7.81,5.77a4.14,4.14,0,0,0-.63,3.81c.62,1.72,1.34,3.39,2.06,5.08A25.31,25.31,0,0,1,71,41.11a33.38,33.38,0,0,0,1.93,5.52,58.84,58.84,0,0,1,10.55-5.78,25.5,25.5,0,0,1,13.44-1.94,8.44,8.44,0,0,1,5.76,3.71A17.62,17.62,0,0,1,104.73,47.43Z" transform="translate(-0.19 -0.19)" style="fill:#d64a1f"/><path d="M104.73,47.43a17.62,17.62,0,0,0-2.1-4.81,8.44,8.44,0,0,0-5.76-3.71,25.5,25.5,0,0,0-13.44,1.94,58.84,58.84,0,0,0-10.55,5.78A33.38,33.38,0,0,1,71,41.11a25.31,25.31,0,0,0-1.57-4.37c-.72-1.69-1.44-3.36-2.06-5.08A4.14,4.14,0,0,1,68,27.85c1.89-2.92,4.71-4.53,7.81-5.77a3.3,3.3,0,0,1,1-.19c1.35-.08,1.66-.5,1.33-1.92A14.68,14.68,0,0,1,88,23.6c2.32,1.89,4.35,4.08,6.61,6a34.85,34.85,0,0,1,5.29,5.51A23,23,0,0,1,104.73,47.43Z" transform="translate(-0.19 -0.19)" style="fill:#e7c1b3"/><path d="M49.88,34.65c-.05,3.47,1.53,6.14,3.82,8.65a31.17,31.17,0,0,0,7.77,5.88,38.85,38.85,0,0,0,8.87,3.66c1,.27,1,.63.43,1.25-1.15,1.27-2.23,2.61-3.37,3.9a34.77,34.77,0,0,0-3.53,4.85,15.48,15.48,0,0,1-1.73,2.23,3.69,3.69,0,0,1-2.37,1.26A12.41,12.41,0,0,1,52,64.49a17.85,17.85,0,0,1-3.4-2.76c-.47-.44-.8-.54-1.18,0a41.37,41.37,0,0,1,0-20.85A35,35,0,0,1,49.88,34.65Z" transform="translate(-0.19 -0.19)" style="fill:#e7c1b3"/><path d="M70,79.1c4.74.48,8.52-4.78,9.36-8.76a39.19,39.19,0,0,0,0-15.67c-.18-1-.28-1.93-.49-3.05,2.88,1.31,5.74,2.27,8.56,3.34a26,26,0,0,0,3.38.82c3.31.76,5,2.85,5.25,6.29a14.39,14.39,0,0,1-1.69,8.08c-.21.39-.54.76-.41,1.27a20,20,0,0,1-5.17,3.35c-.55.25-1,.58-1.59.81-2.67,1.09-5.34,2.18-8,3.3-.61.25-1.37,0-1.87.57-1.26,0-2.5.34-3.77.22C72.36,79.36,71.12,79.53,70,79.1Z" transform="translate(-0.19 -0.19)" style="fill:#e7c1b3"/></g></svg>