<svg xmlns="http://www.w3.org/2000/svg" viewBox="0 0 150.05 150.04"><title>motiv4</title><g id="motiv4"><path d="M75.23,150.21q-37.08,0-74.15,0c-.69,0-.89-.09-.89-.85q0-74.16,0-148.3c0-.69.09-.89.85-.89q74.15,0,148.3,0c.69,0,.89.09.88.85q0,74.15,0,148.3c0,.87-.3.88-1,.87ZM67.85,44.45l-.12.44a14.35,14.35,0,0,0,0,2.78l.09.22L68,49.11c-.36.12-.63.42-1,.47-2.21.29-3.69,1.89-5.21,3.21-2.84,2.46-3.87,5.88-4.34,9.5a14.05,14.05,0,0,1-1.23,2c-.74.87-1.05,2.09-2.21,2.63a24.88,24.88,0,0,0-5.07,3.38,1.45,1.45,0,0,0-.52,1.49,15.57,15.57,0,0,0,1.21,3.35c-1.74.65-3.06,2-4.56,3a2,2,0,0,0-.78,1.85,20.68,20.68,0,0,1-.38,4.15c.44,1.35.5,2.77,1,4.13,1.35,4.1,2.38,8.29,3.59,12.43s2.42,8.49,3.66,12.73A2.15,2.15,0,0,0,53.68,115c2.35.65,4.65,1.44,6.94,2.29a13.48,13.48,0,0,0,5,.86c4.21-.07,8.43-.06,12.64-.09l.49-.11h3.41l3.29,0a16.06,16.06,0,0,0,4.55-.3c3.63-1.07,7.31-1.95,11-2.86a2.15,2.15,0,0,0,1.8-1.79c.69-3.29,2.11-6.36,2.91-9.63.56-2.33,1.54-4.55,2.19-6.87.91-3.27,2-6.48,3.06-9.72a11.48,11.48,0,0,0,.8-2.74c0-.88,0-1.77,0-2.65A4.77,4.77,0,0,0,110.47,78c-2.66-2.94-5.7-5.15-10-4.85a25.7,25.7,0,0,1,2.35-3.76,2.48,2.48,0,0,0,.47-.93,17,17,0,0,1,1.36-3.66,1.77,1.77,0,0,0,0-1.52c-1-2-1.47-4.13-2.49-6.06-.48-.91-.6-2.12-1.66-2.62-.88-.41-1.53-1.14-2.36-1.58a2.32,2.32,0,0,1-1.41-2.81c.42-.08,1,.25,1.23-.26s-.44-.64-.7-1c-.82-1-2.06-1.63-2.93-2.67C93.35,45,92,43.9,90,44.7a5.67,5.67,0,0,0,.21-.81c.18-1.59.61-3.19-.5-4.68a15.52,15.52,0,0,1-1-2.08c-1-1.86-1.95-3.71-3.85-4.9a57.55,57.55,0,0,0-5.45-2.58,2.39,2.39,0,0,0-2.34.1,20.57,20.57,0,0,0-2.73,1.39c-1,.75-2.17,1.56-2.53,2.75a15.37,15.37,0,0,1-1.63,3.3A15.52,15.52,0,0,0,67.85,44.45Z" transform="translate(-0.19 -0.19)" style="fill:#d5a748"/><path d="M81.92,117.92h-3.2l-.49.11c-4.21,0-8.43,0-12.64.09a13.48,13.48,0,0,1-5-.86c-2.29-.85-4.59-1.64-6.94-2.29a2.15,2.15,0,0,1-1.62-1.61c-1.24-4.24-2.42-8.5-3.66-12.73S46.16,92.3,44.81,88.2c-.45-1.36-.51-2.78-1-4.13a54.9,54.9,0,0,1,7.88,1c4.13.65,8.28,1.23,12.43,1.48,6.29.39,12.6.37,18.9.45,4.71.07,9.43,0,14.14,0a4.85,4.85,0,0,0,1.48-.08c2.82-1,5.82-1.18,8.68-2,1.43-.41,2.9-.65,4.35-1a11.48,11.48,0,0,1-.8,2.74c-1,3.24-2.15,6.45-3.06,9.72-.65,2.32-1.63,4.54-2.19,6.87-.8,3.27-2.22,6.34-2.91,9.63a2.15,2.15,0,0,1-1.8,1.79c-3.68.91-7.36,1.79-11,2.86a16.06,16.06,0,0,1-4.55.3l-3.29,0A.5.5,0,0,0,81.92,117.92Z" transform="translate(-0.19 -0.19)" style="fill:#d9481f"/><path d="M96.83,50.23A2.32,2.32,0,0,0,98.24,53c.83.44,1.48,1.17,2.36,1.58,1.06.5,1.18,1.71,1.66,2.62,1,1.93,1.5,4.1,2.49,6.06a1.77,1.77,0,0,1,0,1.52,17,17,0,0,0-1.36,3.66,2.48,2.48,0,0,1-.47.93,25.7,25.7,0,0,0-2.35,3.76c-1,1-1.42,2.35-2.15,3.52a2.1,2.1,0,0,1-1.58,1.11,11.27,11.27,0,0,1-2.84.28,3.17,3.17,0,0,0-2.56.76,4.48,4.48,0,0,1-3.38.94c-2.22-.14-4.44-.27-6.67-.21a12.7,12.7,0,0,1-3.23-.49c-3.32-.78-6.47-2-10.09-1.74a122.92,122.92,0,0,1-14.87.1c-1.37-.06-2.79,0-3.2-1.83,0-.19-.24-.34-.37-.51a15.57,15.57,0,0,1-1.21-3.35,1.45,1.45,0,0,1,.52-1.49A24.88,24.88,0,0,1,54,66.88c1.16-.54,1.47-1.76,2.21-2.63a14.05,14.05,0,0,0,1.23-2c1.31,1.43,2.32,3.12,3.84,4.37,1,.8,1.88.74,2.23-.29a12.64,12.64,0,0,0,.66-5.85c-.25-1.72-1-3.3-1.27-5-.13-1.06.23-1.45,1.27-1.33,1.9.21,3.12,1.57,4.48,2.67a2.73,2.73,0,0,0,4-.35c.75-.9.67-2,.88-3,.32-1.49.69-1.66,1.91-.75.19.15.35.35.55.49,1.4,1,2.39,2.4,3.82,3.35,1.74,1.17,2.59.85,2.93-1.24a45.41,45.41,0,0,0,.44-5.08c0-.34-.06-.76.36-.91s.58.21.78.43A8.42,8.42,0,0,1,86.59,55a8.29,8.29,0,0,0,.17,1.57c.5,2,1.41,2.49,3.24,1.49a18.7,18.7,0,0,1,4.26-1.59c1.42-.38,1.85-1.16,1.31-2.53a6,6,0,0,0-2.06-3c-.17-.11-.4-.23-.32-.48s.35-.21.55-.21Z" transform="translate(-0.19 -0.19)" style="fill:#e9c4d5"/><path d="M49.58,75.1c.13.17.33.32.37.51.41,1.78,1.83,1.77,3.2,1.83A122.92,122.92,0,0,0,68,77.34c3.62-.28,6.77,1,10.09,1.74a12.7,12.7,0,0,0,3.23.49c2.23-.06,4.45.07,6.67.21a4.48,4.48,0,0,0,3.38-.94A3.17,3.17,0,0,1,94,78.08a11.27,11.27,0,0,0,2.84-.28,2.1,2.1,0,0,0,1.58-1.11c.73-1.17,1.14-2.53,2.15-3.52,4.25-.3,7.29,1.91,10,4.85a4.77,4.77,0,0,1,1.23,3.29c0,.88,0,1.77,0,2.65-1.45.32-2.92.56-4.35,1-2.86.83-5.86,1-8.68,2a4.85,4.85,0,0,1-1.48.08c-4.71,0-9.43,0-14.14,0-6.3-.08-12.61-.06-18.9-.45-4.15-.25-8.3-.83-12.43-1.48a54.9,54.9,0,0,0-7.88-1,20.68,20.68,0,0,0,.38-4.15A2,2,0,0,1,45,78.07C46.52,77.05,47.84,75.75,49.58,75.1Z" transform="translate(-0.19 -0.19)" style="fill:#e4884a"/><path d="M68,49.11c0-.41-.09-.82-.14-1.22l-.09-.22a14.35,14.35,0,0,1,0-2.78l.12-.44a15.52,15.52,0,0,1,2.33-7.26,15.37,15.37,0,0,0,1.63-3.3c.36-1.19,1.53-2,2.53-2.75a20.57,20.57,0,0,1,2.73-1.39,2.39,2.39,0,0,1,2.34-.1,57.55,57.55,0,0,1,5.45,2.58c1.9,1.19,2.86,3,3.85,4.9a15.52,15.52,0,0,0,1,2.08c1.11,1.49.68,3.09.5,4.68a5.67,5.67,0,0,1-.21.81,2.79,2.79,0,0,1-2.31,2.73c-3.52.85-6.9,2.27-10.52,2.73a45.37,45.37,0,0,1-7,.38C69.21,50.51,68.31,50.25,68,49.11Z" transform="translate(-0.19 -0.19)" style="fill:#aa4155"/><path d="M68,49.11c.31,1.14,1.21,1.4,2.22,1.43a45.37,45.37,0,0,0,7-.38c3.62-.46,7-1.88,10.52-2.73A2.79,2.79,0,0,0,90,44.7c1.95-.8,3.31.34,4.39,1.63.87,1,2.11,1.62,2.93,2.67.26.33.86.56.7,1s-.81.18-1.23.26H93.74c-.2,0-.46,0-.55.21s.15.37.32.48a6,6,0,0,1,2.06,3c.54,1.37.11,2.15-1.31,2.53A18.7,18.7,0,0,0,90,58.07c-1.83,1-2.74.54-3.24-1.49A8.29,8.29,0,0,1,86.59,55a8.42,8.42,0,0,0-2.27-5.26c-.2-.22-.41-.56-.78-.43s-.34.57-.36.91a45.41,45.41,0,0,1-.44,5.08c-.34,2.09-1.19,2.41-2.93,1.24-1.43-.95-2.42-2.37-3.82-3.35-.2-.14-.36-.34-.55-.49-1.22-.91-1.59-.74-1.91.75-.21,1-.13,2.12-.88,3a2.73,2.73,0,0,1-4,.35c-1.36-1.1-2.58-2.46-4.48-2.67-1-.12-1.4.27-1.27,1.33.22,1.73,1,3.31,1.27,5a12.64,12.64,0,0,1-.66,5.85c-.35,1-1.24,1.09-2.23.29-1.52-1.25-2.53-2.94-3.84-4.37.47-3.62,1.5-7,4.34-9.5,1.52-1.32,3-2.92,5.21-3.21C67.37,49.53,67.64,49.23,68,49.11Z" transform="translate(-0.19 -0.19)" style="fill:#f3a7a8"/><path d="M67.85,44.45l-.12.44Z" transform="translate(-0.19 -0.19)" style="fill:#b8654f"/><path d="M78.23,118l.49-.11Z" transform="translate(-0.19 -0.19)" style="fill:#d8903c"/><path d="M67.77,47.67l.09.22Z" transform="translate(-0.19 -0.19)" style="fill:#b8654f"/><path d="M81.92,117.92a.5.5,0,0,1,.21,0Z" transform="translate(-0.19 -0.19)" style="fill:#d8903c"/></g></svg>