<svg xmlns="http://www.w3.org/2000/svg" viewBox="0 0 150.05 150.04"><title>motiv7</title><g id="motiv7"><path d="M74.79,150.21q-36.86,0-73.71,0c-.7,0-.89-.1-.89-.85Q.22,75.24.19,1.1c0-.8.2-.91.94-.91q74.09,0,148.16,0c.73,0,1,.09,1,.9q0,74.13,0,148.27c0,.75-.17.86-.88.86q-29.41,0-58.84,0A36.7,36.7,0,0,1,94,146.83c.94-.88,1-.86-.19-1.55a57.14,57.14,0,0,0-9.22-4.2,4.52,4.52,0,0,0-2.11-.61c-1.53.16-3-.33-4.55-.28-.33,0-.8-.05-.6-.69.32-1,.47-2.07.87-3a15.49,15.49,0,0,0,.94-5.39,28.24,28.24,0,0,0-1.77-9.53c-.87-2.73-3.35-4.44-5.15-6.56A36.3,36.3,0,0,0,68,111.46a4,4,0,0,0-2-.94,25.81,25.81,0,0,0-4.11-.43c-2.55,0-5.09.06-7.64-.15-.43,0-1,0-.64-.68a21.28,21.28,0,0,0,.87-2.92,55.21,55.21,0,0,0,2.37-9.11c.19-1-.13-1.33-1.15-1.42a7,7,0,0,0-3.72,1,12.6,12.6,0,0,1-4.86,1.69c-1.92.09-3.76.19-5.34,1.51-1.2,1-2.57,1.69-3.2,3.34s-1.33,3.26-3.09,4a.7.7,0,0,0-.17.13,2.34,2.34,0,0,0-.6,2.32,1.67,1.67,0,0,0,1.71,1.4c.7,0,1.4.16,2.1.25l8.19,1.09c-.57,1.06-1.06,2-1.61,3a31.25,31.25,0,0,0-3.8,9.45,13.27,13.27,0,0,0,2.64,11c1.35,1.79,2.6,3.66,4,5.45a19.85,19.85,0,0,0,2.55,2.93,10,10,0,0,0,6.5,2.16c2.86.12,5.71-.27,8.57,0a2.89,2.89,0,0,0,1.22-.27c2-.7,3.75-2,6-2.13,1.74-.14,2.55.55,2.71,2.32C75.58,147.85,74.72,148.93,74.79,150.21Zm1.49-83.92a3.38,3.38,0,0,1,.41,2,3.32,3.32,0,0,0,.42,1.72,17.47,17.47,0,0,0,1.82,3,10.69,10.69,0,0,1,1.5,3.7c.11.35-.11.51-.31.72a3.76,3.76,0,0,1-2.94,1.19c-5.2-.15-10.41.1-15.6-.19-1.12-.06-1.32.22-.8,1.13,1,1.84,1.95,3.76,2.89,5.65,1,2.06,2,4.1,3,6.18.2.44.3.5.73.4a12.57,12.57,0,0,0,3.68-1.55A21,21,0,0,1,74,89a1.15,1.15,0,0,1,1.55.52c.33.72-.44.8-.85,1.07s-1.08.22-1.5.71a13,13,0,0,1,1.22.75c2.17,1.63,4.35,3.25,6.47,4.94.71.57.84.39,1.19-.34,1.58-3.26,2.1-6.8,2.94-10.25a3.59,3.59,0,0,0,.18-1.68A23.37,23.37,0,0,1,85,80.06c0-.87.23-1.12,1.11-.88a21.25,21.25,0,0,0,13.58-1A17,17,0,0,0,107,73c1.28-1.63,2.52-3.28,3.64-5a10.09,10.09,0,0,0,1.64-7.65,46.53,46.53,0,0,1-1-8.08c0-.38-.18-.91.47-.74.84.21,1.69.13,2.53.26a67.14,67.14,0,0,0,9.69,1c1.24,0,1.49-.35,1.29-1.55a8.27,8.27,0,0,0-1.68-3.59,14,14,0,0,1-2.57-5.4,4.92,4.92,0,0,0-.68-2.32c-1.61-1.86-3-3.93-5.8-4.45-1.34-.25-2.83-.56-3.66-2a2,2,0,0,0-1.6-.92c0-.89,0-1.77,0-2.66a1.32,1.32,0,0,0-1-1.6,1.28,1.28,0,0,1-1-1.24c-.14-2-.7-4-1-5.95a3.29,3.29,0,0,0-1.63-2.67c-1.5-.81-2.77-1.95-4.23-2.81A44.85,44.85,0,0,1,96.63,13c-2.78-2-2.06-2-4.22.41-1.77,2-3.48,4.08-5.25,6.1-.39.45-.9.79-1,1.44a21.11,21.11,0,0,1-1.22,4.06,6.29,6.29,0,0,0-.37,2.81c.15,1.58.32,3.16.49,4.74,0,.3.25.65-.08.88s-.61,0-.9-.13a32.18,32.18,0,0,0-8.66-1.23c-1,0-2,.4-3,.36-3.66-.14-6.92,1.2-10.1,2.7-2.22,1.06-4.07,2.75-6.09,4.14a10.55,10.55,0,0,0-3,2.53c-1.72,2.48-3.5,4.93-5.25,7.4a5.29,5.29,0,0,0-.83,1.93c-.35,1.53-.79,3-1.25,4.77-1.53-2.18-3.33-3.84-4.57-5.94a1.55,1.55,0,0,0-.64-.52A68.82,68.82,0,0,0,31,45,5.68,5.68,0,0,0,27,45a3,3,0,0,1-.92.2c-1.08,0-1.53.6-1.57,1.6,0,.49,0,1,0,1.48-.11,1.55,0,3.18-1.57,4.21A1.33,1.33,0,0,0,22.33,54c.15.76.27,1.53.49,2.27.56,1.9,1.18,3.78,1.74,5.68,1,3.52,2,7.05,3,10.57.37,1.25.41,1.23,1.55.48s2.06-1.1,3.23-.17C34,74,35.61,75.17,37.16,76.45c1.05.87,1.64.81,2.13-.45a6.5,6.5,0,0,1,.43-1c1.89-3.18,3.86-6.32,5.66-9.55.53-.94,1.33-1.86,1.15-3.11-.06-.47.29-.43.56-.25a4.71,4.71,0,0,1,.78.7,12.09,12.09,0,0,0,2.91,2.39,50,50,0,0,0,8.07,3.89,10.85,10.85,0,0,0,5.61.75A42.92,42.92,0,0,0,76.28,66.29Z" transform="translate(-0.19 -0.19)" style="fill:#e7c1b4"/><path d="M74.79,150.21c-.07-1.28.79-2.36.67-3.69-.16-1.77-1-2.46-2.71-2.32-2.2.17-4,1.43-6,2.13a2.89,2.89,0,0,1-1.22.27c-2.86-.26-5.71.13-8.57,0a10,10,0,0,1-6.5-2.16A19.85,19.85,0,0,1,48,141.52c-1.36-1.79-2.61-3.66-4-5.45a13.27,13.27,0,0,1-2.64-11,31.25,31.25,0,0,1,3.8-9.45c.55-.94,1-1.92,1.61-3l-8.19-1.09c-.7-.09-1.4-.23-2.1-.25a1.67,1.67,0,0,1-1.71-1.4,2.34,2.34,0,0,1,.6-2.32.7.7,0,0,1,.17-.13c1.76-.79,2.48-2.46,3.09-4s2-2.35,3.2-3.34c1.58-1.32,3.42-1.42,5.34-1.51A12.6,12.6,0,0,0,52,96.85a7,7,0,0,1,3.72-1c1,.09,1.34.39,1.15,1.42a55.21,55.21,0,0,1-2.37,9.11,21.28,21.28,0,0,1-.87,2.92c-.35.66.21.64.64.68,2.55.21,5.09.11,7.64.15a25.81,25.81,0,0,1,4.11.43,4,4,0,0,1,2,.94A36.3,36.3,0,0,1,72.18,115c1.8,2.12,4.28,3.83,5.15,6.56a28.24,28.24,0,0,1,1.77,9.53,15.49,15.49,0,0,1-.94,5.39c-.4,1-.55,2-.87,3-.2.64.27.7.6.69,1.53-.05,3,.44,4.55.28a4.52,4.52,0,0,1,2.11.61,57.14,57.14,0,0,1,9.22,4.2c1.15.69,1.13.67.19,1.55a36.7,36.7,0,0,0-3.45,3.38Z" transform="translate(-0.19 -0.19)" style="fill:#d9481f"/><path d="M76.28,66.29a42.92,42.92,0,0,1-11.82,3.56,10.85,10.85,0,0,1-5.61-.75,50,50,0,0,1-8.07-3.89,12.09,12.09,0,0,1-2.91-2.39,4.71,4.71,0,0,0-.78-.7c-.27-.18-.62-.22-.56.25.18,1.25-.62,2.17-1.15,3.11-1.8,3.23-3.77,6.37-5.66,9.55a6.5,6.5,0,0,0-.43,1c-.49,1.26-1.08,1.32-2.13.45C35.61,75.17,34,74,32.38,72.78c-1.17-.93-2.19-.52-3.23.17s-1.18.77-1.55-.48c-1-3.52-2-7-3-10.57-.56-1.9-1.18-3.78-1.74-5.68-.22-.74-.34-1.51-.49-2.27a1.33,1.33,0,0,1,.52-1.42c1.61-1,1.46-2.66,1.57-4.21,0-.49,0-1,0-1.48,0-1,.49-1.59,1.57-1.6A3,3,0,0,0,27,45,5.68,5.68,0,0,1,31,45a68.82,68.82,0,0,1,9.67,4.45,1.55,1.55,0,0,1,.64.52c1.24,2.1,3,3.76,4.57,5.94.46-1.74.9-3.24,1.25-4.77A5.29,5.29,0,0,1,48,49.25c1.75-2.47,3.53-4.92,5.25-7.4a10.55,10.55,0,0,1,3-2.53c2-1.39,3.87-3.08,6.09-4.14,3.18-1.5,6.44-2.84,10.1-2.7,1,0,2-.4,3-.36a32.18,32.18,0,0,1,8.66,1.23c.29.1.6.33.9.13s.12-.58.08-.88c-.17-1.58-.34-3.16-.49-4.74a6.29,6.29,0,0,1,.37-2.81A21.11,21.11,0,0,0,86.16,21c.1-.65.61-1,1-1.44,1.77-2,3.48-4.09,5.25-6.1C94.57,11,93.85,11,96.63,13a44.85,44.85,0,0,0,3.77,2.51c1.46.86,2.73,2,4.23,2.81A3.29,3.29,0,0,1,106.26,21c.27,2,.83,3.94,1,5.95a1.28,1.28,0,0,0,1,1.24,1.32,1.32,0,0,1,1,1.6c0,.89,0,1.77,0,2.66-1.7.23-2,.6-2.16,2.75-2.22.93-4.39,2-6.52,3.12a6.29,6.29,0,0,1-.94.46c-1.92.67-3.58,1.88-5.45,2.65l-1.45-.06A18.57,18.57,0,0,0,88.29,38c.94,1.25,2.16,2.34,2,4.09l-1,.42A12.25,12.25,0,0,0,84.86,45c-.91.9-1.81,1.84-2.82,2.67a14,14,0,0,0-2.21,2.21c-1,1.27-2.18,2.27-3.13,3.54a5.46,5.46,0,0,0-1.28,3.14A31.23,31.23,0,0,0,76.28,66.29Z" transform="translate(-0.19 -0.19)" style="fill:#f7f6f2"/><path d="M107,35.23c.16-2.15.46-2.52,2.16-2.75a2,2,0,0,1,1.6.92c.83,1.46,2.32,1.77,3.66,2,2.75.52,4.19,2.59,5.8,4.45a4.92,4.92,0,0,1,.68,2.32,14,14,0,0,0,2.57,5.4,8.27,8.27,0,0,1,1.68,3.59c.2,1.2-.05,1.55-1.29,1.55a67.14,67.14,0,0,1-9.69-1c-.84-.13-1.69-.05-2.53-.26-.65-.17-.48.36-.47.74a46.53,46.53,0,0,0,1,8.08A10.09,10.09,0,0,1,110.6,68c-1.12,1.75-2.36,3.4-3.64,5a17,17,0,0,1-7.32,5.17,21.25,21.25,0,0,1-13.58,1c-.88-.24-1.15,0-1.11.88a23.37,23.37,0,0,0,.25,4.65A3.59,3.59,0,0,1,85,86.39c-.84,3.45-1.36,7-2.94,10.25-.35.73-.48.91-1.19.34-2.12-1.69-4.3-3.31-6.47-4.94a13,13,0,0,0-1.22-.75c.42-.49,1.06-.41,1.5-.71s1.18-.35.85-1.07A1.15,1.15,0,0,0,74,89a21,21,0,0,0-2.92,1.27,12.57,12.57,0,0,1-3.68,1.55c-.43.1-.53,0-.73-.4-1-2.08-2-4.12-3-6.18-.94-1.89-1.84-3.81-2.89-5.65-.52-.91-.32-1.19.8-1.13,5.19.29,10.4,0,15.6.19a3.76,3.76,0,0,0,2.94-1.19c.2-.21.42-.37.31-.72a10.69,10.69,0,0,0-1.5-3.7,17.47,17.47,0,0,1-1.82-3,3.32,3.32,0,0,1-.42-1.72,3.38,3.38,0,0,0-.41-2,31.23,31.23,0,0,1-.86-9.77,5.46,5.46,0,0,1,1.28-3.14c1-1.27,2.18-2.27,3.13-3.54A14,14,0,0,1,82,47.63c1-.83,1.91-1.77,2.82-2.67a12.25,12.25,0,0,1,4.47-2.48l1-.42,2.37-.66,1.45.06c.24.06.47.14.7.19,3.24.77,6.58,1.16,9.67,2.49a18,18,0,0,1,1.75.74c1,.56,1.11.08,1-.77-.09-1.09-.16-2.18-.18-3.27C107.06,39,107.05,37.1,107,35.23Z" transform="translate(-0.19 -0.19)" style="fill:#d1b642"/><path d="M107,35.23c0,1.87,0,3.74.07,5.61,0,1.09.09,2.18.18,3.27.07.85,0,1.33-1,.77a18,18,0,0,0-1.75-.74c-3.09-1.33-6.43-1.72-9.67-2.49-.23,0-.46-.13-.7-.19,1.87-.77,3.53-2,5.45-2.65a6.29,6.29,0,0,0,.94-.46C102.64,37.22,104.81,36.16,107,35.23Z" transform="translate(-0.19 -0.19)" style="fill:#e7c2b3"/><path d="M92.67,41.4l-2.37.66c.15-1.75-1.07-2.84-2-4.09A18.57,18.57,0,0,1,92.67,41.4Z" transform="translate(-0.19 -0.19)" style="fill:#e7c4b7"/></g></svg>