<svg xmlns="http://www.w3.org/2000/svg" viewBox="0 0 150.04 150.05"><title>motiv9</title><g id="motiv9"><path d="M.21,114.94Q.21,58.12.19,1.3C.19.45.3.18,1.25.18q74,.06,148,0c.87,0,1,.19,1,1q0,74,0,148c0,.82-.1,1.06-1,1.06q-74,0-148.07,0c-.8,0-1-.19-1-1,0-7.61,0-15.22,0-22.83.63.69,1.57.76,2.35,1.15a6.83,6.83,0,0,0,7.11-1.26,8,8,0,0,0,1.7-8.57c-1-3-5.12-5.21-8.07-4.17C2.23,114,1.29,114.6.21,114.94Zm27.44-13.78a7.7,7.7,0,0,0-2.17,4.25,6.86,6.86,0,0,0,6.3,7.57,6.62,6.62,0,0,0,6.49-2.9,6.55,6.55,0,0,0,4.65-2.2,7.11,7.11,0,0,0-3-11.42,1.25,1.25,0,0,1-.13-.4c-.06-2.8-1.67-4.49-4.07-5.53a6.56,6.56,0,0,0-8.49,3.64,9.2,9.2,0,0,0,.42,6.82A.88.88,0,0,1,27.65,101.16ZM91.77,81.6a15,15,0,0,0,1.2-3c.53-3.43-.49-6.92-4.51-8.29a6.3,6.3,0,0,0-5.11.32,6.58,6.58,0,0,0-2.6,2.19,5.89,5.89,0,0,0-1.51,3.71A10,10,0,0,0,77,79.56a7.64,7.64,0,0,0,.89,7.36,6.55,6.55,0,0,0,8,1.83,7.08,7.08,0,0,0,3.73-4.61C90.63,83.53,91.59,82.89,91.77,81.6Zm10.7-54c-.51.72-1,1.42-1.53,2.16-2.15,3.22-.23,8.18,3.07,9.58a8.77,8.77,0,0,0,4.57.47c2-.21,3.12-1.41,4.17-2.87,1.2-1.67,1.21-3.57,1.13-5.49a5.66,5.66,0,0,0,1.22-2.19c1.89-4.32-.6-9.82-6-9.87A6.84,6.84,0,0,0,102.47,27.57ZM19,48.19a10.81,10.81,0,0,0,1.87,2.25,6.62,6.62,0,0,0,10.42-1.87c2-4.11.55-8.91-4.7-10.4a6.47,6.47,0,0,0-7.5-3.25c-3.59.84-4.9,3.4-5,6.68C14.08,44.61,15.73,47.67,19,48.19Zm14.11,80.24c.39.94.26,2.07.92,2.9a6.61,6.61,0,0,0,3.85,2.72,7.27,7.27,0,0,0,5.7-.87c2.47-1.67,3.51-6.16,2.15-8.87a6.16,6.16,0,0,0-4.08-3.51,7.76,7.76,0,0,0-7,1.9c-1,1-1.08,2.24-1.56,3.39-1-2.53-2.32-4.57-5.24-5.29a7.2,7.2,0,0,0-8.8,7.76,6.55,6.55,0,0,0,4.8,5.82,6.68,6.68,0,0,0,7-1.68A8.3,8.3,0,0,0,33.11,128.43Zm96.37-42a8.77,8.77,0,0,0,1.5-1.62c1.57-2.93,2-7.13-1.34-10.37a7.28,7.28,0,0,0-6.4-1.44,8,8,0,0,0-4.46,4.69A6.52,6.52,0,0,0,117.09,81,6.9,6.9,0,0,0,120.37,88a6.3,6.3,0,0,0,6,.64C127.55,88.16,128.94,87.85,129.48,86.46Zm-64-16.76a7.49,7.49,0,0,0,5.09-2,7.17,7.17,0,1,0-12-7.21,16.24,16.24,0,0,0-.18,3.27c-.65-.08-1.4.37-1.93-.12a5.68,5.68,0,0,0-2.67-1.2,7.14,7.14,0,0,0-5.69.83,5.83,5.83,0,0,0-2.49,4c-.46,2.59-.11,5,1.87,6.93A6.41,6.41,0,0,0,52.78,76a1.56,1.56,0,0,1,1.4.3,4.14,4.14,0,0,0,2.67,1.13c2.74.31,5.26.1,7.1-2.42A8.21,8.21,0,0,0,65.45,69.7ZM84.12,47.81c-3.37-.1-5.25,1-6.46,3.93a7.69,7.69,0,0,0,.15,6.18,5.21,5.21,0,0,0,2,2.43,7.67,7.67,0,0,0,5.11,1,6,6,0,0,0,4.63-3.17,7.46,7.46,0,0,0,.3-6.27c-.3-.71-.1-.94.71-.85a7,7,0,0,0,6.59-2.49,6.44,6.44,0,0,0,1.34-3.27,6.62,6.62,0,0,0-1-5.07c-1.73-2.46-4.15-3.25-7.14-2.84-4.08.56-6.31,5.4-5.11,8.82C85.77,47.83,85.77,47.84,84.12,47.81Zm53.95,67.87c-.23-4-2.9-7.72-7.41-7.65a6.8,6.8,0,0,0-6.78,7,7.66,7.66,0,0,0,7.56,7.58A6.7,6.7,0,0,0,138.07,115.68ZM13.39,15.62c.44,4.09,2.84,6.58,6.91,6.55,4.25,0,7.51-2.46,7.5-7.27a6.69,6.69,0,0,0-6.91-6.61A7.29,7.29,0,0,0,13.39,15.62ZM113,119.4a6.54,6.54,0,0,0,6.62-6.69,7.15,7.15,0,0,0-7.19-7.45c-4.15,0-6.82,2.61-6.92,6.64C105.36,116.28,108.23,119.36,113,119.4ZM51.82,133c-3.82-.29-6.86,3.15-7.36,6.19a7,7,0,0,0,12.82,4.71,6.88,6.88,0,0,0,.83-6.93A6.09,6.09,0,0,0,51.82,133Zm60.8.8a6.46,6.46,0,0,0-6.48-7.08c-4.42,0-7,2.84-7.1,7-.07,4.53,2.7,7,6.6,7.31C109.11,141.32,113.2,138.17,112.62,133.81ZM79.87,125.5c-.15-4-2.65-6.91-6.7-7-4.49,0-7.16,3.14-7,7.27.19,4.46,2.7,6.75,6.73,6.83C77.16,132.74,79.69,130,79.87,125.5ZM65.44,23a7,7,0,0,0,.18-14.06,7.13,7.13,0,0,0-7.1,6.93A7.15,7.15,0,0,0,65.44,23Zm-11,17.12c-.4,4.14,3.25,7,7,7s6.76-3.13,6.82-7.17a6.92,6.92,0,0,0-13.84.15Zm72.88,7.12a6.72,6.72,0,0,0-6.63-7,7.24,7.24,0,0,0-7.25,7.41,7,7,0,0,0,6.9,6.63A7.11,7.11,0,0,0,127.27,47.19Zm7.66-14.51a6.9,6.9,0,0,0-6.63-7.14,7,7,0,0,0-7.21,6.94,7.21,7.21,0,0,0,6.78,7.19A7.07,7.07,0,0,0,134.93,32.68Zm-99.26,2a6.73,6.73,0,0,0,7,7,6.93,6.93,0,1,0-.28-13.85C39.11,27.82,35.24,30.9,35.67,34.73ZM17,78.82c-4.21,0-6.86,2.74-6.95,6.52-.09,4.27,2.66,7,6.81,7.09,4.58,0,7-2.91,7.06-6.62C24,81.55,21.33,79,17,78.82Zm27.85-19a6.65,6.65,0,0,0-6.64-7.14,6.86,6.86,0,0,0-7,7,7.17,7.17,0,0,0,6.55,7.07C41.57,66.94,45.24,63.44,44.84,59.86Zm83.91,77.07c0,4.45,2.81,7,6.56,7.06,3.4,0,6.68-2.44,6.62-7.1-.05-4.46-3.05-6.92-6.76-6.79C131.22,130.25,128.9,132.66,128.75,136.93ZM73.09,104.42c0-3.81-1-5.55-4.22-6.74a6.51,6.51,0,0,0-6.72,1.23,5.34,5.34,0,0,0-1.9,3.54c-.31,2.09-.31,4.2,1,6a5.63,5.63,0,0,0,4.26,2.44c2.39.13,4.54-.06,6.19-2.16A6,6,0,0,0,73.09,104.42Z" transform="translate(-0.19 -0.18)" style="fill:#9dbaa4"/><path d="M.21,114.94c1.08-.34,2-1,3.09-1.37,3-1,7,1.14,8.07,4.17a8,8,0,0,1-1.7,8.57,6.83,6.83,0,0,1-7.11,1.26c-.78-.39-1.72-.46-2.35-1.15Z" transform="translate(-0.19 -0.18)" style="fill:#e1b4b7"/><path d="M84.12,47.81c1.65,0,1.65,0,1.09-1.57-1.2-3.42,1-8.26,5.11-8.82,3-.41,5.41.38,7.14,2.84a6.62,6.62,0,0,1,1,5.07,6.44,6.44,0,0,1-1.34,3.27,7,7,0,0,1-6.59,2.49c-.81-.09-1,.14-.71.85a7.46,7.46,0,0,1-.3,6.27,6,6,0,0,1-4.63,3.17,7.67,7.67,0,0,1-5.11-1,5.21,5.21,0,0,1-2-2.43,7.69,7.69,0,0,1-.15-6.18C78.87,48.83,80.75,47.71,84.12,47.81Z" transform="translate(-0.19 -0.18)" style="fill:#ebd99c"/><path d="M65.45,69.7A8.21,8.21,0,0,1,64,75c-1.84,2.52-4.36,2.73-7.1,2.42a4.14,4.14,0,0,1-2.67-1.13,1.56,1.56,0,0,0-1.4-.3,6.41,6.41,0,0,1-5.29-1.85c-2-2-2.33-4.34-1.87-6.93a5.83,5.83,0,0,1,2.49-4,7.14,7.14,0,0,1,5.69-.83,5.68,5.68,0,0,1,2.67,1.2c.53.49,1.28,0,1.93.12,2.85-.07,6.63,2,6.85,5.38A2.23,2.23,0,0,0,65.45,69.7Z" transform="translate(-0.19 -0.18)" style="fill:#2694c4"/><path d="M138.07,115.68a6.7,6.7,0,0,1-6.63,7,7.66,7.66,0,0,1-7.56-7.58,6.8,6.8,0,0,1,6.78-7C135.17,108,137.84,111.66,138.07,115.68Z" transform="translate(-0.19 -0.18)" style="fill:#d64a20"/><path d="M118.78,77.72A8,8,0,0,1,123.24,73a7.28,7.28,0,0,1,6.4,1.44c3.37,3.24,2.91,7.44,1.34,10.37a8.77,8.77,0,0,1-1.5,1.62c-.74.33-1.46.71-2.21,1-3.49,1.3-7.74-1.4-8.43-4.5A13.54,13.54,0,0,1,118.78,77.72Z" transform="translate(-0.19 -0.18)" style="fill:#93c4c8"/><path d="M13.39,15.62a7.29,7.29,0,0,1,7.5-7.33A6.69,6.69,0,0,1,27.8,14.9c0,4.81-3.25,7.23-7.5,7.27C16.23,22.2,13.83,19.71,13.39,15.62Z" transform="translate(-0.19 -0.18)" style="fill:#e1b4b7"/><path d="M113,119.4c-4.72,0-7.59-3.12-7.49-7.5.1-4,2.77-6.65,6.92-6.64a7.15,7.15,0,0,1,7.19,7.45A6.54,6.54,0,0,1,113,119.4Z" transform="translate(-0.19 -0.18)" style="fill:#e1b4b7"/><path d="M51.82,133a6.09,6.09,0,0,1,6.29,4,6.88,6.88,0,0,1-.83,6.93,7,7,0,0,1-12.82-4.71C45,136.16,48,132.72,51.82,133Z" transform="translate(-0.19 -0.18)" style="fill:#94c4c8"/><path d="M112.62,133.81c.58,4.36-3.51,7.51-7,7.25-3.9-.3-6.67-2.78-6.6-7.31.07-4.18,2.68-7,7.1-7A6.46,6.46,0,0,1,112.62,133.81Z" transform="translate(-0.19 -0.18)" style="fill:#e1b4b7"/><path d="M33.11,128.43a8.3,8.3,0,0,1-2.19,4.27,6.68,6.68,0,0,1-7,1.68,6.55,6.55,0,0,1-4.8-5.82,7.2,7.2,0,0,1,8.8-7.76c2.92.72,4.27,2.76,5.24,5.29C33.13,126.87,33.12,127.65,33.11,128.43Z" transform="translate(-0.19 -0.18)" style="fill:#2794c4"/><path d="M79.87,125.5c-.18,4.45-2.71,7.24-7,7.15-4-.08-6.54-2.37-6.73-6.83-.18-4.13,2.49-7.31,7-7.27C77.22,118.59,79.72,121.51,79.87,125.5Z" transform="translate(-0.19 -0.18)" style="fill:#ebd99c"/><path d="M65.44,23a7.15,7.15,0,0,1-6.92-7.13,7.13,7.13,0,0,1,7.1-6.93A7,7,0,0,1,65.44,23Z" transform="translate(-0.19 -0.18)" style="fill:#d64a20"/><path d="M54.39,40.07a6.92,6.92,0,0,1,13.84-.15c-.06,4-3,7.17-6.82,7.17S54,44.21,54.39,40.07Z" transform="translate(-0.19 -0.18)" style="fill:#8aa062"/><path d="M127.27,47.19a7.11,7.11,0,0,1-7,7,7,7,0,0,1-6.9-6.63,7.24,7.24,0,0,1,7.25-7.41A6.72,6.72,0,0,1,127.27,47.19Z" transform="translate(-0.19 -0.18)" style="fill:#8aa062"/><path d="M134.93,32.68a7.07,7.07,0,0,1-7.06,7,7.21,7.21,0,0,1-6.78-7.19,7,7,0,0,1,7.21-6.94A6.9,6.9,0,0,1,134.93,32.68Z" transform="translate(-0.19 -0.18)" style="fill:#4ba0bc"/><path d="M35.67,34.73c-.43-3.83,3.44-6.91,6.77-6.9a6.93,6.93,0,1,1,.28,13.85A6.73,6.73,0,0,1,35.67,34.73Z" transform="translate(-0.19 -0.18)" style="fill:#2794c4"/><path d="M26.59,38.17c5.25,1.49,6.73,6.29,4.7,10.4a6.62,6.62,0,0,1-10.42,1.87A10.81,10.81,0,0,1,19,48.19c-.13-.62-.26-1.24-.41-1.86A6.68,6.68,0,0,1,19.1,42,7.05,7.05,0,0,1,26.59,38.17Z" transform="translate(-0.19 -0.18)" style="fill:#d64a20"/><path d="M113.88,31.42c.08,1.92.07,3.82-1.13,5.49-1,1.46-2.19,2.66-4.17,2.87a8.77,8.77,0,0,1-4.57-.47c-3.3-1.4-5.22-6.36-3.07-9.58.49-.74,1-1.44,1.53-2.16.54-.26,1.08-.5,1.6-.79a6.83,6.83,0,0,1,7.9,1.3C112.93,29,113.26,30.3,113.88,31.42Z" transform="translate(-0.19 -0.18)" style="fill:#94c4c8"/><path d="M17,78.82c4.34.17,7,2.73,6.92,7,0,3.71-2.48,6.67-7.06,6.62-4.15,0-6.9-2.82-6.81-7.09C10.13,81.56,12.78,78.86,17,78.82Z" transform="translate(-0.19 -0.18)" style="fill:#ebd99c"/><path d="M44.84,59.86c.4,3.58-3.27,7.08-7.07,6.9a7.17,7.17,0,0,1-6.55-7.07,6.86,6.86,0,0,1,7-7A6.65,6.65,0,0,1,44.84,59.86Z" transform="translate(-0.19 -0.18)" style="fill:#94c4c8"/><path d="M128.75,136.93c.15-4.27,2.47-6.68,6.42-6.83,3.71-.13,6.71,2.33,6.76,6.79.06,4.66-3.22,7.14-6.62,7.1C131.56,143.94,128.76,141.38,128.75,136.93Z" transform="translate(-0.19 -0.18)" style="fill:#8aa062"/><path d="M33.11,128.43c0-.78,0-1.56,0-2.34.48-1.15.57-2.4,1.56-3.39a7.76,7.76,0,0,1,7-1.9,6.16,6.16,0,0,1,4.08,3.51c1.36,2.71.32,7.2-2.15,8.87a7.27,7.27,0,0,1-5.7.87A6.61,6.61,0,0,1,34,131.33C33.37,130.5,33.5,129.37,33.11,128.43Z" transform="translate(-0.19 -0.18)" style="fill:#d64a20"/><path d="M89.63,84.14a7.08,7.08,0,0,1-3.73,4.61,6.55,6.55,0,0,1-8-1.83A7.64,7.64,0,0,1,77,79.56a10,10,0,0,1,2.26-3.07l.68-.28a6.7,6.7,0,0,1,9.11,3c.71,1.27.57,2.58.67,3.9Z" transform="translate(-0.19 -0.18)" style="fill:#ebd99c"/><path d="M73.09,104.42a6,6,0,0,1-1.34,4.28c-1.65,2.1-3.8,2.29-6.19,2.16a5.63,5.63,0,0,1-4.26-2.44c-1.36-1.77-1.36-3.88-1-6a5.34,5.34,0,0,1,1.9-3.54,6.51,6.51,0,0,1,6.72-1.23C72,98.87,73.09,100.61,73.09,104.42Z" transform="translate(-0.19 -0.18)" style="fill:#94c4c8"/><path d="M65.45,69.7a2.23,2.23,0,0,1-.2-.6c-.22-3.38-4-5.45-6.85-5.38a16.24,16.24,0,0,1,.18-3.27,7.17,7.17,0,1,1,12,7.21A7.49,7.49,0,0,1,65.45,69.7Z" transform="translate(-0.19 -0.18)" style="fill:#4ba0bc"/><path d="M27.63,101a9.2,9.2,0,0,1-.42-6.82,6.56,6.56,0,0,1,8.49-3.64c2.4,1,4,2.73,4.07,5.53a1.25,1.25,0,0,0,.13.4c-.06.81-.06,1.62-.18,2.42a4.17,4.17,0,0,1-1.9,3.09c-.52-1.52-2-1.83-3.2-2.29C32.07,98.73,29.79,99.65,27.63,101Z" transform="translate(-0.19 -0.18)" style="fill:#e0b4b7"/><path d="M37.82,102a4.17,4.17,0,0,0,1.9-3.09c.12-.8.12-1.61.18-2.42a7.11,7.11,0,0,1,3,11.42,6.55,6.55,0,0,1-4.65,2.2,6.88,6.88,0,0,1-7.47-6.41,9.64,9.64,0,0,0,3.25.21C35.53,103.72,37,103.38,37.82,102Z" transform="translate(-0.19 -0.18)" style="fill:#2794c4"/><path d="M113.88,31.42c-.62-1.12-.95-2.43-1.91-3.34a6.83,6.83,0,0,0-7.9-1.3c-.52.29-1.06.53-1.6.79a6.84,6.84,0,0,1,6.64-8.21c5.39.05,7.88,5.55,6,9.87A5.66,5.66,0,0,1,113.88,31.42Z" transform="translate(-0.19 -0.18)" style="fill:#d54b21"/><path d="M89.7,83.11c-.1-1.32,0-2.63-.67-3.9a6.7,6.7,0,0,0-9.11-3l-.68.28a5.89,5.89,0,0,1,1.51-3.71,6.58,6.58,0,0,1,2.6-2.19,6.3,6.3,0,0,1,5.11-.32c4,1.37,5,4.86,4.51,8.29a15,15,0,0,1-1.2,3C90.94,81.91,90.53,82.8,89.7,83.11Z" transform="translate(-0.19 -0.18)" style="fill:#94c4c8"/><path d="M26.59,38.17A7.05,7.05,0,0,0,19.1,42a6.68,6.68,0,0,0-.51,4.33c.15.62.28,1.24.41,1.86-3.27-.52-4.92-3.58-4.87-6.59.06-3.28,1.37-5.84,5-6.68A6.47,6.47,0,0,1,26.59,38.17Z" transform="translate(-0.19 -0.18)" style="fill:#2894c4"/><path d="M30.8,103.67a6.88,6.88,0,0,0,7.47,6.41,6.62,6.62,0,0,1-6.49,2.9,6.86,6.86,0,0,1-6.3-7.57,7.7,7.7,0,0,1,2.17-4.25A12.54,12.54,0,0,0,30.8,103.67Z" transform="translate(-0.19 -0.18)" style="fill:#4ba0bc"/><path d="M30.8,103.67a12.54,12.54,0,0,1-3.15-2.51.88.88,0,0,0,0-.17c2.16-1.34,4.44-2.26,7-1.31,1.24.46,2.68.77,3.2,2.29-.86,1.41-2.29,1.75-3.77,1.91A9.64,9.64,0,0,1,30.8,103.67Z" transform="translate(-0.19 -0.18)" style="fill:#5f9fc1"/><path d="M118.78,77.72a13.54,13.54,0,0,0,.06,5.23c.69,3.1,4.94,5.8,8.43,4.5.75-.28,1.47-.66,2.21-1-.54,1.39-1.93,1.7-3.07,2.19a6.3,6.3,0,0,1-6-.64A6.9,6.9,0,0,1,117.09,81,6.52,6.52,0,0,1,118.78,77.72Z" transform="translate(-0.19 -0.18)" style="fill:#2a96c4"/><path d="M89.7,83.11c.83-.31,1.24-1.2,2.07-1.51-.18,1.29-1.14,1.93-2.14,2.54Z" transform="translate(-0.19 -0.18)" style="fill:#2a96c4"/></g></svg>