<svg xmlns="http://www.w3.org/2000/svg" viewBox="0 0 150.03 150.07"><title>motiv2</title><g id="motiv2"><path d="M.21,150.2q0-74.4,0-148.82c0-.8.18-1,1-1Q75.58.44,150,.42q0,74.25,0,148.5c0,1.06-.25,1.31-1.31,1.31Q74.46,150.19.21,150.2Zm82.1-23.74c.1-4.35,0-8.68-1.38-12.87a7.4,7.4,0,0,1-.75-2.3,40,40,0,0,1,6.42-.62,16.84,16.84,0,0,0-2.25-2.44c-1.88-1.94-3.76-3.89-5.71-5.76-1.3-1.25-1.31-2.44.14-3.53,2.91-2.2,5.8-4.42,8.76-6.56q3.57-2.58,7.09-5.26c3.4-2.58,6.86-5.1,10.23-7.73a2,2,0,0,0,.75-1.06c1.17-3.66,2-7.41,3-11.1.31-1.12.79-2.21,1-3.35.63-3.58,2-7,2.73-10.52.38-1.79,1.11-3.5,1.49-5.29.8-3.8,2.1-7.45,2.93-11.23.09-.42.29-.83,0-1.22-.72-.95-1.13-2.08-1.84-3.06-1.12-1.52-2-3.24-3-4.81-1.21-1.81-2.17-3.78-3.36-5.59-1-1.56-2-3.16-2.94-4.74a1.31,1.31,0,0,0-1.61-.78c-3.26.42-6.51.9-9.78,1.18-4,.34-8,.8-12,1.29a1.6,1.6,0,0,0-1.36.82c-1.13,2-2.32,3.91-3.45,5.89-1.27,2.21-2.81,4.24-4.09,6.45-1.47,2.52-3,5-4.49,7.5-.43.74-.76.79-1.47.37-1.82-1.08-3.68-2.07-5.54-3.06s-3.48-1.8-5.22-2.71c-2.3-1.21-4.57-2.48-6.9-3.64-2.6-1.29-5.28-2.44-7.87-3.76a5.18,5.18,0,0,0-6.26.58,6.2,6.2,0,0,1-1.24.79c-1.78.91-3.4,2.07-5.1,3.11s-3.66,2.22-5.45,3.4c-1.37.91-3,1.67-2.79,3.81a1,1,0,0,1-.09.41c-.71,2.91-1.64,5.76-2.22,8.7-.46,2.28-1.23,4.49-1.77,6.76-.25,1-.65,2.18.43,3a22.29,22.29,0,0,1,2.82,3.24c2.63,3,5.13,6.13,7.7,9.18,1.62,1.92,3.3,3.8,4.93,5.71,2.26,2.63,4.5,5.29,6.73,8,.89,1,1.8,2.15,2.71,3.2s1.69,2.38,3.32,3c3.62,1.33,7.19,2.8,10.77,4.26,2.44,1,4.94,1.86,7.32,3a16.67,16.67,0,0,0,2,.87c2.72.86,5.27,2.13,7.95,3.11a3.79,3.79,0,0,1,1.58.82c.47.55-.26,1.08-.4,1.63-.62,2.57-1,5.17-1.57,7.76-.14.72.06.85.75.75,1.92-.25,3.85-.44,5.78-.65a39.93,39.93,0,0,1,2,8.72c.17,2.18-.06,4.38.4,6.54a6.43,6.43,0,0,0,2.52,4.88,9.05,9.05,0,0,0,5.08,2.53c5.31,2,12.77,1.95,15.3-.18a3.23,3.23,0,0,0-1.65.25,18,18,0,0,1-11,.32,6.19,6.19,0,0,0-2.65-.57c-.7-.33-1.43-.61-2.1-1a8.52,8.52,0,0,1-5.33-6.44Zm32.25,3c-3.39.67-6.19,2.58-9.24,4.28a1.47,1.47,0,0,0,1.45-.22c.63-.38,1.19-.89,1.85-1.21,2-.93,4-1.8,5.95-2.69a5.54,5.54,0,0,0,1.76-.2,29,29,0,0,1,5.72-.88c3.18-.19,6.21.62,9.27,1.2a39.09,39.09,0,0,1,6.42,3.09,30.27,30.27,0,0,1,5.48,4.41c1.62,1.68,2.93,3.61,4.39,5.44a11.24,11.24,0,0,0-1.79-2.93,24.79,24.79,0,0,0-5.25-5.47,29.71,29.71,0,0,0-7.22-4.24,3.29,3.29,0,0,0-2-.42,2.24,2.24,0,0,0-1.21-.55A25.87,25.87,0,0,0,114.56,129.47Z" transform="translate(-0.19 -0.4)" style="fill:#d64a1f"/><path d="M.21,150.2q74.25,0,148.5,0c1.06,0,1.31-.25,1.31-1.31q0-74.25,0-148.5c.07,0,.22-.1.22.11s0,.57,0,.85q0,74,0,148.08c0,.8-.17,1-1,1q-74,0-148.08,0C.86,150.4.45,150.65.21,150.2Z" transform="translate(-0.19 -0.4)" style="fill:#fefefe"/><path d="M79.77,111.39c-1.93.21-3.86.4-5.78.65-.69.1-.89,0-.75-.75.52-2.59,1-5.19,1.57-7.76.14-.55.87-1.08.4-1.63a3.79,3.79,0,0,0-1.58-.82c-2.68-1-5.23-2.25-7.95-3.11a16.67,16.67,0,0,1-2-.87c-2.38-1.15-4.88-2-7.32-3-3.58-1.46-7.15-2.93-10.77-4.26-1.63-.61-2.38-1.91-3.32-3s-1.82-2.15-2.71-3.2c-2.23-2.66-4.47-5.32-6.73-8-1.63-1.91-3.31-3.79-4.93-5.71-2.57-3-5.07-6.17-7.7-9.18a22.29,22.29,0,0,0-2.82-3.24c-1.08-.85-.68-2-.43-3,.54-2.27,1.31-4.48,1.77-6.76.58-2.94,1.51-5.79,2.22-8.7a1,1,0,0,0,.09-.41c-.25-2.14,1.42-2.9,2.79-3.81,1.79-1.18,3.62-2.29,5.45-3.4s3.32-2.2,5.1-3.11a6.2,6.2,0,0,0,1.24-.79A5.18,5.18,0,0,1,41.83,27c2.59,1.32,5.27,2.47,7.87,3.76,2.33,1.16,4.6,2.43,6.9,3.64,1.74.91,3.49,1.79,5.22,2.71s3.72,2,5.54,3.06c.71.42,1,.37,1.47-.37,1.44-2.53,3-5,4.49-7.5,1.28-2.21,2.82-4.24,4.09-6.45,1.13-2,2.32-3.92,3.45-5.89a1.6,1.6,0,0,1,1.36-.82c4-.49,8-.95,12-1.29,3.27-.28,6.52-.76,9.78-1.18a1.31,1.31,0,0,1,1.61.78c1,1.58,1.92,3.18,2.94,4.74,1.19,1.81,2.15,3.78,3.36,5.59,1.07,1.57,1.91,3.29,3,4.81.71,1,1.12,2.11,1.84,3.06.29.39.09.8,0,1.22-.83,3.78-2.13,7.43-2.93,11.23-.38,1.79-1.11,3.5-1.49,5.29-.76,3.55-2.1,6.94-2.73,10.52-.2,1.14-.68,2.23-1,3.35-1,3.69-1.86,7.44-3,11.1a2,2,0,0,1-.75,1.06C101.49,82,98,84.54,94.63,87.12q-3.51,2.67-7.09,5.26c-3,2.14-5.85,4.36-8.76,6.56-1.45,1.09-1.44,2.28-.14,3.53,2,1.87,3.83,3.82,5.71,5.76a16.84,16.84,0,0,1,2.25,2.44,40,40,0,0,0-6.42.62Z" transform="translate(-0.19 -0.4)" style="fill:#e7c2b2"/><path d="M131.32,129.63a3.29,3.29,0,0,1,2,.42,29.71,29.71,0,0,1,7.22,4.24,24.79,24.79,0,0,1,5.25,5.47,11.24,11.24,0,0,1,1.79,2.93c-1.46-1.83-2.77-3.76-4.39-5.44a30.27,30.27,0,0,0-5.48-4.41,39.09,39.09,0,0,0-6.42-3.09Z" transform="translate(-0.19 -0.4)" style="fill:#1c0905"/><path d="M131.32,129.63v.12c-3.06-.58-6.09-1.39-9.27-1.2a29,29,0,0,0-5.72.88,5.54,5.54,0,0,1-1.76.2.81.81,0,0,1,0-.16,25.87,25.87,0,0,1,15.55-.39A2.24,2.24,0,0,1,131.32,129.63Z" transform="translate(-0.19 -0.4)" style="fill:#1c0a05"/><path d="M89.74,133.88a6.19,6.19,0,0,1,2.65.57,18,18,0,0,0,11-.32,3.23,3.23,0,0,1,1.65-.25c-2.53,2.13-10,2.21-15.3.18Z" transform="translate(-0.19 -0.4)" style="fill:#180904"/><path d="M79.77,111.39l.41-.1a7.4,7.4,0,0,0,.75,2.3c1.4,4.19,1.48,8.52,1.38,12.87l-.17.19c-.46-2.16-.23-4.36-.4-6.54A39.93,39.93,0,0,0,79.77,111.39Z" transform="translate(-0.19 -0.4)" style="fill:#1b0904"/><path d="M82.14,126.65l.17-.19a8.52,8.52,0,0,0,5.33,6.44c.67.37,1.4.65,2.1,1v.18a9.05,9.05,0,0,1-5.08-2.53A6.43,6.43,0,0,1,82.14,126.65Z" transform="translate(-0.19 -0.4)" style="fill:#210b07"/><path d="M114.56,129.47a.81.81,0,0,0,0,.16c-2,.89-4,1.76-5.95,2.69-.66.32-1.22.83-1.85,1.21a1.47,1.47,0,0,1-1.45.22C108.37,132.05,111.17,130.14,114.56,129.47Z" transform="translate(-0.19 -0.4)" style="fill:#1d0a06"/></g></svg>