<svg xmlns="http://www.w3.org/2000/svg" viewBox="0 0 150.04 150.04"><title>motiv11</title><g id="motiv11"><path d="M150.21,75.21q0,37.08,0,74.15c0,.73-.14.87-.87.87q-74.15,0-148.3,0c-.73,0-.87-.14-.87-.87q0-74.15,0-148.3c0-.73.14-.87.87-.87q74.16,0,148.3,0c.73,0,.87.14.87.87Q150.2,38.14,150.21,75.21ZM72.73,28.27c-1.31.21-2.64.45-4,.62a32,32,0,0,0-10.61,2.78,9.31,9.31,0,0,1-1.74.77,22.62,22.62,0,0,0-5.82,2.49c-2.72,1.6-5.26,3.53-7.84,5.37-.91.65-2,1.12-2.28,2.45a56.6,56.6,0,0,1-2.87,7.38q-1.66,4.23-3.39,8.46c-1.1,2.7-2.05,5.48-3.27,8.13a12.34,12.34,0,0,0-1.18,7.64c.8,4.38,1.76,8.73,2.3,13.16.3,2.45.89,4.87,1.36,7.3a5,5,0,0,0,1,2.74A31.26,31.26,0,0,1,37.09,101c1.83,2.49,3.82,4.86,5.7,7.32,1.19,1.56,2.48,3.09,3.69,4.64a7,7,0,0,0,3,2.19c2,.88,3.92,2,5.9,2.86,2.64,1.22,5.17,2.71,8.19,3,1.4.13,2.82.22,4.21.44,5.34.85,10.67,1.8,16,2.39a2.7,2.7,0,0,0,.94,0A47.21,47.21,0,0,0,90,122.61c2.66-.91,5.72-.87,7.75-3.26a.59.59,0,0,1,.19-.11c1.4-.62,2.4-1.8,3.64-2.66,2.75-1.89,5.35-4,8.06-6a13.53,13.53,0,0,0,3.72-3.41c1.44-2.24,3.05-4.37,4.55-6.58s3.26-4.26,3.85-7a31.9,31.9,0,0,1,1-3.66c1.08-3.18,1.87-6.45,2.94-9.63a3.39,3.39,0,0,0,.12-1.46c-.21-1.89-.3-3.8-.52-5.7-.56-5-.58-10-1.1-14.92a4.07,4.07,0,0,0-.71-2.18q-1.56-2.06-3-4.22c-.93-1.41-2-2.74-2.86-4.18-1.1-1.76-2.34-3.43-3.54-5.12-1-1.36-1.78-2.92-3.56-3.47a50.11,50.11,0,0,1-6.08-2.72c-3.57-1.64-7.17-3.26-10.72-5a6.84,6.84,0,0,0-2.13-.6c-3.74-.48-7.52-.78-11.25-1.43C77.87,28.94,75.3,28.64,72.73,28.27Z" transform="translate(-0.19 -0.19)" style="fill:#9dbaa4"/><path d="M72.73,28.27c2.57.37,5.14.67,7.68,1.11,3.73.65,7.51.95,11.25,1.43a6.84,6.84,0,0,1,2.13.6c3.55,1.71,7.15,3.33,10.72,5a50.11,50.11,0,0,0,6.08,2.72c1.78.55,2.58,2.11,3.56,3.47,1.2,1.69,2.44,3.36,3.54,5.12.89,1.44,1.93,2.77,2.86,4.18s1.94,2.85,3,4.22a4.07,4.07,0,0,1,.71,2.18c.52,5,.54,10,1.1,14.92.22,1.9.31,3.81.52,5.7a3.39,3.39,0,0,1-.12,1.46c-1.07,3.18-1.86,6.45-2.94,9.63a31.9,31.9,0,0,0-1,3.66c-.59,2.72-2.36,4.77-3.85,7s-3.11,4.34-4.55,6.58a13.53,13.53,0,0,1-3.72,3.41c-2.71,2-5.31,4.08-8.06,6-1.24.86-2.24,2-3.64,2.66a.59.59,0,0,0-.19.11c-2,2.39-5.09,2.35-7.75,3.26a47.21,47.21,0,0,1-5.27,1.18,2.7,2.7,0,0,1-.94,0c-5.38-.59-10.71-1.54-16-2.39-1.39-.22-2.81-.31-4.21-.44-3-.29-5.55-1.78-8.19-3-2-.91-3.9-2-5.9-2.86a7,7,0,0,1-3-2.19c-1.21-1.55-2.5-3.08-3.69-4.64-1.88-2.46-3.87-4.83-5.7-7.32a31.26,31.26,0,0,0-2.64-3.43,5,5,0,0,1-1-2.74c-.47-2.43-1.06-4.85-1.36-7.3-.54-4.43-1.5-8.78-2.3-13.16a12.34,12.34,0,0,1,1.18-7.64c1.22-2.65,2.17-5.43,3.27-8.13S36.49,53,37.6,50.13a56.6,56.6,0,0,0,2.87-7.38c.33-1.33,1.37-1.8,2.28-2.45,2.58-1.84,5.12-3.77,7.84-5.37a22.62,22.62,0,0,1,5.82-2.49,9.31,9.31,0,0,0,1.74-.77,32,32,0,0,1,10.61-2.78C70.09,28.72,71.42,28.48,72.73,28.27ZM100.83,113a.67.67,0,0,1,.11.18c.24.56.46.89,1.22.5s.37-.77.13-1.21a1.72,1.72,0,0,1-.14-.4c1.39-1.07,2.83-2.09,4.23-3.16,1.83-1.4,3.81-2.59,5.19-4.53.4-.55.6-1.2,1-1.71,2-2.32,3.37-5,5.28-7.38a2.34,2.34,0,0,0,.47-.93c.76-3,1.92-5.82,2.63-8.82.48-2,1.42-3.9,1.75-6,.23-1.5-.18-3-.16-4.43a60.06,60.06,0,0,0-.63-8c.77-.67.55-1.26-.16-1.8-.13-1.59-.34-3.17-.35-4.76a8.59,8.59,0,0,0-2.09-5.39c-1.31-1.65-2.32-3.54-3.58-5.23s-2.61-3.66-3.85-5.54c-.64-1-1.23-2.13-2.25-2.61-2-.94-4-1.88-6-2.79L97.27,36a27,27,0,0,0-6.14-2.47c-4.59-.87-9.27-1.06-13.87-1.82-2-.34-4-.78-6.1-.27-.83.21-1.69.26-2.52.43-2,.41-4,.36-5.91,1.11-1.41.55-2.79,1.18-4.2,1.72a33.29,33.29,0,0,0-6.44,2.91c-1.77,1.13-3.47,2.36-5.21,3.54s-3.53,2.08-4.09,4.32a10.16,10.16,0,0,1-.61,2c-1.42,3-2.56,6.13-3.76,9.22-.93,2.39-1.91,4.77-2.83,7.16s-1.66,4.58-2.72,6.77a1,1,0,0,0,0,.72c.83,3.77,1.2,7.61,1.89,11.4.52,2.85,1.19,5.66,1.46,8.56a7.55,7.55,0,0,0,1.21,4.12c1.49,1.91,2.93,3.85,4.42,5.75s2.93,3.79,4.44,5.66A29.91,29.91,0,0,1,48.73,110a5.12,5.12,0,0,0,1.73,1.64,45.35,45.35,0,0,0,4.12,1.93c2.2,1.12,4.43,2.19,6.65,3.28a2.17,2.17,0,0,0,.59.2l19.72,3a8.18,8.18,0,0,0,4.17,0,25.59,25.59,0,0,1,3.91-.93,14.69,14.69,0,0,0,5.06-1.51A54.94,54.94,0,0,0,100.83,113Z" transform="translate(-0.19 -0.19)" style="fill:#d2b02e"/><path d="M121.94,67.06a60.06,60.06,0,0,1,.63,8c0,1.48.39,2.93.16,4.43-.33,2.08-1.27,4-1.75,6-.71,3-1.87,5.85-2.63,8.82a2.34,2.34,0,0,1-.47.93c-1.91,2.35-3.32,5.06-5.28,7.38-.43.51-.63,1.16-1,1.71-1.38,1.94-3.36,3.13-5.19,4.53-1.4,1.07-2.84,2.09-4.23,3.16-.32-.78-.79-.6-1.36-.26-.76.44-.13.8,0,1.19a54.94,54.94,0,0,1-6.15,4.63,14.69,14.69,0,0,1-5.06,1.51,25.59,25.59,0,0,0-3.91.93,8.18,8.18,0,0,1-4.17,0l-19.72-3a2.17,2.17,0,0,1-.59-.2c-2.22-1.09-4.45-2.16-6.65-3.28a45.35,45.35,0,0,1-4.12-1.93A5.12,5.12,0,0,1,48.73,110a29.91,29.91,0,0,0-2.47-3.14c-1.51-1.87-2.95-3.78-4.44-5.66s-2.93-3.84-4.42-5.75a7.55,7.55,0,0,1-1.21-4.12c-.27-2.9-.94-5.71-1.46-8.56C34,79,33.67,75.14,32.84,71.37a1,1,0,0,1,0-.72c1.06-2.19,1.85-4.51,2.72-6.77s1.9-4.77,2.83-7.16c1.2-3.09,2.34-6.22,3.76-9.22a10.16,10.16,0,0,0,.61-2c.56-2.24,2.44-3.21,4.09-4.32s3.44-2.41,5.21-3.54a33.29,33.29,0,0,1,6.44-2.91c1.41-.54,2.79-1.17,4.2-1.72,1.91-.75,4-.7,5.91-1.11.83-.17,1.69-.22,2.52-.43,2.06-.51,4.08-.07,6.1.27,4.6.76,9.28,1,13.87,1.82A27,27,0,0,1,97.27,36l6.44,2.93c2,.91,4,1.85,6,2.79,1,.48,1.61,1.65,2.25,2.61,1.24,1.88,2.51,3.73,3.85,5.54s2.27,3.58,3.58,5.23a8.59,8.59,0,0,1,2.09,5.39c0,1.59.22,3.17.35,4.76-.38-.19-.58,0-.8.3-.38.46-.78.91-1.17,1.37s-.65.66-.07,1.12.9.5,1.34,0C121.35,67.67,121.65,67.37,121.94,67.06ZM55.83,44.37c.06.68.65,1.07.9,1.65.09.23.23.48.55.28s.26-.38.14-.64A8.33,8.33,0,0,0,56.54,44l-1-2.56c-.09-.25-.26-.44-.55-.39s-.26.35-.21.59A7.26,7.26,0,0,0,55.83,44.37Zm8.18,51c.47,0,1,0,.93-.66s-.16-1.32-.27-2c0-.26-.16-.49-.47-.47s-.45.28-.46.59,0,.91,0,1.37c-.26-.8-.49-1.6-.78-2.39-.12-.33-.19-.8-.78-.57s-.92.2-.8,1a32.06,32.06,0,0,0,1.49,4.6c.1.33.29.31.57.25C64.41,96.86,64.48,96.67,64,95.39ZM81.9,59.49a2.59,2.59,0,0,0-.74,0,37.52,37.52,0,0,0-8.64,3.85,9.6,9.6,0,0,0-3.8,4.42c-.29.68-.85,1.25-.9,2a15.63,15.63,0,0,1-.74,3.09c-.48,1.89-1.42,3.69-.79,5.78a39.69,39.69,0,0,1,1.11,5A6.45,6.45,0,0,0,69,86.83c1.16,1.4,2.39,2.75,3.49,4.21a3.1,3.1,0,0,0,2.06,1.53,49.6,49.6,0,0,0,13.11.11,1.43,1.43,0,0,0,.89-.28c1.4-1.33,2.82-2.63,4.17-4a9,9,0,0,0,1.61-2.31c.68-1.33,1-2.8,1.72-4.09a10.05,10.05,0,0,0,1.46-4.69c.06-1.44.8-2.91.46-4.29-.62-2.54-.94-5.27-3-7.24-1.45-1.4-2.11-3.47-4.33-4.26C87.76,60.51,85,59.4,81.9,59.49ZM60.92,51h0c.21,0,.42,0,.63.05.57.11.84-.07.88-.69s0-.84-.69-.86c-1.05,0-2.1-.16-3.15-.28-.62-.07-.67.32-.73.77s.07.79.64.82C59.31,50.82,60.11,50.91,60.92,51Zm44.28,37.1c-.1-.49-.58-.48-.87-.71s-.43-.14-.62.09a29.27,29.27,0,0,1-2.09,2.37c-.37.37-.16.85.24,1.18s.52.57.88.14c.79-.93,1.58-1.86,2.35-2.8A.77.77,0,0,0,105.2,88.08Zm-19.38,10a3,3,0,0,0-.31.15c-.93.62-1.76,1.37-2.74,1.93-.44.25-.08.74.12,1.11s.43.49.83.23a14,14,0,0,1,2.62-1.7.51.51,0,0,0,.25-.79C86.38,98.65,86.26,98.21,85.82,98.06Zm-27-35.17c0-.42,0-.85,0-1.27,0-.65-.29-.85-.9-.85s-.81.28-.79.85c0,.84,0,1.69,0,2.53,0,.56.17.85.78.85s.94-.19.91-.84C58.81,63.73,58.83,63.31,58.83,62.89Zm-8.42,6.17c0,.63.12,1.16,1,.9a11.09,11.09,0,0,1,2.08-.29c.6-.06.87-.23.73-.93s-.41-.77-1-.65a19.38,19.38,0,0,1-2.29.3C50.52,68.43,50.31,68.57,50.41,69.06Zm50.3-18.43c0-.38,0-.77,0-1.16,0-.56-.21-.74-.74-.74s-.86.13-.82.77,0,1.48,0,2.22.3.68.79.68.82-.13.77-.71C100.69,51.34,100.71,51,100.71,50.63Zm8.12,17.81c-.78-.28-1,.16-.9.87a4.24,4.24,0,0,1-.25,1.66c-.2.66.12.88.7,1s.78-.17.86-.71a14.34,14.34,0,0,1,.41-2C109.84,68.57,109.62,68.28,108.83,68.44Zm-41,46.49c.42.09.65-.09.73-.52.12-.62.24-1.25.42-1.86s.11-.93-.64-1.1-.81.24-.92.74-.24,1.18-.4,1.76S67.11,114.93,67.79,114.93ZM59.5,53.29c-.06,1.36-.06,1.34.9,1.45s.76-.78.93-1.3a4.22,4.22,0,0,0,.06-.95c0-.81-.6-.73-1.1-.81s-.72.3-.74.77C59.54,52.73,59.52,53,59.5,53.29ZM82.71,41c-.66-.07-1,.09-.74.88.22.62.4,1.27.56,1.92s.67.41,1.07.33.6-.38.42-.85a12.67,12.67,0,0,1-.49-1.73C83.43,41.08,83.2,40.89,82.71,41ZM48.13,91.89c-.25.21-1.44-.59-1.29.79,0,.54,0,1.29.9.95.62-.25,1.91.41,1.73-1.14C49.38,91.74,49.09,91.48,48.13,91.89Zm54.89,9.6h.07c-.09-.74-.17-1.47-.26-2.21a.42.42,0,0,0-.51-.41.43.43,0,0,0-.42.5c.1,1.2.21,2.4.33,3.59a.47.47,0,0,0,.93-.09C103.13,102.4,103.07,101.94,103,101.49ZM58.36,96.06c-.42,0-.74,0-.83.39s.22.48.48.55l3.28.79a.44.44,0,0,0,.61-.38c.07-.31-.1-.46-.37-.53C60.45,96.59,59.36,96.32,58.36,96.06ZM42.89,75.87a22,22,0,0,1-.41-4c0-.35-.1-.66-.55-.59s-.45.38-.4.72c.19,1.33.38,2.66.58,4,0,.24.06.54.4.52S42.88,76.17,42.89,75.87Zm53,27.74a.47.47,0,0,0-.21-.5c-1-.88-2.39-1.13-3.52-1.82-.23-.13-.4,0-.49.26a.39.39,0,0,0,.24.59,18,18,0,0,1,3.23,1.74C95.58,104.13,95.77,104,95.88,103.61ZM48.88,68a10.43,10.43,0,0,1-1.42.35c-.6.07-.82.34-.64.92s.26,1,1,.71c.45-.18.92-.34,1.39-.5a.47.47,0,0,0,.34-.73C49.39,68.44,49.31,68,48.88,68ZM46.35,85.88a.45.45,0,0,0-.37.3.43.43,0,0,0,.17.55c1,.86,2.25,1.3,3.21,2.18a.37.37,0,0,0,.56-.09c.16-.18.24-.42,0-.56-1.15-.8-2.32-1.58-3.48-2.36C46.45,85.88,46.41,85.89,46.35,85.88ZM75.09,53.06c-.23,0-.5-.14-.62.18s0,.43.24.48c1.44.32,2.88.64,4.33.93.33.07.42-.18.45-.45a.34.34,0,0,0-.34-.43A33.16,33.16,0,0,1,75.09,53.06Zm31.59,21.85A12.45,12.45,0,0,0,110,72.8a.55.55,0,0,0,0-.49c-.14-.27-.35-.08-.53,0a20.16,20.16,0,0,0-3.16,1.89c-.17.1-.4.22-.32.48S106.25,75,106.68,74.91Zm-4.61-9.36c-.11-.18-.22-.31-.3-.47-.55-1-1.65-1.61-2.28-2.59-.13-.22-.34-.21-.54-.06a.37.37,0,0,0-.06.62c.81.92,1.63,1.83,2.45,2.74.13.14.29.23.46.09A2.27,2.27,0,0,0,102.07,65.55ZM50.94,66.64c0-.07-.07-.22-.14-.24a26,26,0,0,1-3-1.68.48.48,0,0,0-.44.84c1,.53,2,1.07,3,1.57C50.75,67.35,50.85,67,50.94,66.64Zm31.6-29.55c0-.22-.16-.27-.34-.33-1-.34-2-.7-3.09-1-.24-.08-.58-.24-.68.18s0,.7.41.73a19.36,19.36,0,0,1,3,.87C82.25,37.61,82.48,37.49,82.54,37.09ZM77.69,48.74l3-1.38a.31.31,0,0,0,.12-.45.32.32,0,0,0-.44-.17l-3.09,1.08a.4.4,0,0,0-.24.6C77.15,48.63,77.26,48.8,77.69,48.74ZM51.88,100.51c-.37,0-.65,0-.93,0s-.75,0-.72.53.42.47.77.48a3.37,3.37,0,0,0,.84,0c.51-.1,1.43.37,1.41-.52S52.28,100.7,51.88,100.51ZM71.31,52.65a2.08,2.08,0,0,0-.28-.44c-.25-.23-.48-.05-.65.13A7.43,7.43,0,0,1,68.63,54c-.29.16-.25.48,0,.73s.44.14.64,0c.59-.56,1.19-1.1,1.77-1.66A2.25,2.25,0,0,0,71.31,52.65Zm16.88,54.2c0-.23,0-.34-.14-.41a.68.68,0,0,0-.87.15c-.55.59-.74,1.43-1.35,2-.16.14,0,.32.13.43s.35.24.47.09C87.05,108.35,87.64,107.57,88.19,106.85Zm16.94-57.16c-.17-.42-.37-.52-.76-.32-.66.34-.93,1.06-1.5,1.48-.2.15-.57.33-.27.66s.65.23.94,0c.45-.45.89-.91,1.32-1.37A2.35,2.35,0,0,0,105.13,49.69ZM103,97.78a.43.43,0,0,0-.49.2.31.31,0,0,0,.13.45c.65.41,1.3.83,2,1.22.26.16.46,0,.6-.23a.39.39,0,0,0-.1-.56A8.78,8.78,0,0,0,103,97.78ZM54.36,81.65c-.33.06-.63.2-.49.61.26.76.57,1.51.87,2.26a.31.31,0,0,0,.43.19.33.33,0,0,0,.22-.42c-.19-.78-.41-1.56-.63-2.33A.4.4,0,0,0,54.36,81.65ZM93.19,39.3c0-.19.17-.71-.3-.75s-.42.52-.46.86c-.06.67-.1,1.34-.13,2,0,.3,0,.61.43.59s.31-.33.33-.57C93.1,40.76,93.14,40.1,93.19,39.3ZM57.33,91.6h0c0-.35,0-.71,0-1.06s0-.53-.37-.53-.4.27-.41.52c0,.75,0,1.49,0,2.23,0,.22.1.42.37.42s.37-.19.38-.42C57.35,92.38,57.33,92,57.33,91.6ZM95.15,38.11c-.06,0-.17.1-.21.18a9.48,9.48,0,0,0-.71,2.51c0,.25.18.35.41.38a.4.4,0,0,0,.47-.33c.17-.78.32-1.56.45-2.35C95.6,38.26,95.43,38.12,95.15,38.11ZM70.39,109l-.33-1.85c0-.25-.15-.51-.47-.45s-.34.33-.29.58c.1.62.24,1.23.37,1.85.06.26.19.47.5.38S70.44,109.25,70.39,109ZM97.15,54.48a.56.56,0,0,0-.41-.46A3.07,3.07,0,0,0,95,55a.41.41,0,0,0,.16.47c.54.32.9-.17,1.32-.35S97.14,54.92,97.15,54.48ZM110,82.34c0-.17,0-.43-.2-.43a2.8,2.8,0,0,0-1.82.61.42.42,0,0,0,0,.58c.4.34.79,0,1.17-.11S110,82.86,110,82.34Zm-3.39-23.21c-.45.22-1,.48-1.54.73-.21.1-.36.24-.28.49s.34.34.6.23l1.55-.69c.19-.08.29-.2.22-.4A.47.47,0,0,0,106.65,59.13Zm8.41,23.54c-.15-.69-.55-.43-.94-.24s-.52.2-.78.31-1,.4-.31.75c.5.25,1.2-.19,1.79-.4A.36.36,0,0,0,115.06,82.67ZM74.16,98.89c.2.39,0,1.12.69,1.29a.37.37,0,0,0,.43-.53c-.21-.52.06-1.3-.67-1.5C74.22,98,74.15,98.46,74.16,98.89Zm-5-54.95c.31-.07.56-.14.61-.44s-.93-1.42-1.16-1.4-.56.18-.46.46A3.66,3.66,0,0,0,69.15,43.94Zm-2.58.31c-.27-.54-.42-1.22-1.1-1.5-.17-.07-.41.17-.31.29.4.54.2,1.42,1,1.71C66.3,44.82,66.58,44.61,66.57,44.25Zm28.78,66.48a1.61,1.61,0,0,0,1.25-1,.39.39,0,0,0-.48-.51A1.77,1.77,0,0,0,95,110.37C94.83,110.68,95.13,110.68,95.35,110.73ZM49.06,75.25c-.26-.34.11-1.07-.58-1.22-.37-.08-.47.31-.35.58.22.46-.16,1.23.61,1.36C49.07,76,49.07,75.6,49.06,75.25Zm17.76,30.8c.35-.08.9.15.91-.44s-.55-.43-.89-.43-.9-.18-.91.42S66.49,106,66.82,106.05Zm39.27-15.21c-.07-.23-.21-.48-.42-.43a.88.88,0,0,0-.79.73c0,.29.23.43.52.4S105.94,91.14,106.09,90.84Z" transform="translate(-0.19 -0.19)" style="fill:#dfbab2"/><path d="M121.94,67.06c-.29.31-.59.61-.86.94-.44.55-.84.45-1.34,0s-.22-.77.07-1.12.79-.91,1.17-1.37c.22-.26.42-.49.8-.3C122.49,65.8,122.71,66.39,121.94,67.06Z" transform="translate(-0.19 -0.19)" style="fill:#42b9f8"/><path d="M100.83,113c-.17-.39-.8-.75,0-1.19.57-.34,1-.52,1.36.26a1.72,1.72,0,0,0,.14.4c.24.44.7.78-.13,1.21s-1,.06-1.22-.5A.67.67,0,0,0,100.83,113Z" transform="translate(-0.19 -0.19)" style="fill:#44b8f2"/><path d="M81.9,59.49c3.08-.09,5.86,1,8.71,2,2.22.79,2.88,2.86,4.33,4.26,2,2,2.37,4.7,3,7.24.34,1.38-.4,2.85-.46,4.29A10.05,10.05,0,0,1,96,82c-.73,1.29-1,2.76-1.72,4.09a9,9,0,0,1-1.61,2.31c-1.35,1.38-2.77,2.68-4.17,4a1.43,1.43,0,0,1-.89.28,49.6,49.6,0,0,1-13.11-.11A3.1,3.1,0,0,1,72.45,91c-1.1-1.46-2.33-2.81-3.49-4.21a6.45,6.45,0,0,1-1.56-3.17,39.69,39.69,0,0,0-1.11-5c-.63-2.09.31-3.89.79-5.78a15.63,15.63,0,0,0,.74-3.09c.05-.76.61-1.33.9-2a9.6,9.6,0,0,1,3.8-4.42,37.52,37.52,0,0,1,8.64-3.85A2.59,2.59,0,0,1,81.9,59.49Zm.42,30.19c1.66.07,3.11.06,4.17-.77s2.11-1.52,3.12-2.34A12.91,12.91,0,0,0,94.7,75.21c-.13-1.9,0-3.83-1.32-5.64S90.72,66,88.5,65a19,19,0,0,0-10.91-1.68,16.06,16.06,0,0,0-2.16.83c-2.27.72-4.33,1.73-5.15,4.18-.66,2-1.57,3.85-2.34,5.78a1.83,1.83,0,0,0-.15.82c.33,3.47.59,6.87,3,9.83a12,12,0,0,0,5.89,4.12A17.75,17.75,0,0,0,82.32,89.68Z" transform="translate(-0.19 -0.19)" style="fill:#d2b02e"/><path d="M64,95.39c.47,1.28.4,1.47-.58,1.69-.28.06-.47.08-.57-.25a32.06,32.06,0,0,1-1.49-4.6c-.12-.75.35-.77.8-1s.66.24.78.57c.29.79.52,1.59.78,2.39v0a.64.64,0,0,0,.21.66Z" transform="translate(-0.19 -0.19)" style="fill:#41b8f9"/><path d="M60.92,51c-.81-.07-1.61-.16-2.42-.2-.57,0-.72-.29-.64-.82s.11-.84.73-.77c1,.12,2.1.24,3.15.28.65,0,.72.31.69.86s-.31.8-.88.69c-.21,0-.42,0-.63-.05Z" transform="translate(-0.19 -0.19)" style="fill:#45b8f8"/><path d="M105.2,88.08a.77.77,0,0,1-.11.27c-.77.94-1.56,1.87-2.35,2.8-.36.43-.61.07-.88-.14s-.61-.81-.24-1.18a29.27,29.27,0,0,0,2.09-2.37c.19-.23.37-.29.62-.09S105.1,87.59,105.2,88.08Z" transform="translate(-0.19 -0.19)" style="fill:#42b9f8"/><path d="M85.82,98.06c.44.15.56.59.77.93a.51.51,0,0,1-.25.79,14,14,0,0,0-2.62,1.7c-.4.26-.63.14-.83-.23s-.56-.86-.12-1.11c1-.56,1.81-1.31,2.74-1.93A3,3,0,0,1,85.82,98.06Z" transform="translate(-0.19 -0.19)" style="fill:#44b8f8"/><path d="M58.83,62.89c0,.42,0,.84,0,1.27,0,.65-.3.85-.91.84s-.8-.29-.78-.85c0-.84,0-1.69,0-2.53,0-.57.18-.84.79-.85s.93.2.9.85C58.82,62,58.83,62.47,58.83,62.89Z" transform="translate(-0.19 -0.19)" style="fill:#fbe059"/><path d="M50.41,69.06c-.1-.49.11-.63.56-.67a19.38,19.38,0,0,0,2.29-.3c.59-.12.88,0,1,.65s-.13.87-.73.93a11.09,11.09,0,0,0-2.08.29C50.53,70.22,50.44,69.69,50.41,69.06Z" transform="translate(-0.19 -0.19)" style="fill:#45b8f8"/><path d="M100.71,50.63c0,.36,0,.71,0,1.06,0,.58-.26.72-.77.71s-.81-.08-.79-.68,0-1.48,0-2.22.27-.77.82-.77.78.18.74.74C100.69,49.86,100.71,50.25,100.71,50.63Z" transform="translate(-0.19 -0.19)" style="fill:#41b8f9"/><path d="M108.83,68.44c.79-.16,1,.13.82.85a14.34,14.34,0,0,0-.41,2c-.08.54-.22.85-.86.71s-.9-.34-.7-1a4.24,4.24,0,0,0,.25-1.66C107.86,68.6,108.05,68.16,108.83,68.44Z" transform="translate(-0.19 -0.19)" style="fill:#42b9f8"/><path d="M67.79,114.93c-.68,0-1-.27-.81-1s.28-1.17.4-1.76.14-.92.92-.74.81.49.64,1.1-.3,1.24-.42,1.86C68.44,114.84,68.21,115,67.79,114.93Z" transform="translate(-0.19 -0.19)" style="fill:#42b9f8"/><path d="M59.5,53.29c0-.28,0-.56,0-.84,0-.47.13-.87.74-.77s1.14,0,1.1.81a4.22,4.22,0,0,1-.06.95c-.17.52.17,1.42-.93,1.3S59.44,54.65,59.5,53.29Z" transform="translate(-0.19 -0.19)" style="fill:#fbe059"/><path d="M82.71,41c.49-.12.72.07.82.55A12.67,12.67,0,0,0,84,43.29c.18.47.08.75-.42.85s-.89.41-1.07-.33-.34-1.3-.56-1.92C81.69,41.1,82.05,40.94,82.71,41Z" transform="translate(-0.19 -0.19)" style="fill:#44b8f8"/><path d="M48.13,91.89c1-.41,1.25-.15,1.34.6.18,1.55-1.11.89-1.73,1.14-.85.34-.85-.41-.9-.95C46.69,91.3,47.88,92.1,48.13,91.89Z" transform="translate(-0.19 -0.19)" style="fill:#45b8f8"/><path d="M103,101.49c0,.45.11.91.14,1.37a.47.47,0,0,1-.93.09c-.12-1.19-.23-2.39-.33-3.59a.43.43,0,0,1,.42-.5.42.42,0,0,1,.51.41c.09.74.17,1.47.26,2.21Z" transform="translate(-0.19 -0.19)" style="fill:#fbe059"/><path d="M58.36,96.06c1,.26,2.09.53,3.17.82.27.07.44.22.37.53a.44.44,0,0,1-.61.38L58,97c-.26-.07-.57-.15-.48-.55S57.94,96,58.36,96.06Z" transform="translate(-0.19 -0.19)" style="fill:#fbf8f6"/><path d="M42.89,75.87c0,.3,0,.63-.38.65s-.37-.28-.4-.52c-.2-1.32-.39-2.65-.58-4-.05-.34,0-.66.4-.72s.56.24.55.59A22,22,0,0,0,42.89,75.87Z" transform="translate(-0.19 -0.19)" style="fill:#fbf8f7"/><path d="M95.88,103.61c-.11.36-.3.52-.75.27a18,18,0,0,0-3.23-1.74.39.39,0,0,1-.24-.59c.09-.21.26-.39.49-.26,1.13.69,2.49.94,3.52,1.82A.47.47,0,0,1,95.88,103.61Z" transform="translate(-0.19 -0.19)" style="fill:#fbf8f7"/><path d="M48.88,68c.43,0,.51.41.66.75a.47.47,0,0,1-.34.73c-.47.16-.94.32-1.39.5-.73.29-.84-.23-1-.71s0-.85.64-.92A10.43,10.43,0,0,0,48.88,68Z" transform="translate(-0.19 -0.19)" style="fill:#fce158"/><path d="M46.35,85.88c.06,0,.1,0,.13,0,1.16.78,2.33,1.56,3.48,2.36.2.14.12.38,0,.56a.37.37,0,0,1-.56.09c-1-.88-2.22-1.32-3.21-2.18a.43.43,0,0,1-.17-.55A.45.45,0,0,1,46.35,85.88Z" transform="translate(-0.19 -0.19)" style="fill:#fbf8f7"/><path d="M75.09,53.06a33.16,33.16,0,0,0,4.06.71.34.34,0,0,1,.34.43c0,.27-.12.52-.45.45-1.45-.29-2.89-.61-4.33-.93-.26,0-.33-.24-.24-.48S74.86,53,75.09,53.06Z" transform="translate(-0.19 -0.19)" style="fill:#fbf8f7"/><path d="M106.68,74.91c-.43.07-.63,0-.7-.23s.15-.38.32-.48a20.16,20.16,0,0,1,3.16-1.89c.18-.08.39-.27.53,0a.55.55,0,0,1,0,.49A12.45,12.45,0,0,1,106.68,74.91Z" transform="translate(-0.19 -0.19)" style="fill:#fbf8f7"/><path d="M102.07,65.55a2.27,2.27,0,0,1-.27.33c-.17.14-.33.05-.46-.09-.82-.91-1.64-1.82-2.45-2.74a.37.37,0,0,1,.06-.62c.2-.15.41-.16.54.06.63,1,1.73,1.54,2.28,2.59C101.85,65.24,102,65.37,102.07,65.55Z" transform="translate(-0.19 -0.19)" style="fill:#fbf8f7"/><path d="M50.94,66.64c-.09.35-.19.71-.62.49-1-.5-2-1-3-1.57a.48.48,0,0,1,.44-.84,26,26,0,0,0,3,1.68C50.87,66.42,50.9,66.57,50.94,66.64Z" transform="translate(-0.19 -0.19)" style="fill:#fbf8f6"/><path d="M82.54,37.09c-.06.4-.29.52-.68.42a19.36,19.36,0,0,0-3-.87c-.37,0-.5-.38-.41-.73s.44-.26.68-.18c1,.33,2.06.69,3.09,1C82.38,36.82,82.53,36.87,82.54,37.09Z" transform="translate(-0.19 -0.19)" style="fill:#fbf8f6"/><path d="M77.69,48.74c-.43.06-.54-.11-.62-.32a.4.4,0,0,1,.24-.6l3.09-1.08a.32.32,0,0,1,.44.17.31.31,0,0,1-.12.45Z" transform="translate(-0.19 -0.19)" style="fill:#fbf8f6"/><path d="M51.88,100.51c.4.19,1.35-.4,1.37.48s-.9.42-1.41.52a3.37,3.37,0,0,1-.84,0c-.35,0-.75,0-.77-.48s.36-.53.72-.53S51.51,100.51,51.88,100.51Z" transform="translate(-0.19 -0.19)" style="fill:#f8dc63"/><path d="M64,95.39l-.07-.51-.21-.66v0c0-.46,0-.92,0-1.37s.08-.58.46-.59.43.21.47.47c.11.66.22,1.32.27,2S64.48,95.4,64,95.39Z" transform="translate(-0.19 -0.19)" style="fill:#fbf8f6"/><path d="M55.83,44.37a7.26,7.26,0,0,1-1-2.74c0-.24-.16-.51.21-.59s.46.14.55.39l1,2.56Z" transform="translate(-0.19 -0.19)" style="fill:#fbf8f7"/><path d="M71.31,52.65A2.25,2.25,0,0,1,71,53c-.58.56-1.18,1.1-1.77,1.66-.2.19-.4.28-.64,0s-.29-.57,0-.73a7.43,7.43,0,0,0,1.75-1.65c.17-.18.4-.36.65-.13A2.08,2.08,0,0,1,71.31,52.65Z" transform="translate(-0.19 -0.19)" style="fill:#fae05a"/><path d="M88.19,106.85c-.55.72-1.14,1.5-1.76,2.25-.12.15-.33,0-.47-.09s-.29-.29-.13-.43c.61-.56.8-1.4,1.35-2a.68.68,0,0,1,.87-.15C88.19,106.51,88.24,106.62,88.19,106.85Z" transform="translate(-0.19 -0.19)" style="fill:#fbf8f7"/><path d="M105.13,49.69a2.35,2.35,0,0,1-.27.4c-.43.46-.87.92-1.32,1.37-.29.28-.65.37-.94,0s.07-.51.27-.66c.57-.42.84-1.14,1.5-1.48C104.76,49.17,105,49.27,105.13,49.69Z" transform="translate(-0.19 -0.19)" style="fill:#fbf8f7"/><path d="M103,97.78a8.78,8.78,0,0,1,2.11,1.08.39.39,0,0,1,.1.56c-.14.26-.34.39-.6.23-.67-.39-1.32-.81-2-1.22a.31.31,0,0,1-.13-.45A.43.43,0,0,1,103,97.78Z" transform="translate(-0.19 -0.19)" style="fill:#fbf8f7"/><path d="M54.36,81.65a.4.4,0,0,1,.4.31c.22.77.44,1.55.63,2.33a.33.33,0,0,1-.22.42.31.31,0,0,1-.43-.19c-.3-.75-.61-1.5-.87-2.26C53.73,81.85,54,81.71,54.36,81.65Z" transform="translate(-0.19 -0.19)" style="fill:#fae05a"/><path d="M93.19,39.3c0,.8-.09,1.46-.13,2.13,0,.24,0,.55-.33.57s-.45-.29-.43-.59c0-.66.07-1.33.13-2,0-.34-.15-.92.46-.86S93.16,39.11,93.19,39.3Z" transform="translate(-0.19 -0.19)" style="fill:#fce158"/><path d="M57.33,91.6c0,.39,0,.78,0,1.16,0,.23-.12.42-.38.42s-.37-.2-.37-.42c0-.74,0-1.48,0-2.23,0-.25.09-.51.41-.52s.36.28.37.53,0,.71,0,1.06Z" transform="translate(-0.19 -0.19)" style="fill:#f8dc63"/><path d="M95.15,38.11c.28,0,.45.15.41.39-.13.79-.28,1.57-.45,2.35a.4.4,0,0,1-.47.33c-.23,0-.45-.13-.41-.38a9.48,9.48,0,0,1,.71-2.51C95,38.21,95.09,38.16,95.15,38.11Z" transform="translate(-0.19 -0.19)" style="fill:#fbf8f7"/><path d="M70.39,109c0,.22,0,.44-.22.51s-.44-.12-.5-.38c-.13-.62-.27-1.23-.37-1.85,0-.25,0-.53.29-.58s.42.2.47.45Z" transform="translate(-0.19 -0.19)" style="fill:#fbf8f6"/><path d="M97.15,54.48c0,.44-.43.49-.71.62s-.78.67-1.32.35A.41.41,0,0,1,95,55a3.07,3.07,0,0,1,1.78-1A.56.56,0,0,1,97.15,54.48Z" transform="translate(-0.19 -0.19)" style="fill:#fbe059"/><path d="M110,82.34c0,.52-.48.56-.82.65s-.77.45-1.17.11a.42.42,0,0,1,0-.58,2.8,2.8,0,0,1,1.82-.61C110,81.91,110,82.17,110,82.34Z" transform="translate(-0.19 -0.19)" style="fill:#fbf8f7"/><path d="M106.65,59.13a.47.47,0,0,1,.55.36c.07.2,0,.32-.22.4l-1.55.69c-.26.11-.5.07-.6-.23s.07-.39.28-.49C105.66,59.61,106.2,59.35,106.65,59.13Z" transform="translate(-0.19 -0.19)" style="fill:#fae05a"/><path d="M55.83,44.37l.71-.38a8.33,8.33,0,0,1,.88,1.67c.12.26.13.48-.14.64s-.46,0-.55-.28C56.48,45.44,55.89,45.05,55.83,44.37Z" transform="translate(-0.19 -0.19)" style="fill:#fae05a"/><path d="M115.06,82.67a.36.36,0,0,1-.24.42c-.59.21-1.29.65-1.79.4-.7-.35-.07-.6.31-.75s.53-.19.78-.31S114.91,82,115.06,82.67Z" transform="translate(-0.19 -0.19)" style="fill:#fae05a"/><path d="M74.16,98.89c0-.43.06-.86.45-.74.73.2.46,1,.67,1.5a.37.37,0,0,1-.43.53C74.11,100,74.36,99.28,74.16,98.89Z" transform="translate(-0.19 -0.19)" style="fill:#fbe059"/><path d="M69.15,43.94a3.66,3.66,0,0,1-1-1.38c-.1-.28.2-.42.46-.46s1.19,1.14,1.16,1.4S69.46,43.87,69.15,43.94Z" transform="translate(-0.19 -0.19)" style="fill:#fae05a"/><path d="M66.57,44.25c0,.36-.27.57-.46.5-.75-.29-.55-1.17-1-1.71-.1-.12.14-.36.31-.29C66.15,43,66.3,43.71,66.57,44.25Z" transform="translate(-0.19 -0.19)" style="fill:#fbf8f7"/><path d="M95.35,110.73c-.22,0-.52,0-.39-.36a1.77,1.77,0,0,1,1.16-1.12.39.39,0,0,1,.48.51A1.61,1.61,0,0,1,95.35,110.73Z" transform="translate(-0.19 -0.19)" style="fill:#fae05a"/><path d="M49.06,75.25c0,.35,0,.77-.32.72-.77-.13-.39-.9-.61-1.36-.12-.27,0-.66.35-.58C49.17,74.18,48.8,74.91,49.06,75.25Z" transform="translate(-0.19 -0.19)" style="fill:#f8dc63"/><path d="M66.82,106.05c-.33-.09-.89.15-.89-.45s.56-.42.91-.42.9-.17.89.43S67.17,106,66.82,106.05Z" transform="translate(-0.19 -0.19)" style="fill:#fce158"/><path d="M106.09,90.84c-.15.3-.29.65-.69.7s-.55-.11-.52-.4a.88.88,0,0,1,.79-.73C105.88,90.36,106,90.61,106.09,90.84Z" transform="translate(-0.19 -0.19)" style="fill:#fae05a"/><path d="M82.32,89.68a17.75,17.75,0,0,1-5.67-.83,12,12,0,0,1-5.89-4.12c-2.38-3-2.64-6.36-3-9.83a1.83,1.83,0,0,1,.15-.82c.77-1.93,1.68-3.8,2.34-5.78.82-2.45,2.88-3.46,5.15-4.18a16.06,16.06,0,0,1,2.16-.83A19,19,0,0,1,88.5,65c2.22,1,3.5,2.72,4.88,4.6s1.19,3.74,1.32,5.64a12.91,12.91,0,0,1-5.09,11.36c-1,.82-2.1,1.53-3.12,2.34S84,89.75,82.32,89.68Z" transform="translate(-0.19 -0.19)" style="fill:#9ebaa4"/><path d="M63.73,94.22l.21.66A.64.64,0,0,1,63.73,94.22Z" transform="translate(-0.19 -0.19)" style="fill:#dfbab2"/></g></svg>