<svg id="nachzeichnung" xmlns="http://www.w3.org/2000/svg" viewBox="0 0 59.2 44.69"><title>success</title><path d="M72.44-116.54c9.53,0,19.06,0,28.6,0,.83,0,1,.17,1,1q-.06,21.34,0,42.69c0,.84-.17,1-1,1q-28.61,0-57.2,0c-.84,0-1-.16-1-1q0-21.34,0-42.69c0-.83.16-1,1-1C53.37-116.53,62.9-116.54,72.44-116.54ZM86.38-87.3a.74.74,0,0,1-.29-.86,5.74,5.74,0,0,0-.49-3.93c-.65-1.14-1.33-1.17-2.12-.11a7.26,7.26,0,0,0-.91,6.79c.48,1.51.17,2.37-1.08,3.1-.4.24-.75.56-1.14.81s-.58.61-1,.29,0-.61,0-.91a8,8,0,0,0-.49-5.44c-.5-1-1.15-1-1.81-.21a7.47,7.47,0,0,0-1.88,6.45c.5,2.4.29,2.69-2.17,3.06a6.53,6.53,0,0,1-2.73-.4c-1-.26-1.24-.76-1-1.81a7.58,7.58,0,0,0-1.47-7.08c-.89-1.09-1.58-1-2.14.32a7.2,7.2,0,0,0-.28,5.3c.08.25.23.57,0,.77s-.52,0-.74-.2c-.57-.4-1.12-.84-1.7-1.22A1.76,1.76,0,0,1,62.14-85a7.62,7.62,0,0,0,0-5.73c-.4-.92-.74-2.37-2-2.11s-1.33,1.62-1.51,2.74c-.15.92.35,1.87-.17,2.76-.89-.57-1.17-1.61-1.82-2.38a1.76,1.76,0,0,1,.06-2.56,6.7,6.7,0,0,0,1.12-6.08c-.12-.44-.29-.92-.85-1s-.75.29-1,.61a8.29,8.29,0,0,0-1.44,2.84c-.08.25-.08.61-.48.57s-.34-.28-.42-.5c-.3-.78-.53-1.59-.87-2.35a1.81,1.81,0,0,1,.66-2.49,6.85,6.85,0,0,0,2.58-6c-.08-1.21-.64-1.51-1.61-.78a8.67,8.67,0,0,0-3,3.58c-.39,1-.83,1-1.5.25a6.76,6.76,0,0,0-3-2c-1.31-.37-1.92.15-1.55,1.46a5.88,5.88,0,0,0,4.43,4.55c.6.14,1.14.26,1.38,1,.48,1.45,1,2.89,1.55,4.33.26.7.11,1-.71,1a31,31,0,0,0-3.2.09c-.52,0-1.2.08-1.35.77s.36.93.76,1.24a5.82,5.82,0,0,0,5.44,1.35c.62-.19,1.11-.31,1.56.38.78,1.21,1.65,2.36,2.5,3.52.49.68.36,1-.49,1A11.74,11.74,0,0,0,53-84.3c-.48.17-1,.32-1.08,1a1.18,1.18,0,0,0,.82,1.19,8.17,8.17,0,0,0,6.93.24c.9-.42,1.52-.52,2.22.19.29.3.67.5,1,.78s1.32.55,1.18,1.2-1,.46-1.58.63a9.52,9.52,0,0,0-4.79,2.69c-.54.62-.73,1.2.22,1.65,2.63,1.25,7.45.19,9.2-2.18a1.55,1.55,0,0,1,2.2-.6c1.56.65,3.2,1.18,4.86.42s3.21-.92,4.24,1a1.26,1.26,0,0,0,.42.37C81-74.15,83.48-74.31,86-74.56c.62-.06,1.41-.1,1.6-.87s-.46-1.08-.88-1.47a11.3,11.3,0,0,0-5.4-2.45c-.26-.06-.6-.05-.68-.38s.24-.47.45-.63a22.35,22.35,0,0,0,1.9-1.42A1.48,1.48,0,0,1,85-81.94a6.43,6.43,0,0,0,7.11-.25c.42-.26.9-.6.8-1.21s-.59-.68-1-.84a11.26,11.26,0,0,0-4.1-.73c-.31,0-.7.09-.86-.28s.16-.6.34-.85c.75-1.07,1.55-2.1,2.26-3.19a1.17,1.17,0,0,1,1.59-.61c2.11.72,3.92-.07,5.58-1.33.39-.3.89-.65.75-1.24s-.83-.72-1.36-.76a31,31,0,0,0-3.2-.09c-.81,0-1-.3-.73-1,.46-1.26,1-2.52,1.35-3.8a2,2,0,0,1,1.7-1.57c2.49-.59,3.77-2.41,4.39-4.76.27-1-.25-1.5-1.3-1.28a5.72,5.72,0,0,0-3.16,1.94c-.77.9-1.26,1-1.74-.23a7.79,7.79,0,0,0-2.5-3.13c-.49-.4-1-1-1.7-.6s-.53,1.16-.46,1.79a8,8,0,0,0,2.89,5.53c.35.3.82.53.71,1.1A14.63,14.63,0,0,1,90.77-95c-.69-1.42-1-2.73-1.84-3.72-.31-.34-.61-.76-1.15-.64s-.66.58-.78,1a7.16,7.16,0,0,0,1.23,6.21c.28.4.82.75.52,1.33A14.22,14.22,0,0,1,86.38-87.3ZM72.43-114.8a12.61,12.61,0,0,0-12.75,12.57A12.78,12.78,0,0,0,72.3-89.31,12.87,12.87,0,0,0,85.16-102,12.69,12.69,0,0,0,72.43-114.8Z" transform="translate(-42.84 116.57)" style="fill:none"/><path d="M86.38-87.3a14.22,14.22,0,0,0,2.37-3.47c.3-.58-.24-.93-.52-1.33A7.16,7.16,0,0,1,87-98.31c.12-.47.25-.93.78-1s.84.3,1.15.64c.88,1,1.15,2.3,1.84,3.72a14.63,14.63,0,0,0,1.59-4.34c.11-.57-.36-.8-.71-1.1A8,8,0,0,1,88.76-106c-.07-.63-.21-1.4.46-1.79s1.21.2,1.7.6a7.79,7.79,0,0,1,2.5,3.13c.48,1.18,1,1.13,1.74.23a5.72,5.72,0,0,1,3.16-1.94c1.05-.22,1.57.25,1.3,1.28-.62,2.35-1.9,4.17-4.39,4.76a2,2,0,0,0-1.7,1.57c-.39,1.28-.89,2.54-1.35,3.8-.26.71-.08,1,.73,1a31,31,0,0,1,3.2.09c.53,0,1.2.09,1.36.76s-.36.94-.75,1.24c-1.66,1.26-3.47,2-5.58,1.33a1.17,1.17,0,0,0-1.59.61c-.71,1.09-1.51,2.12-2.26,3.19-.18.25-.5.48-.34.85s.55.29.86.28a11.26,11.26,0,0,1,4.1.73c.43.16.93.31,1,.84s-.38,1-.8,1.21a6.43,6.43,0,0,1-7.11.25,1.48,1.48,0,0,0-2.08.16A22.35,22.35,0,0,1,81-80.36c-.21.16-.53.3-.45.63s.42.32.68.38a11.3,11.3,0,0,1,5.4,2.45c.42.39,1.06.77.88,1.47s-1,.81-1.6.87c-2.47.25-4.94.41-7.11-1.18a1.26,1.26,0,0,1-.42-.37c-1-2-2.51-1.83-4.24-1s-3.3.23-4.86-.42a1.55,1.55,0,0,0-2.2.6c-1.75,2.37-6.57,3.43-9.2,2.18-1-.45-.76-1-.22-1.65a9.52,9.52,0,0,1,4.79-2.69c.55-.17,1.44,0,1.58-.63s-.75-.82-1.18-1.2-.69-.48-1-.78c-.7-.71-1.32-.61-2.22-.19a8.17,8.17,0,0,1-6.93-.24,1.18,1.18,0,0,1-.82-1.19c.07-.63.6-.78,1.08-1A11.74,11.74,0,0,1,57.13-85c.85,0,1-.32.49-1-.85-1.16-1.72-2.31-2.5-3.52-.45-.69-.94-.57-1.56-.38a5.82,5.82,0,0,1-5.44-1.35c-.4-.31-.89-.63-.76-1.24s.83-.72,1.35-.77a31,31,0,0,1,3.2-.09c.82,0,1-.32.71-1-.53-1.44-1.07-2.88-1.55-4.33-.24-.71-.78-.83-1.38-1a5.88,5.88,0,0,1-4.43-4.55c-.37-1.31.24-1.83,1.55-1.46a6.76,6.76,0,0,1,3,2c.67.7,1.11.7,1.5-.25a8.67,8.67,0,0,1,3-3.58c1-.73,1.53-.43,1.61.78a6.85,6.85,0,0,1-2.58,6,1.81,1.81,0,0,0-.66,2.49c.34.76.57,1.57.87,2.35.08.22.16.48.42.5s.4-.32.48-.57a8.29,8.29,0,0,1,1.44-2.84c.27-.32.54-.68,1-.61s.73.55.85,1a6.7,6.7,0,0,1-1.12,6.08,1.76,1.76,0,0,0-.06,2.56c.65.77.93,1.81,1.82,2.38.52-.89,0-1.84.17-2.76.18-1.12.31-2.5,1.51-2.74s1.62,1.19,2,2.11a7.62,7.62,0,0,1,0,5.73A1.76,1.76,0,0,0,63-82.58c.58.38,1.13.82,1.7,1.22.22.16.47.39.74.2s.13-.52,0-.77a7.2,7.2,0,0,1,.28-5.3c.56-1.3,1.25-1.41,2.14-.32a7.58,7.58,0,0,1,1.47,7.08c-.27,1-.08,1.55,1,1.81a6.53,6.53,0,0,0,2.73.4c2.46-.37,2.67-.66,2.17-3.06a7.47,7.47,0,0,1,1.88-6.45c.66-.82,1.31-.8,1.81.21a8,8,0,0,1,.49,5.44c-.07.3-.31.68,0,.91s.67-.11,1-.29.74-.57,1.14-.81c1.25-.73,1.56-1.59,1.08-3.1a7.26,7.26,0,0,1,.91-6.79c.79-1.06,1.47-1,2.12.11a5.74,5.74,0,0,1,.49,3.93A.74.74,0,0,0,86.38-87.3ZM61.19-75.73a6.34,6.34,0,0,0,4.32-1.52c.19-.18.47-.38.3-.69a.6.6,0,0,0-.48-.19,11.17,11.17,0,0,0-5.27,1.58.59.59,0,0,0-.28.42c0,.29.3.33.53.35A7.89,7.89,0,0,0,61.19-75.73Zm22.39,0c.4-.13,1.16.2,1.31-.36s-.66-.76-1.12-1a12.12,12.12,0,0,0-3.87-1.07c-.31,0-.73-.17-.9.17s.23.66.49.89A6.73,6.73,0,0,0,83.58-75.72ZM66.47-84.31a9.67,9.67,0,0,0,.78,3.13c.09.2.21.44.49.41s.3-.3.36-.52a5.54,5.54,0,0,0-.56-4.16c-.1-.21-.22-.43-.49-.42s-.33.3-.38.51S66.53-84.64,66.47-84.31Zm10.67,3.49a5.83,5.83,0,0,0,1-4.45c-.06-.26,0-.6-.43-.61s-.41.21-.51.42C76.56-83.95,76.17-82.42,77.14-80.82ZM84-86A7.89,7.89,0,0,0,84.79-90c0-.23,0-.5-.33-.55s-.32.13-.39.31A5,5,0,0,0,84-86ZM60-89.29A7.81,7.81,0,0,0,60.36-87c0,.28.13.59.47.56s.29-.32.34-.54a5,5,0,0,0-.12-2.45c-.1-.42-.14-1.11-.67-1S60.12-89.7,60-89.29ZM57-83.63c-.7.27-2.16-.13-2.11.58s1.43.66,2.26.54c.51-.08,1.47,0,1.39-.72C58.45-83.76,57.55-83.52,57-83.63Zm29,.53a4.48,4.48,0,0,0,3.7.44c.18-.06.35-.14.36-.36a.36.36,0,0,0-.36-.35C88.5-83.49,87.32-83.91,86-83.1ZM54.54-105.63a5.72,5.72,0,0,0-2.2,2.91c-.09.2-.17.49.06.64s.51-.08.68-.29A6.44,6.44,0,0,0,54.54-105.63Zm37.95,3.24a1.57,1.57,0,0,0,0-.16,4.83,4.83,0,0,0-1.63-2.62s-.31.09-.31.15a3.91,3.91,0,0,0,1.31,2.76C92.06-102,92.38-101.87,92.49-102.39Zm-45.33-1.34a2.4,2.4,0,0,0,1.07,1.81c.33.29.77.86,1.15.51s-.2-.79-.47-1.08C48.46-103,48.08-103.61,47.16-103.73Zm50.51-.09a5,5,0,0,0-2.28,1.87c-.12.15-.2.36,0,.48a.56.56,0,0,0,.5,0A3.21,3.21,0,0,0,97.67-103.82ZM50.21-91.67a2.67,2.67,0,0,0,2.42.49c.08,0,.17-.3.15-.32A3.08,3.08,0,0,0,50.59-92C50.51-92,50.45-91.86,50.21-91.67Zm38.12-5a2.6,2.6,0,0,0,.76,2.76A3.47,3.47,0,0,0,88.33-96.68Zm4.56,5.62c.54-.06,1.22,0,1.42-.58.14-.42-.41-.41-.68-.35-.55.13-1.35-.08-1.55.54S92.58-91.14,92.89-91.06ZM56.41-96.61a2.92,2.92,0,0,0-.62,2.66A2.45,2.45,0,0,0,56.41-96.61Z" transform="translate(-42.84 116.57)" style="fill:#cec9b3"/><path d="M72.43-114.8A12.69,12.69,0,0,1,85.16-102,12.87,12.87,0,0,1,72.3-89.31a12.78,12.78,0,0,1-12.62-12.92A12.61,12.61,0,0,1,72.43-114.8Zm-.93,9.24c0,2.85,0,5.47,0,8.1,0,.56-.43.8-.94.84s-.93,0-1.39,0-1.14.17-1.2.89a1,1,0,0,0,1.09,1.19c2.5.07,5,.08,7.52.06a.94.94,0,0,0,1-1c0-.69-.41-1-1-1.09a4.59,4.59,0,0,0-1,0c-1.2.12-1.66-.4-1.65-1.61,0-2.78,0-5.57-.08-8.36a14.55,14.55,0,0,0-.15-2.08,1.62,1.62,0,0,0-1.27-1.33c-.75-.2-1.1.32-1.41.86a19.55,19.55,0,0,1-3.09,3.93c-.48.48-.89,1-.22,1.67a1.14,1.14,0,0,0,1.73-.1C70.05-104.15,70.66-104.76,71.5-105.56Z" transform="translate(-42.84 116.57)" style="fill:#cec9b3"/><path d="M61.19-75.73a7.89,7.89,0,0,1-.88,0c-.23,0-.51-.06-.53-.35a.59.59,0,0,1,.28-.42,11.17,11.17,0,0,1,5.27-1.58.6.6,0,0,1,.48.19c.17.31-.11.51-.3.69A6.34,6.34,0,0,1,61.19-75.73Z" transform="translate(-42.84 116.57)" style="fill:none"/><path d="M83.58-75.72a6.73,6.73,0,0,1-4.09-1.34c-.26-.23-.71-.47-.49-.89s.59-.2.9-.17A12.12,12.12,0,0,1,83.77-77c.46.21,1.29.28,1.12,1S84-75.85,83.58-75.72Z" transform="translate(-42.84 116.57)" style="fill:none"/><path d="M66.47-84.31c.06-.33.1-.7.2-1s.08-.49.38-.51.39.21.49.42a5.54,5.54,0,0,1,.56,4.16c-.06.22-.07.49-.36.52s-.4-.21-.49-.41A9.67,9.67,0,0,1,66.47-84.31Z" transform="translate(-42.84 116.57)" style="fill:none"/><path d="M77.14-80.82c-1-1.6-.58-3.13.09-4.64.1-.21.24-.43.51-.42s.37.35.43.61A5.83,5.83,0,0,1,77.14-80.82Z" transform="translate(-42.84 116.57)" style="fill:none"/><path d="M84-86a5,5,0,0,1,.06-4.32c.07-.18.18-.34.39-.31s.31.32.33.55A7.89,7.89,0,0,1,84-86Z" transform="translate(-42.84 116.57)" style="fill:none"/><path d="M60-89.29c.08-.41-.22-1.09.34-1.16s.57.62.67,1A5,5,0,0,1,61.17-87c-.05.22-.08.52-.34.54s-.42-.28-.47-.56A7.81,7.81,0,0,1,60-89.29Z" transform="translate(-42.84 116.57)" style="fill:none"/><path d="M57-83.63c.59.11,1.49-.13,1.54.4.08.76-.88.64-1.39.72-.83.12-2.2.3-2.26-.54S56.26-83.36,57-83.63Z" transform="translate(-42.84 116.57)" style="fill:none"/><path d="M86-83.1c1.37-.81,2.55-.39,3.7-.27A.36.36,0,0,1,90-83c0,.22-.18.3-.36.36A4.48,4.48,0,0,1,86-83.1Z" transform="translate(-42.84 116.57)" style="fill:none"/><path d="M54.54-105.63a6.44,6.44,0,0,1-1.46,3.26c-.17.21-.37.48-.68.29s-.15-.44-.06-.64A5.72,5.72,0,0,1,54.54-105.63Z" transform="translate(-42.84 116.57)" style="fill:none"/><path d="M92.49-102.39c-.11.52-.43.39-.66.13A3.91,3.91,0,0,1,90.52-105c0-.06.26-.18.31-.15a4.83,4.83,0,0,1,1.63,2.62A1.57,1.57,0,0,1,92.49-102.39Z" transform="translate(-42.84 116.57)" style="fill:none"/><path d="M47.16-103.73c.92.12,1.3.75,1.75,1.24.27.29,1,.64.47,1.08s-.82-.22-1.15-.51A2.4,2.4,0,0,1,47.16-103.73Z" transform="translate(-42.84 116.57)" style="fill:none"/><path d="M97.67-103.82a3.21,3.21,0,0,1-1.82,2.39.56.56,0,0,1-.5,0c-.16-.12-.08-.33,0-.48A5,5,0,0,1,97.67-103.82Z" transform="translate(-42.84 116.57)" style="fill:none"/><path d="M50.21-91.67c.24-.19.3-.29.38-.3a3.08,3.08,0,0,1,2.19.47s-.07.3-.15.32A2.67,2.67,0,0,1,50.21-91.67Z" transform="translate(-42.84 116.57)" style="fill:none"/><path d="M88.33-96.68a3.47,3.47,0,0,1,.76,2.76A2.6,2.6,0,0,1,88.33-96.68Z" transform="translate(-42.84 116.57)" style="fill:none"/><path d="M92.89-91.06c-.31-.08-1,.08-.81-.39s1-.41,1.55-.54c.27-.06.82-.07.68.35C94.11-91.06,93.43-91.12,92.89-91.06Z" transform="translate(-42.84 116.57)" style="fill:none"/><path d="M56.41-96.61a2.45,2.45,0,0,1-.62,2.66A2.92,2.92,0,0,1,56.41-96.61Z" transform="translate(-42.84 116.57)" style="fill:none"/><path d="M71.5-105.56c-.84.8-1.45,1.41-2.09,2a1.14,1.14,0,0,1-1.73.1c-.67-.64-.26-1.19.22-1.67A19.55,19.55,0,0,0,71-109.07c.31-.54.66-1.06,1.41-.86a1.62,1.62,0,0,1,1.27,1.33,14.55,14.55,0,0,1,.15,2.08c.05,2.79.11,5.58.08,8.36,0,1.21.45,1.73,1.65,1.61a4.59,4.59,0,0,1,1,0c.61.09,1,.4,1,1.09a.94.94,0,0,1-1,1c-2.51,0-5,0-7.52-.06A1,1,0,0,1,68-95.7c.06-.72.59-.88,1.2-.89s.93,0,1.39,0,.93-.28.94-.84C71.51-100.09,71.5-102.71,71.5-105.56Z" transform="translate(-42.84 116.57)" style="fill:none"/></svg>